<svg xmlns="http://www.w3.org/2000/svg" xmlns:xlink="http://www.w3.org/1999/xlink" contentStyleType="text/css" height="791px" preserveAspectRatio="none" style="width:1294px;height:791px;background:#FFFFFF;" version="1.1" viewBox="0 0 1294 791" width="1294px" zoomAndPan="magnify"><defs/><g><!--cluster digital--><g id="cluster_digital"><path d="M8.5,6 L55.5742,6 A3.75,3.75 0 0 1 58.0742,8.5 L65.0742,28.4883 L1284.5,28.4883 A2.5,2.5 0 0 1 1287,30.9883 L1287,782.27 A2.5,2.5 0 0 1 1284.5,784.77 L8.5,784.77 A2.5,2.5 0 0 1 6,782.27 L6,8.5 A2.5,2.5 0 0 1 8.5,6 " fill="none" style="stroke:#000000;stroke-width:1.5;"/><line style="stroke:#000000;stroke-width:1.5;" x1="6" x2="65.0742" y1="28.4883" y2="28.4883"/><text fill="#000000" font-family="sans-serif" font-size="14" font-weight="bold" lengthAdjust="spacing" textLength="46.0742" x="10" y="21.5352">digital</text></g><!--cluster boline--><g id="cluster_boline"><path d="M32.5,49 L78.2207,49 A3.75,3.75 0 0 1 80.7207,51.5 L87.7207,71.4883 L1260.5,71.4883 A2.5,2.5 0 0 1 1263,73.9883 L1263,758.27 A2.5,2.5 0 0 1 1260.5,760.77 L32.5,760.77 A2.5,2.5 0 0 1 30,758.27 L30,51.5 A2.5,2.5 0 0 1 32.5,49 " fill="none" style="stroke:#000000;stroke-width:1.5;"/><line style="stroke:#000000;stroke-width:1.5;" x1="30" x2="87.7207" y1="71.4883" y2="71.4883"/><text fill="#000000" font-family="sans-serif" font-size="14" font-weight="bold" lengthAdjust="spacing" textLength="44.7207" x="34" y="64.5352">boline</text></g><!--cluster callAssistant--><g id="cluster_callAssistant"><path d="M56.5,92 L149.6689,92 A3.75,3.75 0 0 1 152.1689,94.5 L159.1689,114.4883 L1236.5,114.4883 A2.5,2.5 0 0 1 1239,116.9883 L1239,734.27 A2.5,2.5 0 0 1 1236.5,736.77 L56.5,736.77 A2.5,2.5 0 0 1 54,734.27 L54,94.5 A2.5,2.5 0 0 1 56.5,92 " fill="none" style="stroke:#000000;stroke-width:1.5;"/><line style="stroke:#000000;stroke-width:1.5;" x1="54" x2="159.1689" y1="114.4883" y2="114.4883"/><text fill="#000000" font-family="sans-serif" font-size="14" font-weight="bold" lengthAdjust="spacing" textLength="92.1689" x="58" y="107.5352">callAssistant</text></g><!--class LoggableInterface$Factory$Companion--><g id="elem_LoggableInterface$Factory$Companion"><rect codeLine="1" fill="#F1F1F1" height="130.4414" id="LoggableInterface$Factory$Companion" rx="2.5" ry="2.5" style="stroke:#181818;stroke-width:0.5;" width="298.1641" x="69.92" y="590.33"/><ellipse cx="84.92" cy="606.33" fill="#ADD1B2" rx="11" ry="11" style="stroke:#181818;stroke-width:1.0;"/><path d="M87.8931,611.9731 Q87.3121,612.2719 86.6729,612.4213 Q86.0338,612.5707 85.3282,612.5707 Q82.8214,612.5707 81.5015,610.9189 Q80.1817,609.267 80.1817,606.1459 Q80.1817,603.0165 81.5015,601.3647 Q82.8214,599.7128 85.3282,599.7128 Q86.0338,599.7128 86.6812,599.8622 Q87.3287,600.0116 87.8931,600.3105 L87.8931,603.0331 Q87.2623,602.4521 86.6688,602.1823 Q86.0753,601.9125 85.4444,601.9125 Q84.0997,601.9125 83.4149,602.9792 Q82.7301,604.0458 82.7301,606.1459 Q82.7301,608.2377 83.4149,609.3044 Q84.0997,610.371 85.4444,610.371 Q86.0753,610.371 86.6688,610.1012 Q87.2623,609.8315 87.8931,609.2504 Z " fill="#000000"/><text fill="#000000" font-family="sans-serif" font-size="14" lengthAdjust="spacing" textLength="266.1641" x="98.92" y="611.621">LoggableInterface$Factory$Companion</text><line style="stroke:#181818;stroke-width:0.5;" x1="70.92" x2="367.0841" y1="622.33" y2="622.33"/><rect fill="none" height="6" style="stroke:#C82930;stroke-width:1.0;" width="6" x="77.92" y="633.0741"/><text fill="#000000" font-family="sans-serif" font-size="14" lengthAdjust="spacing" textLength="99.0186" x="89.92" y="639.8652">internalLogger</text><line style="stroke:#181818;stroke-width:0.5;" x1="70.92" x2="367.0841" y1="646.8183" y2="646.8183"/><rect fill="#F24D5C" height="6" style="stroke:#C82930;stroke-width:1.0;" width="6" x="77.92" y="657.5624"/><text fill="#000000" font-family="sans-serif" font-size="14" lengthAdjust="spacing" textLength="214.7441" x="89.92" y="664.3534">void getLoggerName(Class&lt;*&gt;)</text><rect fill="#F24D5C" height="6" style="stroke:#C82930;stroke-width:1.0;" width="6" x="77.92" y="674.0507"/><text fill="#000000" font-family="sans-serif" font-size="14" lengthAdjust="spacing" textLength="223.0771" x="89.92" y="680.8417">Logger getNewLogger(Class&lt;*&gt;)</text><ellipse cx="80.92" cy="693.539" fill="#84BE84" rx="3" ry="3" style="stroke:#038048;stroke-width:1.0;"/><text fill="#000000" font-family="sans-serif" font-size="14" lengthAdjust="spacing" textLength="156.9736" x="89.92" y="697.33">Level? getLevel(Logger)</text><rect fill="#F24D5C" height="6" style="stroke:#C82930;stroke-width:1.0;" width="6" x="77.92" y="707.0273"/><text fill="#000000" font-family="sans-serif" font-size="14" lengthAdjust="spacing" textLength="252.6152" x="89.92" y="713.8183">Logger getNewLoggerByName(String)</text></g><!--class LoggableInterface$Factory--><g id="elem_LoggableInterface$Factory"><rect codeLine="10" fill="#F1F1F1" height="80.9766" id="LoggableInterface$Factory" rx="2.5" ry="2.5" style="stroke:#181818;stroke-width:0.5;" width="268.7236" x="69.64" y="399.89"/><ellipse cx="110.4407" cy="415.89" fill="#ADD1B2" rx="11" ry="11" style="stroke:#181818;stroke-width:1.0;"/><path d="M113.4139,421.5331 Q112.8328,421.8319 112.1937,421.9813 Q111.5545,422.1307 110.8489,422.1307 Q108.3421,422.1307 107.0223,420.4789 Q105.7025,418.827 105.7025,415.7059 Q105.7025,412.5765 107.0223,410.9247 Q108.3421,409.2728 110.8489,409.2728 Q111.5545,409.2728 112.202,409.4222 Q112.8494,409.5716 113.4139,409.8705 L113.4139,412.5931 Q112.783,412.0121 112.1895,411.7423 Q111.596,411.4725 110.9651,411.4725 Q109.6204,411.4725 108.9356,412.5392 Q108.2508,413.6058 108.2508,415.7059 Q108.2508,417.7977 108.9356,418.8644 Q109.6204,419.931 110.9651,419.931 Q111.596,419.931 112.1895,419.6612 Q112.783,419.3915 113.4139,418.8104 Z " fill="#000000"/><text fill="#000000" font-family="sans-serif" font-size="14" lengthAdjust="spacing" textLength="179.3887" x="130.1742" y="421.181">LoggableInterface$Factory</text><line style="stroke:#181818;stroke-width:0.5;" x1="70.64" x2="337.3636" y1="431.89" y2="431.89"/><ellipse cx="80.64" cy="445.6341" fill="none" rx="3" ry="3" style="stroke:#038048;stroke-width:1.0;"/><text fill="#000000" font-family="sans-serif" font-size="14" lengthAdjust="spacing" textLength="127.9756" x="89.64" y="449.4252">Logger slf4jLogger</text><line style="stroke:#181818;stroke-width:0.5;" x1="70.64" x2="337.3636" y1="456.3783" y2="456.3783"/><ellipse cx="80.64" cy="470.1224" fill="#84BE84" rx="3" ry="3" style="stroke:#038048;stroke-width:1.0;"/><text fill="#000000" font-family="sans-serif" font-size="14" lengthAdjust="spacing" textLength="242.7236" x="89.64" y="473.9134">&#171;Create&#187; Factory(LoggableInterface)</text></g><!--class LoggableInterface$Companion--><g id="elem_LoggableInterface$Companion"><rect codeLine="16" fill="#F1F1F1" height="64.4883" id="LoggableInterface$Companion" rx="2.5" ry="2.5" style="stroke:#181818;stroke-width:0.5;" width="240.0244" x="372.99" y="408.13"/><ellipse cx="387.99" cy="424.13" fill="#ADD1B2" rx="11" ry="11" style="stroke:#181818;stroke-width:1.0;"/><path d="M390.9631,429.7731 Q390.3821,430.0719 389.7429,430.2213 Q389.1038,430.3707 388.3982,430.3707 Q385.8914,430.3707 384.5715,428.7189 Q383.2517,427.067 383.2517,423.9459 Q383.2517,420.8165 384.5715,419.1647 Q385.8914,417.5128 388.3982,417.5128 Q389.1038,417.5128 389.7512,417.6622 Q390.3987,417.8116 390.9631,418.1105 L390.9631,420.8331 Q390.3323,420.2521 389.7388,419.9823 Q389.1453,419.7125 388.5144,419.7125 Q387.1697,419.7125 386.4849,420.7792 Q385.8001,421.8458 385.8001,423.9459 Q385.8001,426.0377 386.4849,427.1044 Q387.1697,428.171 388.5144,428.171 Q389.1453,428.171 389.7388,427.9012 Q390.3323,427.6315 390.9631,427.0504 Z " fill="#000000"/><text fill="#000000" font-family="sans-serif" font-size="14" lengthAdjust="spacing" textLength="208.0244" x="401.99" y="429.421">LoggableInterface$Companion</text><line style="stroke:#181818;stroke-width:0.5;" x1="373.99" x2="612.0144" y1="440.13" y2="440.13"/><ellipse cx="383.99" cy="453.8741" fill="none" rx="3" ry="3" style="stroke:#038048;stroke-width:1.0;"/><text fill="#000000" font-family="sans-serif" font-size="14" lengthAdjust="spacing" textLength="110.7354" x="392.99" y="457.6652">String NEW_LINE</text><line style="stroke:#181818;stroke-width:0.5;" x1="373.99" x2="612.0144" y1="464.6183" y2="464.6183"/></g><!--class LoggableInterface--><g id="elem_LoggableInterface"><rect codeLine="20" fill="#F1F1F1" height="64.4883" id="LoggableInterface" rx="2.5" ry="2.5" style="stroke:#181818;stroke-width:0.5;" width="161.1602" x="399.42" y="176.47"/><ellipse cx="417.98" cy="192.47" fill="#B4A7E5" rx="11" ry="11" style="stroke:#181818;stroke-width:1.0;"/><path d="M413.9077,188.2351 L413.9077,186.0769 L421.2871,186.0769 L421.2871,188.2351 L418.8218,188.2351 L418.8218,196.3118 L421.2871,196.3118 L421.2871,198.47 L413.9077,198.47 L413.9077,196.3118 L416.3731,196.3118 L416.3731,188.2351 Z " fill="#000000"/><text fill="#000000" font-family="sans-serif" font-size="14" font-style="italic" lengthAdjust="spacing" textLength="121.249" x="432.7711" y="197.761">LoggableInterface</text><line style="stroke:#181818;stroke-width:0.5;" x1="400.42" x2="559.5802" y1="208.47" y2="208.47"/><line style="stroke:#181818;stroke-width:0.5;" x1="400.42" x2="559.5802" y1="216.47" y2="216.47"/><ellipse cx="410.42" cy="230.2141" fill="#84BE84" rx="3" ry="3" style="stroke:#038048;stroke-width:1.0;"/><text fill="#000000" font-family="sans-serif" font-size="14" lengthAdjust="spacing" textLength="135.1602" x="419.42" y="234.0052">void loggerFactory()</text></g><!--class CentralizedLogger--><g id="elem_CentralizedLogger"><rect codeLine="24" fill="#F1F1F1" height="163.418" id="CentralizedLogger" rx="2.5" ry="2.5" style="stroke:#181818;stroke-width:0.5;" width="480.5215" x="595.74" y="127"/><ellipse cx="769.4241" cy="143" fill="#ADD1B2" rx="11" ry="11" style="stroke:#181818;stroke-width:1.0;"/><path d="M772.3972,148.6431 Q771.8162,148.9419 771.177,149.0913 Q770.5379,149.2407 769.8323,149.2407 Q767.3254,149.2407 766.0056,147.5889 Q764.6858,145.937 764.6858,142.8159 Q764.6858,139.6865 766.0056,138.0347 Q767.3254,136.3828 769.8323,136.3828 Q770.5379,136.3828 771.1853,136.5322 Q771.8328,136.6816 772.3972,136.9805 L772.3972,139.7031 Q771.7664,139.1221 771.1729,138.8523 Q770.5794,138.5825 769.9485,138.5825 Q768.6038,138.5825 767.919,139.6492 Q767.2341,140.7158 767.2341,142.8159 Q767.2341,144.9077 767.919,145.9744 Q768.6038,147.041 769.9485,147.041 Q770.5794,147.041 771.1729,146.7712 Q771.7664,146.5015 772.3972,145.9204 Z " fill="#000000"/><text fill="#000000" font-family="sans-serif" font-size="14" lengthAdjust="spacing" textLength="124.6533" x="789.9241" y="148.291">CentralizedLogger</text><line style="stroke:#181818;stroke-width:0.5;" x1="596.74" x2="1075.2615" y1="159" y2="159"/><rect fill="none" height="6" style="stroke:#C82930;stroke-width:1.0;" width="6" x="603.74" y="169.7441"/><text fill="#000000" font-family="sans-serif" font-size="14" lengthAdjust="spacing" textLength="68.9473" x="615.74" y="176.5352">loggerTag</text><line style="stroke:#181818;stroke-width:0.5;" x1="596.74" x2="1075.2615" y1="183.4883" y2="183.4883"/><ellipse cx="606.74" cy="197.2324" fill="#84BE84" rx="3" ry="3" style="stroke:#038048;stroke-width:1.0;"/><text fill="#000000" font-family="sans-serif" font-size="14" lengthAdjust="spacing" textLength="454.5215" x="615.74" y="201.0234">&#171;Create&#187; CentralizedLogger(Class&lt;out LoggableInterface&gt;,Logger)</text><ellipse cx="606.74" cy="213.7207" fill="#84BE84" rx="3" ry="3" style="stroke:#038048;stroke-width:1.0;"/><text fill="#000000" font-family="sans-serif" font-size="14" lengthAdjust="spacing" textLength="151.874" x="615.74" y="217.5117">void trace(String,Any?)</text><ellipse cx="606.74" cy="230.209" fill="#84BE84" rx="3" ry="3" style="stroke:#038048;stroke-width:1.0;"/><text fill="#000000" font-family="sans-serif" font-size="14" lengthAdjust="spacing" textLength="161.0479" x="615.74" y="234">void debug(String,Any?)</text><ellipse cx="606.74" cy="246.6973" fill="#84BE84" rx="3" ry="3" style="stroke:#038048;stroke-width:1.0;"/><text fill="#000000" font-family="sans-serif" font-size="14" lengthAdjust="spacing" textLength="144.6895" x="615.74" y="250.4883">void info(String,Any?)</text><ellipse cx="606.74" cy="263.1855" fill="#84BE84" rx="3" ry="3" style="stroke:#038048;stroke-width:1.0;"/><text fill="#000000" font-family="sans-serif" font-size="14" lengthAdjust="spacing" textLength="151.1426" x="615.74" y="266.9766">void warn(String,Any?)</text><ellipse cx="606.74" cy="279.6738" fill="#84BE84" rx="3" ry="3" style="stroke:#038048;stroke-width:1.0;"/><text fill="#000000" font-family="sans-serif" font-size="14" lengthAdjust="spacing" textLength="151.792" x="615.74" y="283.4648">void error(String,Any?)</text></g><!--class Loggable$Companion--><g id="elem_Loggable$Companion"><rect codeLine="35" fill="#F1F1F1" height="64.4883" id="Loggable$Companion" rx="2.5" ry="2.5" style="stroke:#181818;stroke-width:0.5;" width="180.6885" x="743.66" y="623.31"/><ellipse cx="758.66" cy="639.31" fill="#ADD1B2" rx="11" ry="11" style="stroke:#181818;stroke-width:1.0;"/><path d="M761.6331,644.9531 Q761.0521,645.2519 760.4129,645.4013 Q759.7738,645.5507 759.0682,645.5507 Q756.5614,645.5507 755.2415,643.8989 Q753.9217,642.247 753.9217,639.1259 Q753.9217,635.9965 755.2415,634.3447 Q756.5614,632.6928 759.0682,632.6928 Q759.7738,632.6928 760.4212,632.8422 Q761.0687,632.9916 761.6331,633.2905 L761.6331,636.0131 Q761.0023,635.4321 760.4088,635.1623 Q759.8153,634.8925 759.1844,634.8925 Q757.8397,634.8925 757.1549,635.9592 Q756.4701,637.0258 756.4701,639.1259 Q756.4701,641.2177 757.1549,642.2844 Q757.8397,643.351 759.1844,643.351 Q759.8153,643.351 760.4088,643.0812 Q761.0023,642.8115 761.6331,642.2304 Z " fill="#000000"/><text fill="#000000" font-family="sans-serif" font-size="14" lengthAdjust="spacing" textLength="148.6885" x="772.66" y="644.601">Loggable$Companion</text><line style="stroke:#181818;stroke-width:0.5;" x1="744.66" x2="923.3485" y1="655.31" y2="655.31"/><ellipse cx="754.66" cy="669.0541" fill="none" rx="3" ry="3" style="stroke:#038048;stroke-width:1.0;"/><text fill="#000000" font-family="sans-serif" font-size="14" lengthAdjust="spacing" textLength="110.7354" x="763.66" y="672.8452">String NEW_LINE</text><line style="stroke:#181818;stroke-width:0.5;" x1="744.66" x2="923.3485" y1="679.7983" y2="679.7983"/></g><!--class Loggable--><g id="elem_Loggable"><rect codeLine="39" fill="#F1F1F1" height="179.9063" id="Loggable" rx="2.5" ry="2.5" style="stroke:#181818;stroke-width:0.5;" width="372.2061" x="647.9" y="350.42"/><ellipse cx="798.7965" cy="366.42" fill="#ADD1B2" rx="11" ry="11" style="stroke:#181818;stroke-width:1.0;"/><path d="M801.7696,372.0631 Q801.1886,372.3619 800.5494,372.5113 Q799.9103,372.6607 799.2047,372.6607 Q796.6979,372.6607 795.378,371.0089 Q794.0582,369.357 794.0582,366.2359 Q794.0582,363.1065 795.378,361.4547 Q796.6979,359.8028 799.2047,359.8028 Q799.9103,359.8028 800.5577,359.9522 Q801.2052,360.1016 801.7696,360.4005 L801.7696,363.1231 Q801.1388,362.5421 800.5453,362.2723 Q799.9518,362.0025 799.3209,362.0025 Q797.9762,362.0025 797.2914,363.0692 Q796.6065,364.1358 796.6065,366.2359 Q796.6065,368.3277 797.2914,369.3944 Q797.9762,370.461 799.3209,370.461 Q799.9518,370.461 800.5453,370.1912 Q801.1388,369.9215 801.7696,369.3404 Z " fill="#000000"/><text fill="#000000" font-family="sans-serif" font-size="14" lengthAdjust="spacing" textLength="61.9131" x="819.2965" y="371.711">Loggable</text><line style="stroke:#181818;stroke-width:0.5;" x1="648.9" x2="1019.1061" y1="382.42" y2="382.42"/><polygon fill="none" points="658.9,391.1641,662.9,395.1641,658.9,399.1641,654.9,395.1641" style="stroke:#B38D22;stroke-width:1.0;"/><text fill="#000000" font-family="sans-serif" font-size="14" lengthAdjust="spacing" textLength="76.4941" x="667.9" y="399.9552">slf4jLogger</text><polygon fill="none" points="658.9,407.6524,662.9,411.6524,658.9,415.6524,654.9,411.6524" style="stroke:#B38D22;stroke-width:1.0;"/><text fill="#000000" font-family="sans-serif" font-size="14" lengthAdjust="spacing" textLength="172.7168" x="667.9" y="416.4434">CentralizedLogger logger</text><line style="stroke:#181818;stroke-width:0.5;" x1="648.9" x2="1019.1061" y1="423.3966" y2="423.3966"/><ellipse cx="658.9" cy="437.1407" fill="#84BE84" rx="3" ry="3" style="stroke:#038048;stroke-width:1.0;"/><text fill="#000000" font-family="sans-serif" font-size="14" lengthAdjust="spacing" textLength="346.2061" x="667.9" y="440.9317">&#171;Create&#187; Loggable(Class&lt;out LoggableInterface&gt;?)</text><polygon fill="#FFFF44" points="658.9,448.629,662.9,452.629,658.9,456.629,654.9,452.629" style="stroke:#B38D22;stroke-width:1.0;"/><text fill="#000000" font-family="sans-serif" font-size="14" lengthAdjust="spacing" textLength="176.8662" x="667.9" y="457.42">void logTrace(String,Any?)</text><polygon fill="#FFFF44" points="658.9,465.1173,662.9,469.1173,658.9,473.1173,654.9,469.1173" style="stroke:#B38D22;stroke-width:1.0;"/><text fill="#000000" font-family="sans-serif" font-size="14" lengthAdjust="spacing" textLength="184.0986" x="667.9" y="473.9083">void logDebug(String,Any?)</text><polygon fill="#FFFF44" points="658.9,481.6055,662.9,485.6055,658.9,489.6055,654.9,485.6055" style="stroke:#B38D22;stroke-width:1.0;"/><text fill="#000000" font-family="sans-serif" font-size="14" lengthAdjust="spacing" textLength="166.0518" x="667.9" y="490.3966">void logInfo(String,Any?)</text><polygon fill="#FFFF44" points="658.9,498.0938,662.9,502.0938,658.9,506.0938,654.9,502.0938" style="stroke:#B38D22;stroke-width:1.0;"/><text fill="#000000" font-family="sans-serif" font-size="14" lengthAdjust="spacing" textLength="173.708" x="667.9" y="506.8848">void logWarn(String,Any?)</text><polygon fill="#FFFF44" points="658.9,514.5821,662.9,518.5821,658.9,522.5821,654.9,518.5821" style="stroke:#B38D22;stroke-width:1.0;"/><text fill="#000000" font-family="sans-serif" font-size="14" lengthAdjust="spacing" textLength="172.9561" x="667.9" y="523.3731">void logError(String,Any?)</text></g><!--class Factory--><g id="elem_Factory"><rect fill="#F1F1F1" height="48" id="Factory" rx="2.5" ry="2.5" style="stroke:#181818;stroke-width:0.5;" width="81.2871" x="1111.36" y="184.71"/><ellipse cx="1126.36" cy="200.71" fill="#ADD1B2" rx="11" ry="11" style="stroke:#181818;stroke-width:1.0;"/><path d="M1129.3331,206.3531 Q1128.7521,206.6519 1128.1129,206.8013 Q1127.4738,206.9507 1126.7682,206.9507 Q1124.2614,206.9507 1122.9415,205.2989 Q1121.6217,203.647 1121.6217,200.5259 Q1121.6217,197.3965 1122.9415,195.7447 Q1124.2614,194.0928 1126.7682,194.0928 Q1127.4738,194.0928 1128.1212,194.2422 Q1128.7687,194.3916 1129.3331,194.6905 L1129.3331,197.4131 Q1128.7023,196.8321 1128.1088,196.5623 Q1127.5153,196.2925 1126.8844,196.2925 Q1125.5397,196.2925 1124.8549,197.3592 Q1124.1701,198.4258 1124.1701,200.5259 Q1124.1701,202.6177 1124.8549,203.6844 Q1125.5397,204.751 1126.8844,204.751 Q1127.5153,204.751 1128.1088,204.4812 Q1128.7023,204.2115 1129.3331,203.6304 Z " fill="#000000"/><text fill="#000000" font-family="sans-serif" font-size="14" lengthAdjust="spacing" textLength="49.2871" x="1140.36" y="206.001">Factory</text><line style="stroke:#181818;stroke-width:0.5;" x1="1112.36" x2="1191.6471" y1="216.71" y2="216.71"/><line style="stroke:#181818;stroke-width:0.5;" x1="1112.36" x2="1191.6471" y1="224.71" y2="224.71"/></g><!--class Factory$Companion--><g id="elem_Factory$Companion"><rect fill="#F1F1F1" height="48" id="Factory$Companion" rx="2.5" ry="2.5" style="stroke:#181818;stroke-width:0.5;" width="168.0625" x="1054.97" y="416.38"/><ellipse cx="1069.97" cy="432.38" fill="#ADD1B2" rx="11" ry="11" style="stroke:#181818;stroke-width:1.0;"/><path d="M1072.9431,438.0231 Q1072.3621,438.3219 1071.7229,438.4713 Q1071.0838,438.6207 1070.3782,438.6207 Q1067.8714,438.6207 1066.5515,436.9689 Q1065.2317,435.317 1065.2317,432.1959 Q1065.2317,429.0665 1066.5515,427.4147 Q1067.8714,425.7628 1070.3782,425.7628 Q1071.0838,425.7628 1071.7312,425.9122 Q1072.3787,426.0616 1072.9431,426.3605 L1072.9431,429.0831 Q1072.3123,428.5021 1071.7188,428.2323 Q1071.1253,427.9625 1070.4944,427.9625 Q1069.1497,427.9625 1068.4649,429.0292 Q1067.7801,430.0958 1067.7801,432.1959 Q1067.7801,434.2877 1068.4649,435.3544 Q1069.1497,436.421 1070.4944,436.421 Q1071.1253,436.421 1071.7188,436.1512 Q1072.3123,435.8815 1072.9431,435.3004 Z " fill="#000000"/><text fill="#000000" font-family="sans-serif" font-size="14" lengthAdjust="spacing" textLength="136.0625" x="1083.97" y="437.671">Factory$Companion</text><line style="stroke:#181818;stroke-width:0.5;" x1="1055.97" x2="1222.0325" y1="448.38" y2="448.38"/><line style="stroke:#181818;stroke-width:0.5;" x1="1055.97" x2="1222.0325" y1="456.38" y2="456.38"/></g><!--reverse link Factory to Factory$Companion--><g id="link_Factory_Factory$Companion"><path codeLine="53" d="M1149.7764,248.9745 C1147.2864,292.9945 1142.82,371.96 1140.32,416.03 " fill="none" id="Factory-backto-Factory$Companion" style="stroke:#181818;stroke-width:1.0;stroke-dasharray:7.0,7.0;"/><ellipse cx="1150.2282" cy="240.9872" fill="#FFFFFF" rx="8" ry="8" style="stroke:#181818;stroke-width:1.0;"/><line style="stroke:#181818;stroke-width:1.0;" x1="1149.7764" x2="1150.68" y1="248.9745" y2="233"/><line style="stroke:#181818;stroke-width:1.0;" x1="1142.241" x2="1158.2154" y1="240.5354" y2="241.439"/></g><!--reverse link LoggableInterface$Factory to LoggableInterface$Factory$Companion--><g id="link_LoggableInterface$Factory_LoggableInterface$Factory$Companion"><path codeLine="54" d="M207.9118,496.9306 C210.0618,527.5206 211.96,554.51 214.46,590.04 " fill="none" id="LoggableInterface$Factory-backto-LoggableInterface$Factory$Companion" style="stroke:#181818;stroke-width:1.0;stroke-dasharray:7.0,7.0;"/><ellipse cx="207.3509" cy="488.9503" fill="#FFFFFF" rx="8" ry="8" style="stroke:#181818;stroke-width:1.0;"/><line style="stroke:#181818;stroke-width:1.0;" x1="207.9118" x2="206.79" y1="496.9306" y2="480.97"/><line style="stroke:#181818;stroke-width:1.0;" x1="199.3706" x2="215.3312" y1="489.5112" y2="488.3894"/></g><!--reverse link LoggableInterface to LoggableInterface$Factory--><g id="link_LoggableInterface_LoggableInterface$Factory"><path codeLine="55" d="M429.6107,251.6437 C380.0707,292.8637 305.81,354.66 251.88,399.53 " fill="none" id="LoggableInterface-backto-LoggableInterface$Factory" style="stroke:#181818;stroke-width:1.0;stroke-dasharray:7.0,7.0;"/><ellipse cx="435.7604" cy="246.5268" fill="#FFFFFF" rx="8" ry="8" style="stroke:#181818;stroke-width:1.0;"/><line style="stroke:#181818;stroke-width:1.0;" x1="429.6107" x2="441.91" y1="251.6437" y2="241.41"/><line style="stroke:#181818;stroke-width:1.0;" x1="430.6435" x2="440.8772" y1="240.3772" y2="252.6765"/></g><!--reverse link LoggableInterface to LoggableInterface$Companion--><g id="link_LoggableInterface_LoggableInterface$Companion"><path codeLine="56" d="M482.6835,257.1445 C485.1635,300.9945 488.74,364.09 491.22,407.94 " fill="none" id="LoggableInterface-backto-LoggableInterface$Companion" style="stroke:#181818;stroke-width:1.0;stroke-dasharray:7.0,7.0;"/><ellipse cx="482.2317" cy="249.1572" fill="#FFFFFF" rx="8" ry="8" style="stroke:#181818;stroke-width:1.0;"/><line style="stroke:#181818;stroke-width:1.0;" x1="482.6835" x2="481.78" y1="257.1445" y2="241.17"/><line style="stroke:#181818;stroke-width:1.0;" x1="474.2445" x2="490.219" y1="249.609" y2="248.7055"/></g><!--reverse link Loggable to Loggable$Companion--><g id="link_Loggable_Loggable$Companion"><path codeLine="57" d="M834,546.55 C834,579.4 834,598.53 834,622.98 " fill="none" id="Loggable-backto-Loggable$Companion" style="stroke:#181818;stroke-width:1.0;stroke-dasharray:7.0,7.0;"/><ellipse cx="834" cy="538.55" fill="#FFFFFF" rx="8" ry="8" style="stroke:#181818;stroke-width:1.0;"/><line style="stroke:#181818;stroke-width:1.0;" x1="834" x2="834" y1="546.55" y2="530.55"/><line style="stroke:#181818;stroke-width:1.0;" x1="826" x2="842" y1="538.55" y2="538.55"/></g><!--reverse link LoggableInterface to Loggable--><g id="link_LoggableInterface_Loggable"><path codeLine="58" d="M529.3383,253.1506 C547.4583,268.6506 556.47,275.44 578,290.42 C607.44,310.91 639.84,331.29 671.4,350.1 " fill="none" id="LoggableInterface-backto-Loggable" style="stroke:#181818;stroke-width:1.0;stroke-dasharray:7.0,7.0;"/><polygon fill="none" points="515.66,241.45,525.4381,257.71,533.2385,248.5911,515.66,241.45" style="stroke:#181818;stroke-width:1.0;"/></g><!--SRC=[lLHTRu8m57tlhsYY3peSJtia6CTSOc9ucOcFIuKhwLBRfLID-_ZlWq95KbJGP6zmp-qvzvv3YHX9KnpJX2h2t9LWb8CR4SOcQKfJHRXovo99o8h1Z2kGQn91_vL4IiX3Fn2RJyAfuFWRFM9CymPEM7u0P5RP2HhZ15HH2Ca61a6kvptummmkodb32FlYvGHty1nsmCQQ87yQ52rdJZuVDF-RafGdG_IB48hks2tRo34oALi_VPHBETZp0Wb4WU_ZidTWiToXV-gfWujrS3XTlizduJIdfQQr8xFcquamlOePNi_QOjG0k9A4qI-8Irzqw0NPWYHrQwpkCbcnLTWQpH-PQCi9iwEHoN8quOVn4ObXjKqQ4ShNeX7O4yaR0P1Io3hICRRhQNKWooXwkFQnzMmRIx_hPXk6Ynvds_ME-IziWolmnVQu0cUMpHMsj9oki6cpsGXTzCRSHiTrSPl6AX1quxs_gjJYTzXH-mxDVr3gk5LxYTlzydxQQlm1]--></g></svg>