<svg xmlns="http://www.w3.org/2000/svg" contentStyleType="text/css" height="841px" preserveAspectRatio="none" style="width:1380px;height:841px;background:#FFFFFF;" version="1.1" viewBox="0 0 1380 841" width="1380px" zoomAndPan="magnify"><defs/><g><!--cluster digital--><g id="cluster_digital"><path d="M8.5,6 L55.5742,6 A3.75,3.75 0 0 1 58.0742,8.5 L65.0742,28.4883 L1370.5,28.4883 A2.5,2.5 0 0 1 1373,30.9883 L1373,831.73 A2.5,2.5 0 0 1 1370.5,834.23 L8.5,834.23 A2.5,2.5 0 0 1 6,831.73 L6,8.5 A2.5,2.5 0 0 1 8.5,6 " fill="none" style="stroke:#000000;stroke-width:1.5;"/><line style="stroke:#000000;stroke-width:1.5;" x1="6" x2="65.0742" y1="28.4883" y2="28.4883"/><text fill="#000000" font-family="sans-serif" font-size="14" font-weight="bold" lengthAdjust="spacing" textLength="46.0742" x="10" y="21.5352">digital</text></g><!--cluster boline--><g id="cluster_boline"><path d="M32.5,49 L78.2207,49 A3.75,3.75 0 0 1 80.7207,51.5 L87.7207,71.4883 L1346.5,71.4883 A2.5,2.5 0 0 1 1349,73.9883 L1349,807.73 A2.5,2.5 0 0 1 1346.5,810.23 L32.5,810.23 A2.5,2.5 0 0 1 30,807.73 L30,51.5 A2.5,2.5 0 0 1 32.5,49 " fill="none" style="stroke:#000000;stroke-width:1.5;"/><line style="stroke:#000000;stroke-width:1.5;" x1="30" x2="87.7207" y1="71.4883" y2="71.4883"/><text fill="#000000" font-family="sans-serif" font-size="14" font-weight="bold" lengthAdjust="spacing" textLength="44.7207" x="34" y="64.5352">boline</text></g><!--cluster callAssistant--><g id="cluster_callAssistant"><path d="M56.5,92 L149.6689,92 A3.75,3.75 0 0 1 152.1689,94.5 L159.1689,114.4883 L1322.5,114.4883 A2.5,2.5 0 0 1 1325,116.9883 L1325,783.73 A2.5,2.5 0 0 1 1322.5,786.23 L56.5,786.23 A2.5,2.5 0 0 1 54,783.73 L54,94.5 A2.5,2.5 0 0 1 56.5,92 " fill="none" style="stroke:#000000;stroke-width:1.5;"/><line style="stroke:#000000;stroke-width:1.5;" x1="54" x2="159.1689" y1="114.4883" y2="114.4883"/><text fill="#000000" font-family="sans-serif" font-size="14" font-weight="bold" lengthAdjust="spacing" textLength="92.1689" x="58" y="107.5352">callAssistant</text></g><!--class LoggableInterface$Factory$Companion--><g id="elem_LoggableInterface$Factory$Companion"><rect  fill="#F1F1F1" height="130.4414" id="LoggableInterface$Factory$Companion" rx="2.5" ry="2.5" style="stroke:#181818;stroke-width:0.5;" width="298.1641" x="97.92" y="639.79"/><ellipse cx="112.92" cy="655.79" fill="#ADD1B2" rx="11" ry="11" style="stroke:#181818;stroke-width:1.0;"/><path d="M115.8931,661.4331 Q115.3121,661.7319 114.6729,661.8813 Q114.0338,662.0307 113.3282,662.0307 Q110.8214,662.0307 109.5015,660.3789 Q108.1817,658.727 108.1817,655.6059 Q108.1817,652.4765 109.5015,650.8247 Q110.8214,649.1728 113.3282,649.1728 Q114.0338,649.1728 114.6812,649.3222 Q115.3287,649.4716 115.8931,649.7705 L115.8931,652.4931 Q115.2623,651.9121 114.6688,651.6423 Q114.0753,651.3725 113.4444,651.3725 Q112.0997,651.3725 111.4149,652.4392 Q110.7301,653.5058 110.7301,655.6059 Q110.7301,657.6977 111.4149,658.7644 Q112.0997,659.831 113.4444,659.831 Q114.0753,659.831 114.6688,659.5612 Q115.2623,659.2915 115.8931,658.7104 Z " fill="#000000"/><text fill="#000000" font-family="sans-serif" font-size="14" lengthAdjust="spacing" textLength="266.1641" x="126.92" y="661.081">LoggableInterface$Factory$Companion</text><line style="stroke:#181818;stroke-width:0.5;" x1="98.92" x2="395.0841" y1="671.79" y2="671.79"/><rect fill="none" height="6" style="stroke:#C82930;stroke-width:1.0;" width="6" x="105.92" y="682.5341"/><text fill="#000000" font-family="sans-serif" font-size="14" lengthAdjust="spacing" textLength="99.0186" x="117.92" y="689.3252">internalLogger</text><line style="stroke:#181818;stroke-width:0.5;" x1="98.92" x2="395.0841" y1="696.2783" y2="696.2783"/><rect fill="#F24D5C" height="6" style="stroke:#C82930;stroke-width:1.0;" width="6" x="105.92" y="707.0224"/><text fill="#000000" font-family="sans-serif" font-size="14" lengthAdjust="spacing" textLength="214.7441" x="117.92" y="713.8134">void getLoggerName(Class&lt;*&gt;)</text><rect fill="#F24D5C" height="6" style="stroke:#C82930;stroke-width:1.0;" width="6" x="105.92" y="723.5107"/><text fill="#000000" font-family="sans-serif" font-size="14" lengthAdjust="spacing" textLength="223.0771" x="117.92" y="730.3017">Logger getNewLogger(Class&lt;*&gt;)</text><ellipse cx="108.92" cy="742.999" fill="#84BE84" rx="3" ry="3" style="stroke:#038048;stroke-width:1.0;"/><text fill="#000000" font-family="sans-serif" font-size="14" lengthAdjust="spacing" textLength="156.9736" x="117.92" y="746.79">Level? getLevel(Logger)</text><rect fill="#F24D5C" height="6" style="stroke:#C82930;stroke-width:1.0;" width="6" x="105.92" y="756.4873"/><text fill="#000000" font-family="sans-serif" font-size="14" lengthAdjust="spacing" textLength="252.6152" x="117.92" y="763.2783">Logger getNewLoggerByName(String)</text></g><!--class LoggableInterface$Factory--><g id="elem_LoggableInterface$Factory"><rect  fill="#F1F1F1" height="80.9766" id="LoggableInterface$Factory" rx="2.5" ry="2.5" style="stroke:#181818;stroke-width:0.5;" width="353.6738" x="70.16" y="441.1"/><ellipse cx="153.0526" cy="457.1" fill="#ADD1B2" rx="11" ry="11" style="stroke:#181818;stroke-width:1.0;"/><path d="M156.0257,462.7431 Q155.4447,463.0419 154.8055,463.1913 Q154.1663,463.3407 153.4608,463.3407 Q150.9539,463.3407 149.6341,461.6889 Q148.3143,460.037 148.3143,456.9159 Q148.3143,453.7865 149.6341,452.1347 Q150.9539,450.4828 153.4608,450.4828 Q154.1663,450.4828 154.8138,450.6322 Q155.4613,450.7816 156.0257,451.0805 L156.0257,453.8031 Q155.3949,453.2221 154.8014,452.9523 Q154.2079,452.6825 153.577,452.6825 Q152.2323,452.6825 151.5475,453.7492 Q150.8626,454.8158 150.8626,456.9159 Q150.8626,459.0077 151.5475,460.0744 Q152.2323,461.141 153.577,461.141 Q154.2079,461.141 154.8014,460.8712 Q155.3949,460.6015 156.0257,460.0204 Z " fill="#000000"/><text fill="#000000" font-family="sans-serif" font-size="14" lengthAdjust="spacing" textLength="179.3887" x="173.5526" y="462.391">LoggableInterface$Factory</text><line style="stroke:#181818;stroke-width:0.5;" x1="71.16" x2="422.8338" y1="473.1" y2="473.1"/><ellipse cx="81.16" cy="486.8441" fill="none" rx="3" ry="3" style="stroke:#038048;stroke-width:1.0;"/><text fill="#000000" font-family="sans-serif" font-size="14" lengthAdjust="spacing" textLength="127.9756" x="90.16" y="490.6352">Logger slf4jLogger</text><line style="stroke:#181818;stroke-width:0.5;" x1="71.16" x2="422.8338" y1="497.5883" y2="497.5883"/><ellipse cx="81.16" cy="511.3324" fill="#84BE84" rx="3" ry="3" style="stroke:#038048;stroke-width:1.0;"/><text fill="#000000" font-family="sans-serif" font-size="14" lengthAdjust="spacing" textLength="327.6738" x="90.16" y="515.1234">&#171;Create&#187; Factory(Class&lt;out LoggableInterface&gt;)</text></g><!--class LoggableInterface$Companion--><g id="elem_LoggableInterface$Companion"><rect  fill="#F1F1F1" height="64.4883" id="LoggableInterface$Companion" rx="2.5" ry="2.5" style="stroke:#181818;stroke-width:0.5;" width="240.0244" x="458.99" y="449.35"/><ellipse cx="473.99" cy="465.35" fill="#ADD1B2" rx="11" ry="11" style="stroke:#181818;stroke-width:1.0;"/><path d="M476.9631,470.9931 Q476.3821,471.2919 475.7429,471.4413 Q475.1038,471.5907 474.3982,471.5907 Q471.8914,471.5907 470.5715,469.9389 Q469.2517,468.287 469.2517,465.1659 Q469.2517,462.0365 470.5715,460.3847 Q471.8914,458.7328 474.3982,458.7328 Q475.1038,458.7328 475.7512,458.8822 Q476.3987,459.0316 476.9631,459.3305 L476.9631,462.0531 Q476.3323,461.4721 475.7388,461.2023 Q475.1453,460.9325 474.5144,460.9325 Q473.1697,460.9325 472.4849,461.9992 Q471.8001,463.0658 471.8001,465.1659 Q471.8001,467.2577 472.4849,468.3244 Q473.1697,469.391 474.5144,469.391 Q475.1453,469.391 475.7388,469.1212 Q476.3323,468.8515 476.9631,468.2704 Z " fill="#000000"/><text fill="#000000" font-family="sans-serif" font-size="14" lengthAdjust="spacing" textLength="208.0244" x="487.99" y="470.641">LoggableInterface$Companion</text><line style="stroke:#181818;stroke-width:0.5;" x1="459.99" x2="698.0144" y1="481.35" y2="481.35"/><ellipse cx="469.99" cy="495.0941" fill="none" rx="3" ry="3" style="stroke:#038048;stroke-width:1.0;"/><text fill="#000000" font-family="sans-serif" font-size="14" lengthAdjust="spacing" textLength="110.7354" x="478.99" y="498.8852">String NEW_LINE</text><line style="stroke:#181818;stroke-width:0.5;" x1="459.99" x2="698.0144" y1="505.8383" y2="505.8383"/></g><!--class LoggableInterface--><g id="elem_LoggableInterface"><rect  fill="#F1F1F1" height="64.4883" id="LoggableInterface" rx="2.5" ry="2.5" style="stroke:#181818;stroke-width:0.5;" width="373.2656" x="281.37" y="192.95"/><ellipse cx="403.1283" cy="208.95" fill="#B4A7E5" rx="11" ry="11" style="stroke:#181818;stroke-width:1.0;"/><path d="M399.056,204.7151 L399.056,202.5569 L406.4354,202.5569 L406.4354,204.7151 L403.9701,204.7151 L403.9701,212.7918 L406.4354,212.7918 L406.4354,214.95 L399.056,214.95 L399.056,212.7918 L401.5214,212.7918 L401.5214,204.7151 Z " fill="#000000"/><text fill="#000000" font-family="sans-serif" font-size="14" font-style="italic" lengthAdjust="spacing" textLength="121.249" x="423.6283" y="214.241">LoggableInterface</text><line style="stroke:#181818;stroke-width:0.5;" x1="282.37" x2="653.6356" y1="224.95" y2="224.95"/><line style="stroke:#181818;stroke-width:0.5;" x1="282.37" x2="653.6356" y1="232.95" y2="232.95"/><ellipse cx="292.37" cy="246.6941" fill="#84BE84" rx="3" ry="3" style="stroke:#038048;stroke-width:1.0;"/><text fill="#000000" font-family="sans-serif" font-size="14" lengthAdjust="spacing" textLength="347.2656" x="301.37" y="250.4852">void loggerFactory(Class&lt;out LoggableInterface&gt;?)</text></g><!--class CentralizedLogger--><g id="elem_CentralizedLogger"><rect  fill="#F1F1F1" height="196.3945" id="CentralizedLogger" rx="2.5" ry="2.5" style="stroke:#181818;stroke-width:0.5;" width="480.5215" x="689.74" y="127"/><ellipse cx="863.4241" cy="143" fill="#ADD1B2" rx="11" ry="11" style="stroke:#181818;stroke-width:1.0;"/><path d="M866.3972,148.6431 Q865.8162,148.9419 865.177,149.0913 Q864.5379,149.2407 863.8323,149.2407 Q861.3254,149.2407 860.0056,147.5889 Q858.6858,145.937 858.6858,142.8159 Q858.6858,139.6865 860.0056,138.0347 Q861.3254,136.3828 863.8323,136.3828 Q864.5379,136.3828 865.1853,136.5322 Q865.8328,136.6816 866.3972,136.9805 L866.3972,139.7031 Q865.7664,139.1221 865.1729,138.8523 Q864.5794,138.5825 863.9485,138.5825 Q862.6038,138.5825 861.919,139.6492 Q861.2341,140.7158 861.2341,142.8159 Q861.2341,144.9077 861.919,145.9744 Q862.6038,147.041 863.9485,147.041 Q864.5794,147.041 865.1729,146.7712 Q865.7664,146.5015 866.3972,145.9204 Z " fill="#000000"/><text fill="#000000" font-family="sans-serif" font-size="14" lengthAdjust="spacing" textLength="124.6533" x="883.9241" y="148.291">CentralizedLogger</text><line style="stroke:#181818;stroke-width:0.5;" x1="690.74" x2="1169.2615" y1="159" y2="159"/><rect fill="none" height="6" style="stroke:#C82930;stroke-width:1.0;" width="6" x="697.74" y="169.7441"/><text fill="#000000" font-family="sans-serif" font-size="14" lengthAdjust="spacing" textLength="68.9473" x="709.74" y="176.5352">loggerTag</text><ellipse cx="700.74" cy="189.2324" fill="none" rx="3" ry="3" style="stroke:#038048;stroke-width:1.0;"/><text fill="#000000" font-family="sans-serif" font-size="14" lengthAdjust="spacing" textLength="50.3467" x="709.74" y="193.0234">logsFor</text><line style="stroke:#181818;stroke-width:0.5;" x1="690.74" x2="1169.2615" y1="199.9766" y2="199.9766"/><ellipse cx="700.74" cy="213.7207" fill="#84BE84" rx="3" ry="3" style="stroke:#038048;stroke-width:1.0;"/><text fill="#000000" font-family="sans-serif" font-size="14" lengthAdjust="spacing" textLength="454.5215" x="709.74" y="217.5117">&#171;Create&#187; CentralizedLogger(Class&lt;out LoggableInterface&gt;,Logger)</text><ellipse cx="700.74" cy="230.209" fill="#84BE84" rx="3" ry="3" style="stroke:#038048;stroke-width:1.0;"/><text fill="#000000" font-family="sans-serif" font-size="14" lengthAdjust="spacing" textLength="166.8447" x="709.74" y="234">void setLevel(SLF4JLevel)</text><ellipse cx="700.74" cy="246.6973" fill="#84BE84" rx="3" ry="3" style="stroke:#038048;stroke-width:1.0;"/><text fill="#000000" font-family="sans-serif" font-size="14" lengthAdjust="spacing" textLength="151.874" x="709.74" y="250.4883">void trace(String,Any?)</text><ellipse cx="700.74" cy="263.1855" fill="#84BE84" rx="3" ry="3" style="stroke:#038048;stroke-width:1.0;"/><text fill="#000000" font-family="sans-serif" font-size="14" lengthAdjust="spacing" textLength="161.0479" x="709.74" y="266.9766">void debug(String,Any?)</text><ellipse cx="700.74" cy="279.6738" fill="#84BE84" rx="3" ry="3" style="stroke:#038048;stroke-width:1.0;"/><text fill="#000000" font-family="sans-serif" font-size="14" lengthAdjust="spacing" textLength="144.6895" x="709.74" y="283.4648">void info(String,Any?)</text><ellipse cx="700.74" cy="296.1621" fill="#84BE84" rx="3" ry="3" style="stroke:#038048;stroke-width:1.0;"/><text fill="#000000" font-family="sans-serif" font-size="14" lengthAdjust="spacing" textLength="151.1426" x="709.74" y="299.9531">void warn(String,Any?)</text><ellipse cx="700.74" cy="312.6504" fill="#84BE84" rx="3" ry="3" style="stroke:#038048;stroke-width:1.0;"/><text fill="#000000" font-family="sans-serif" font-size="14" lengthAdjust="spacing" textLength="151.792" x="709.74" y="316.4414">void error(String,Any?)</text></g><!--class Loggable$Companion--><g id="elem_Loggable$Companion"><rect  fill="#F1F1F1" height="64.4883" id="Loggable$Companion" rx="2.5" ry="2.5" style="stroke:#181818;stroke-width:0.5;" width="180.6885" x="829.66" y="672.77"/><ellipse cx="844.66" cy="688.77" fill="#ADD1B2" rx="11" ry="11" style="stroke:#181818;stroke-width:1.0;"/><path d="M847.6331,694.4131 Q847.0521,694.7119 846.4129,694.8613 Q845.7738,695.0107 845.0682,695.0107 Q842.5614,695.0107 841.2415,693.3589 Q839.9217,691.707 839.9217,688.5859 Q839.9217,685.4565 841.2415,683.8047 Q842.5614,682.1528 845.0682,682.1528 Q845.7738,682.1528 846.4212,682.3022 Q847.0687,682.4516 847.6331,682.7505 L847.6331,685.4731 Q847.0023,684.8921 846.4088,684.6223 Q845.8153,684.3525 845.1844,684.3525 Q843.8397,684.3525 843.1549,685.4192 Q842.4701,686.4858 842.4701,688.5859 Q842.4701,690.6777 843.1549,691.7444 Q843.8397,692.811 845.1844,692.811 Q845.8153,692.811 846.4088,692.5412 Q847.0023,692.2715 847.6331,691.6904 Z " fill="#000000"/><text fill="#000000" font-family="sans-serif" font-size="14" lengthAdjust="spacing" textLength="148.6885" x="858.66" y="694.061">Loggable$Companion</text><line style="stroke:#181818;stroke-width:0.5;" x1="830.66" x2="1009.3485" y1="704.77" y2="704.77"/><ellipse cx="840.66" cy="718.5141" fill="none" rx="3" ry="3" style="stroke:#038048;stroke-width:1.0;"/><text fill="#000000" font-family="sans-serif" font-size="14" lengthAdjust="spacing" textLength="110.7354" x="849.66" y="722.3052">String NEW_LINE</text><line style="stroke:#181818;stroke-width:0.5;" x1="830.66" x2="1009.3485" y1="729.2583" y2="729.2583"/></g><!--class Loggable--><g id="elem_Loggable"><rect  fill="#F1F1F1" height="196.3945" id="Loggable" rx="2.5" ry="2.5" style="stroke:#181818;stroke-width:0.5;" width="372.2061" x="733.9" y="383.39"/><ellipse cx="884.7965" cy="399.39" fill="#ADD1B2" rx="11" ry="11" style="stroke:#181818;stroke-width:1.0;"/><path d="M887.7696,405.0331 Q887.1886,405.3319 886.5494,405.4813 Q885.9103,405.6307 885.2047,405.6307 Q882.6979,405.6307 881.378,403.9789 Q880.0582,402.327 880.0582,399.2059 Q880.0582,396.0765 881.378,394.4247 Q882.6979,392.7728 885.2047,392.7728 Q885.9103,392.7728 886.5577,392.9222 Q887.2052,393.0716 887.7696,393.3705 L887.7696,396.0931 Q887.1388,395.5121 886.5453,395.2423 Q885.9518,394.9725 885.3209,394.9725 Q883.9762,394.9725 883.2914,396.0392 Q882.6065,397.1058 882.6065,399.2059 Q882.6065,401.2977 883.2914,402.3644 Q883.9762,403.431 885.3209,403.431 Q885.9518,403.431 886.5453,403.1612 Q887.1388,402.8915 887.7696,402.3104 Z " fill="#000000"/><text fill="#000000" font-family="sans-serif" font-size="14" lengthAdjust="spacing" textLength="61.9131" x="905.2965" y="404.681">Loggable</text><line style="stroke:#181818;stroke-width:0.5;" x1="734.9" x2="1105.1061" y1="415.39" y2="415.39"/><polygon fill="none" points="744.9,424.1341,748.9,428.1341,744.9,432.1341,740.9,428.1341" style="stroke:#B38D22;stroke-width:1.0;"/><text fill="#000000" font-family="sans-serif" font-size="14" lengthAdjust="spacing" textLength="76.4941" x="753.9" y="432.9252">slf4jLogger</text><polygon fill="none" points="744.9,440.6224,748.9,444.6224,744.9,448.6224,740.9,444.6224" style="stroke:#B38D22;stroke-width:1.0;"/><text fill="#000000" font-family="sans-serif" font-size="14" lengthAdjust="spacing" textLength="172.7168" x="753.9" y="449.4134">CentralizedLogger logger</text><line style="stroke:#181818;stroke-width:0.5;" x1="734.9" x2="1105.1061" y1="456.3666" y2="456.3666"/><ellipse cx="744.9" cy="470.1107" fill="#84BE84" rx="3" ry="3" style="stroke:#038048;stroke-width:1.0;"/><text fill="#000000" font-family="sans-serif" font-size="14" lengthAdjust="spacing" textLength="346.2061" x="753.9" y="473.9017">&#171;Create&#187; Loggable(Class&lt;out LoggableInterface&gt;?)</text><polygon fill="#FFFF44" points="744.9,481.599,748.9,485.599,744.9,489.599,740.9,485.599" style="stroke:#B38D22;stroke-width:1.0;"/><text fill="#000000" font-family="sans-serif" font-size="14" lengthAdjust="spacing" textLength="176.8662" x="753.9" y="490.39">void logTrace(String,Any?)</text><polygon fill="#FFFF44" points="744.9,498.0873,748.9,502.0873,744.9,506.0873,740.9,502.0873" style="stroke:#B38D22;stroke-width:1.0;"/><text fill="#000000" font-family="sans-serif" font-size="14" lengthAdjust="spacing" textLength="184.0986" x="753.9" y="506.8783">void logDebug(String,Any?)</text><polygon fill="#FFFF44" points="744.9,514.5755,748.9,518.5755,744.9,522.5755,740.9,518.5755" style="stroke:#B38D22;stroke-width:1.0;"/><text fill="#000000" font-family="sans-serif" font-size="14" lengthAdjust="spacing" textLength="166.0518" x="753.9" y="523.3666">void logInfo(String,Any?)</text><polygon fill="#FFFF44" points="744.9,531.0638,748.9,535.0638,744.9,539.0638,740.9,535.0638" style="stroke:#B38D22;stroke-width:1.0;"/><text fill="#000000" font-family="sans-serif" font-size="14" lengthAdjust="spacing" textLength="173.708" x="753.9" y="539.8548">void logWarn(String,Any?)</text><polygon fill="#FFFF44" points="744.9,547.5521,748.9,551.5521,744.9,555.5521,740.9,551.5521" style="stroke:#B38D22;stroke-width:1.0;"/><text fill="#000000" font-family="sans-serif" font-size="14" lengthAdjust="spacing" textLength="172.9561" x="753.9" y="556.3431">void logError(String,Any?)</text><ellipse cx="744.9" cy="569.0404" fill="#84BE84" rx="3" ry="3" style="stroke:#038048;stroke-width:1.0;"/><text fill="#000000" font-family="sans-serif" font-size="14" lengthAdjust="spacing" textLength="221.833" x="753.9" y="572.8314">void setLoggingLevel(SLF4JLevel)</text></g><!--class Factory--><g id="elem_Factory"><rect fill="#F1F1F1" height="48" id="Factory" rx="2.5" ry="2.5" style="stroke:#181818;stroke-width:0.5;" width="81.2871" x="1205.36" y="201.2"/><ellipse cx="1220.36" cy="217.2" fill="#ADD1B2" rx="11" ry="11" style="stroke:#181818;stroke-width:1.0;"/><path d="M1223.3331,222.8431 Q1222.7521,223.1419 1222.1129,223.2913 Q1221.4738,223.4407 1220.7682,223.4407 Q1218.2614,223.4407 1216.9415,221.7889 Q1215.6217,220.137 1215.6217,217.0159 Q1215.6217,213.8865 1216.9415,212.2347 Q1218.2614,210.5828 1220.7682,210.5828 Q1221.4738,210.5828 1222.1212,210.7322 Q1222.7687,210.8816 1223.3331,211.1805 L1223.3331,213.9031 Q1222.7023,213.3221 1222.1088,213.0523 Q1221.5153,212.7825 1220.8844,212.7825 Q1219.5397,212.7825 1218.8549,213.8492 Q1218.1701,214.9158 1218.1701,217.0159 Q1218.1701,219.1077 1218.8549,220.1744 Q1219.5397,221.241 1220.8844,221.241 Q1221.5153,221.241 1222.1088,220.9712 Q1222.7023,220.7015 1223.3331,220.1204 Z " fill="#000000"/><text fill="#000000" font-family="sans-serif" font-size="14" lengthAdjust="spacing" textLength="49.2871" x="1234.36" y="222.491">Factory</text><line style="stroke:#181818;stroke-width:0.5;" x1="1206.36" x2="1285.6471" y1="233.2" y2="233.2"/><line style="stroke:#181818;stroke-width:0.5;" x1="1206.36" x2="1285.6471" y1="241.2" y2="241.2"/></g><!--class Factory$Companion--><g id="elem_Factory$Companion"><rect fill="#F1F1F1" height="48" id="Factory$Companion" rx="2.5" ry="2.5" style="stroke:#181818;stroke-width:0.5;" width="168.0625" x="1140.97" y="457.59"/><ellipse cx="1155.97" cy="473.59" fill="#ADD1B2" rx="11" ry="11" style="stroke:#181818;stroke-width:1.0;"/><path d="M1158.9431,479.2331 Q1158.3621,479.5319 1157.7229,479.6813 Q1157.0838,479.8307 1156.3782,479.8307 Q1153.8714,479.8307 1152.5515,478.1789 Q1151.2317,476.527 1151.2317,473.4059 Q1151.2317,470.2765 1152.5515,468.6247 Q1153.8714,466.9728 1156.3782,466.9728 Q1157.0838,466.9728 1157.7312,467.1222 Q1158.3787,467.2716 1158.9431,467.5705 L1158.9431,470.2931 Q1158.3123,469.7121 1157.7188,469.4423 Q1157.1253,469.1725 1156.4944,469.1725 Q1155.1497,469.1725 1154.4649,470.2392 Q1153.7801,471.3058 1153.7801,473.4059 Q1153.7801,475.4977 1154.4649,476.5644 Q1155.1497,477.631 1156.4944,477.631 Q1157.1253,477.631 1157.7188,477.3612 Q1158.3123,477.0915 1158.9431,476.5104 Z " fill="#000000"/><text fill="#000000" font-family="sans-serif" font-size="14" lengthAdjust="spacing" textLength="136.0625" x="1169.97" y="478.881">Factory$Companion</text><line style="stroke:#181818;stroke-width:0.5;" x1="1141.97" x2="1308.0325" y1="489.59" y2="489.59"/><line style="stroke:#181818;stroke-width:0.5;" x1="1141.97" x2="1308.0325" y1="497.59" y2="497.59"/></g><!--reverse link Factory to Factory$Companion--><g id="link_Factory_Factory$Companion"><path  d="M1242.7441,265.6158 C1238.7441,314.0858 1230.93,408.76 1226.93,457.17 " fill="none" id="Factory-backto-Factory$Companion" style="stroke:#181818;stroke-width:1.0;stroke-dasharray:7.0,7.0;"/><ellipse cx="1243.402" cy="257.6429" fill="#FFFFFF" rx="8" ry="8" style="stroke:#181818;stroke-width:1.0;"/><line style="stroke:#181818;stroke-width:1.0;" x1="1242.7441" x2="1244.06" y1="265.6158" y2="249.67"/><line style="stroke:#181818;stroke-width:1.0;" x1="1235.4291" x2="1251.3749" y1="256.9849" y2="258.3009"/></g><!--reverse link LoggableInterface$Factory to LoggableInterface$Factory$Companion--><g id="link_LoggableInterface$Factory_LoggableInterface$Factory$Companion"><path  d="M247,538.43 C247,570.93 247,601.48 247,639.31 " fill="none" id="LoggableInterface$Factory-backto-LoggableInterface$Factory$Companion" style="stroke:#181818;stroke-width:1.0;stroke-dasharray:7.0,7.0;"/><ellipse cx="247" cy="530.43" fill="#FFFFFF" rx="8" ry="8" style="stroke:#181818;stroke-width:1.0;"/><line style="stroke:#181818;stroke-width:1.0;" x1="247" x2="247" y1="538.43" y2="522.43"/><line style="stroke:#181818;stroke-width:1.0;" x1="239" x2="255" y1="530.43" y2="530.43"/></g><!--reverse link LoggableInterface to LoggableInterface$Factory--><g id="link_LoggableInterface_LoggableInterface$Factory"><path  d="M429.9662,269.9781 C389.6962,316.3281 325.29,390.47 281.44,440.95 " fill="none" id="LoggableInterface-backto-LoggableInterface$Factory" style="stroke:#181818;stroke-width:1.0;stroke-dasharray:7.0,7.0;"/><ellipse cx="435.2131" cy="263.9391" fill="#FFFFFF" rx="8" ry="8" style="stroke:#181818;stroke-width:1.0;"/><line style="stroke:#181818;stroke-width:1.0;" x1="429.9662" x2="440.46" y1="269.9781" y2="257.9"/><line style="stroke:#181818;stroke-width:1.0;" x1="429.1741" x2="441.2522" y1="258.6922" y2="269.1859"/></g><!--reverse link LoggableInterface to LoggableInterface$Companion--><g id="link_LoggableInterface_LoggableInterface$Companion"><path  d="M488.2292,272.5646 C509.5592,321.4446 543.84,400.01 565.17,448.89 " fill="none" id="LoggableInterface-backto-LoggableInterface$Companion" style="stroke:#181818;stroke-width:1.0;stroke-dasharray:7.0,7.0;"/><ellipse cx="485.0296" cy="265.2323" fill="#FFFFFF" rx="8" ry="8" style="stroke:#181818;stroke-width:1.0;"/><line style="stroke:#181818;stroke-width:1.0;" x1="488.2292" x2="481.83" y1="272.5646" y2="257.9"/><line style="stroke:#181818;stroke-width:1.0;" x1="477.6973" x2="492.3619" y1="268.4319" y2="262.0327"/></g><!--reverse link Loggable to Loggable$Companion--><g id="link_Loggable_Loggable$Companion"><path  d="M920,596.03 C920,629.33 920,648.25 920,672.52 " fill="none" id="Loggable-backto-Loggable$Companion" style="stroke:#181818;stroke-width:1.0;stroke-dasharray:7.0,7.0;"/><ellipse cx="920" cy="588.03" fill="#FFFFFF" rx="8" ry="8" style="stroke:#181818;stroke-width:1.0;"/><line style="stroke:#181818;stroke-width:1.0;" x1="920" x2="920" y1="596.03" y2="580.03"/><line style="stroke:#181818;stroke-width:1.0;" x1="912" x2="928" y1="588.03" y2="588.03"/></g><!--reverse link LoggableInterface to Loggable--><g id="link_LoggableInterface_Loggable"><path  d="M540.0162,266.7285 C595.5762,297.9985 667.67,338.58 746.46,382.92 " fill="none" id="LoggableInterface-backto-Loggable" style="stroke:#181818;stroke-width:1.0;stroke-dasharray:7.0,7.0;"/><polygon fill="none" points="524.33,257.9,537.0734,271.9572,542.9591,261.4997,524.33,257.9" style="stroke:#181818;stroke-width:1.0;"/></g><!--SRC=[lLJFRy8W6BtpLv3eGLVNayT6upfDN9fUDF6uO8iD2y82g74__lS1RQqEfwqcknNUntkyztqbeKXAc9ACA4Jz9QU4OJz1b8wa958Xflo8PnbQKZnb2eiLId1xWXB5nRuTylKxOeGp-0aU8IIcW25g3c2XTxQSf333Aj-8qHftGgCNF0ow6iwtJK6CT_dY2FTWXBUO3Ys1-Uha9N-SVDfR_faIX6LTy0q0IExmfXrvfOoag_vROSg3GH0AZ1GU361HMroQRnHq-0PtNEKuNW_cpc0yNhn6qtXiQ4bPsf3PyjdcKEkgZe-XDLB3HuYP4eYI3vmM-TdXo9NcADFIPY4d_5UQpi6Bz-cLqr0uaUMKpA99_yL-7Z1DcvIZqHkn_V20f7YvoSuYXAtuMM2713iBO26uE4KQjlvwnnkGQOeMF9dTbXjnqPRJHfGCr-QXTPYXkHjm1Jwx6LVWr8cvmXPEqXKsTiC-6WHzMxtlpeFf1m0Nuol_Vy_tOPt2gcVWnfVcgbAD1xYXzXsQ_w3Kq5LzYTlp2hxgQlm0]--></g></svg>