<svg xmlns="http://www.w3.org/2000/svg" xmlns:xlink="http://www.w3.org/1999/xlink" contentStyleType="text/css" height="1262px" preserveAspectRatio="none" style="width:2047px;height:1262px;background:#FFFFFF;" version="1.1" viewBox="0 0 2047 1262" width="2047px" zoomAndPan="magnify"><defs/><g><!--cluster digital--><g id="cluster_digital"><path d="M8.5,6 L55.5742,6 A3.75,3.75 0 0 1 58.0742,8.5 L65.0742,28.4883 L2037.5,28.4883 A2.5,2.5 0 0 1 2040,30.9883 L2040,1253.01 A2.5,2.5 0 0 1 2037.5,1255.51 L8.5,1255.51 A2.5,2.5 0 0 1 6,1253.01 L6,8.5 A2.5,2.5 0 0 1 8.5,6 " fill="none" style="stroke:#000000;stroke-width:1.5;"/><line style="stroke:#000000;stroke-width:1.5;" x1="6" x2="65.0742" y1="28.4883" y2="28.4883"/><text fill="#000000" font-family="sans-serif" font-size="14" font-weight="bold" lengthAdjust="spacing" textLength="46.0742" x="10" y="21.5352">digital</text></g><!--cluster boline--><g id="cluster_boline"><path d="M32.5,49 L78.2207,49 A3.75,3.75 0 0 1 80.7207,51.5 L87.7207,71.4883 L2013.5,71.4883 A2.5,2.5 0 0 1 2016,73.9883 L2016,1229.01 A2.5,2.5 0 0 1 2013.5,1231.51 L32.5,1231.51 A2.5,2.5 0 0 1 30,1229.01 L30,51.5 A2.5,2.5 0 0 1 32.5,49 " fill="none" style="stroke:#000000;stroke-width:1.5;"/><line style="stroke:#000000;stroke-width:1.5;" x1="30" x2="87.7207" y1="71.4883" y2="71.4883"/><text fill="#000000" font-family="sans-serif" font-size="14" font-weight="bold" lengthAdjust="spacing" textLength="44.7207" x="34" y="64.5352">boline</text></g><!--cluster callAssistant--><g id="cluster_callAssistant"><path d="M56.5,92 L149.6689,92 A3.75,3.75 0 0 1 152.1689,94.5 L159.1689,114.4883 L1989.5,114.4883 A2.5,2.5 0 0 1 1992,116.9883 L1992,1205.01 A2.5,2.5 0 0 1 1989.5,1207.51 L56.5,1207.51 A2.5,2.5 0 0 1 54,1205.01 L54,94.5 A2.5,2.5 0 0 1 56.5,92 " fill="none" style="stroke:#000000;stroke-width:1.5;"/><line style="stroke:#000000;stroke-width:1.5;" x1="54" x2="159.1689" y1="114.4883" y2="114.4883"/><text fill="#000000" font-family="sans-serif" font-size="14" font-weight="bold" lengthAdjust="spacing" textLength="92.1689" x="58" y="107.5352">callAssistant</text></g><!--class ServiceInterface--><g id="elem_ServiceInterface"><rect  fill="#F1F1F1" height="113.9531" id="ServiceInterface" rx="2.5" ry="2.5" style="stroke:#181818;stroke-width:0.5;" width="323.3223" x="1523.34" y="391.64"/><ellipse cx="1627.4171" cy="407.64" fill="#B4A7E5" rx="11" ry="11" style="stroke:#181818;stroke-width:1.0;"/><path d="M1623.3449,403.4051 L1623.3449,401.2469 L1630.7243,401.2469 L1630.7243,403.4051 L1628.2589,403.4051 L1628.2589,411.4818 L1630.7243,411.4818 L1630.7243,413.64 L1623.3449,413.64 L1623.3449,411.4818 L1625.8102,411.4818 L1625.8102,403.4051 Z " fill="#000000"/><text fill="#000000" font-family="sans-serif" font-size="14" font-style="italic" lengthAdjust="spacing" textLength="106.668" x="1647.9171" y="412.931">ServiceInterface</text><line style="stroke:#181818;stroke-width:0.5;" x1="1524.34" x2="1845.6623" y1="423.64" y2="423.64"/><ellipse cx="1534.34" cy="437.3841" fill="none" rx="3" ry="3" style="stroke:#038048;stroke-width:1.0;"/><text fill="#000000" font-family="sans-serif" font-size="14" lengthAdjust="spacing" textLength="192.4727" x="1543.34" y="441.1752">AtomicBoolean isComputing</text><line style="stroke:#181818;stroke-width:0.5;" x1="1524.34" x2="1845.6623" y1="448.1283" y2="448.1283"/><ellipse cx="1534.34" cy="461.8724" fill="#84BE84" rx="3" ry="3" style="stroke:#038048;stroke-width:1.0;"/><text fill="#000000" font-family="sans-serif" font-size="14" lengthAdjust="spacing" textLength="297.3223" x="1543.34" y="465.6634">Boolean computeAsync(I,FrequentTimeout?)</text><ellipse cx="1534.34" cy="478.3607" fill="#84BE84" rx="3" ry="3" style="stroke:#038048;stroke-width:1.0;"/><text fill="#000000" font-family="sans-serif" font-size="14" lengthAdjust="spacing" textLength="157.0557" x="1543.34" y="482.1517">Boolean wait(Timeout?)</text><ellipse cx="1534.34" cy="494.849" fill="#84BE84" rx="3" ry="3" style="stroke:#038048;stroke-width:1.0;"/><text fill="#000000" font-family="sans-serif" font-size="14" lengthAdjust="spacing" textLength="96.8379" x="1543.34" y="498.64">Boolean stop()</text></g><!--class Timeout$Companion--><g id="elem_Timeout$Companion"><rect  fill="#F1F1F1" height="113.9531" id="Timeout$Companion" rx="2.5" ry="2.5" style="stroke:#181818;stroke-width:0.5;" width="260.4316" x="69.78" y="391.64"/><ellipse cx="124.2112" cy="407.64" fill="#ADD1B2" rx="11" ry="11" style="stroke:#181818;stroke-width:1.0;"/><path d="M127.1843,413.2831 Q126.6032,413.5819 125.9641,413.7313 Q125.3249,413.8807 124.6194,413.8807 Q122.1125,413.8807 120.7927,412.2289 Q119.4729,410.577 119.4729,407.4559 Q119.4729,404.3265 120.7927,402.6747 Q122.1125,401.0228 124.6194,401.0228 Q125.3249,401.0228 125.9724,401.1722 Q126.6198,401.3216 127.1843,401.6205 L127.1843,404.3431 Q126.5534,403.7621 125.9599,403.4923 Q125.3664,403.2225 124.7356,403.2225 Q123.3908,403.2225 122.706,404.2892 Q122.0212,405.3558 122.0212,407.4559 Q122.0212,409.5477 122.706,410.6144 Q123.3908,411.681 124.7356,411.681 Q125.3664,411.681 125.9599,411.4112 Q126.5534,411.1415 127.1843,410.5604 Z " fill="#000000"/><text fill="#000000" font-family="sans-serif" font-size="14" lengthAdjust="spacing" textLength="143.0693" x="144.7112" y="412.931">Timeout$Companion</text><line style="stroke:#181818;stroke-width:0.5;" x1="70.78" x2="329.2116" y1="423.64" y2="423.64"/><polygon fill="none" points="80.78,432.3841,84.78,436.3841,80.78,440.3841,76.78,436.3841" style="stroke:#B38D22;stroke-width:1.0;"/><text fill="#000000" font-family="sans-serif" font-size="14" lengthAdjust="spacing" textLength="168.1299" x="89.78" y="441.1752">Long DEFAULT_TIMEOUT</text><polygon fill="none" points="80.78,448.8724,84.78,452.8724,80.78,456.8724,76.78,452.8724" style="stroke:#B38D22;stroke-width:1.0;"/><text fill="#000000" font-family="sans-serif" font-size="14" lengthAdjust="spacing" textLength="139.0703" x="89.78" y="457.6634">DEFAULT_CALLBACK</text><line style="stroke:#181818;stroke-width:0.5;" x1="70.78" x2="329.2116" y1="464.6166" y2="464.6166"/><polygon fill="#FFFF44" points="80.78,473.3607,84.78,477.3607,80.78,481.3607,76.78,477.3607" style="stroke:#B38D22;stroke-width:1.0;"/><text fill="#000000" font-family="sans-serif" font-size="14" lengthAdjust="spacing" textLength="185.8213" x="89.78" y="482.1517">void timeoutToString(Long)</text><polygon fill="#FFFF44" points="80.78,489.849,84.78,493.849,80.78,497.849,76.78,493.849" style="stroke:#B38D22;stroke-width:1.0;"/><text fill="#000000" font-family="sans-serif" font-size="14" lengthAdjust="spacing" textLength="234.4316" x="89.78" y="498.64">void callbackToString((() -&gt; Unit)?)</text></g><!--class Timeout--><g id="elem_Timeout"><rect  fill="#F1F1F1" height="97.4648" id="Timeout" rx="2.5" ry="2.5" style="stroke:#181818;stroke-width:0.5;" width="272.2715" x="81.86" y="159.98"/><ellipse cx="185.5988" cy="175.98" fill="#ADD1B2" rx="11" ry="11" style="stroke:#181818;stroke-width:1.0;"/><path d="M188.5719,181.6231 Q187.9909,181.9219 187.3517,182.0713 Q186.7125,182.2207 186.007,182.2207 Q183.5001,182.2207 182.1803,180.5689 Q180.8605,178.917 180.8605,175.7959 Q180.8605,172.6665 182.1803,171.0147 Q183.5001,169.3628 186.007,169.3628 Q186.7125,169.3628 187.36,169.5122 Q188.0075,169.6616 188.5719,169.9605 L188.5719,172.6831 Q187.9411,172.1021 187.3475,171.8323 Q186.754,171.5625 186.1232,171.5625 Q184.7785,171.5625 184.0936,172.6292 Q183.4088,173.6958 183.4088,175.7959 Q183.4088,177.8877 184.0936,178.9544 Q184.7785,180.021 186.1232,180.021 Q186.754,180.021 187.3475,179.7512 Q187.9411,179.4815 188.5719,178.9004 Z " fill="#000000"/><text fill="#000000" font-family="sans-serif" font-size="14" lengthAdjust="spacing" textLength="56.2939" x="206.0988" y="181.271">Timeout</text><line style="stroke:#181818;stroke-width:0.5;" x1="82.86" x2="353.1315" y1="191.98" y2="191.98"/><line style="stroke:#181818;stroke-width:0.5;" x1="82.86" x2="353.1315" y1="199.98" y2="199.98"/><ellipse cx="92.86" cy="213.7241" fill="#84BE84" rx="3" ry="3" style="stroke:#038048;stroke-width:1.0;"/><text fill="#000000" font-family="sans-serif" font-size="14" lengthAdjust="spacing" textLength="246.2715" x="101.86" y="217.5152">&#171;Create&#187; Timeout(Long,(() -&gt; Unit)?)</text><ellipse cx="92.86" cy="230.2124" fill="#84BE84" rx="3" ry="3" style="stroke:#038048;stroke-width:1.0;"/><text fill="#000000" font-family="sans-serif" font-size="14" lengthAdjust="spacing" textLength="144.2109" x="101.86" y="234.0034">void invokeCallback()</text><ellipse cx="92.86" cy="246.7007" fill="#84BE84" rx="3" ry="3" style="stroke:#038048;stroke-width:1.0;"/><text fill="#000000" font-family="sans-serif" font-size="14" lengthAdjust="spacing" textLength="96.0449" x="101.86" y="250.4917">void toString()</text></g><!--class FrequentTimeout$Companion--><g id="elem_FrequentTimeout$Companion"><rect  fill="#F1F1F1" height="64.4883" id="FrequentTimeout$Companion" rx="2.5" ry="2.5" style="stroke:#181818;stroke-width:0.5;" width="235.3281" x="432.34" y="746.97"/><ellipse cx="447.34" cy="762.97" fill="#ADD1B2" rx="11" ry="11" style="stroke:#181818;stroke-width:1.0;"/><path d="M450.3131,768.6131 Q449.7321,768.9119 449.0929,769.0613 Q448.4538,769.2107 447.7482,769.2107 Q445.2414,769.2107 443.9215,767.5589 Q442.6017,765.907 442.6017,762.7859 Q442.6017,759.6565 443.9215,758.0047 Q445.2414,756.3528 447.7482,756.3528 Q448.4538,756.3528 449.1012,756.5022 Q449.7487,756.6516 450.3131,756.9505 L450.3131,759.6731 Q449.6823,759.0921 449.0888,758.8223 Q448.4953,758.5525 447.8644,758.5525 Q446.5197,758.5525 445.8349,759.6192 Q445.1501,760.6858 445.1501,762.7859 Q445.1501,764.8777 445.8349,765.9444 Q446.5197,767.011 447.8644,767.011 Q448.4953,767.011 449.0888,766.7412 Q449.6823,766.4715 450.3131,765.8904 Z " fill="#000000"/><text fill="#000000" font-family="sans-serif" font-size="14" lengthAdjust="spacing" textLength="203.3281" x="461.34" y="768.261">FrequentTimeout$Companion</text><line style="stroke:#181818;stroke-width:0.5;" x1="433.34" x2="666.6681" y1="778.97" y2="778.97"/><rect fill="none" height="6" style="stroke:#C82930;stroke-width:1.0;" width="6" x="440.34" y="789.7141"/><text fill="#000000" font-family="sans-serif" font-size="14" lengthAdjust="spacing" textLength="209.1318" x="452.34" y="796.5052">Long DEFAULT_CHECK_PERIOD</text><line style="stroke:#181818;stroke-width:0.5;" x1="433.34" x2="666.6681" y1="803.4583" y2="803.4583"/></g><!--class FrequentTimeout--><g id="elem_FrequentTimeout"><rect  fill="#F1F1F1" height="80.9766" id="FrequentTimeout" rx="2.5" ry="2.5" style="stroke:#181818;stroke-width:0.5;" width="370.4424" x="364.78" y="408.13"/><ellipse cx="487.4748" cy="424.13" fill="#ADD1B2" rx="11" ry="11" style="stroke:#181818;stroke-width:1.0;"/><path d="M490.448,429.7731 Q489.8669,430.0719 489.2278,430.2213 Q488.5886,430.3707 487.883,430.3707 Q485.3762,430.3707 484.0564,428.7189 Q482.7365,427.067 482.7365,423.9459 Q482.7365,420.8165 484.0564,419.1647 Q485.3762,417.5128 487.883,417.5128 Q488.5886,417.5128 489.2361,417.6622 Q489.8835,417.8116 490.448,418.1105 L490.448,420.8331 Q489.8171,420.2521 489.2236,419.9823 Q488.6301,419.7125 487.9992,419.7125 Q486.6545,419.7125 485.9697,420.7792 Q485.2849,421.8458 485.2849,423.9459 Q485.2849,426.0377 485.9697,427.1044 Q486.6545,428.171 487.9992,428.171 Q488.6301,428.171 489.2236,427.9012 Q489.8171,427.6315 490.448,427.0504 Z " fill="#000000"/><text fill="#000000" font-family="sans-serif" font-size="14" lengthAdjust="spacing" textLength="116.5527" x="507.9748" y="429.421">FrequentTimeout</text><line style="stroke:#181818;stroke-width:0.5;" x1="365.78" x2="734.2224" y1="440.13" y2="440.13"/><line style="stroke:#181818;stroke-width:0.5;" x1="365.78" x2="734.2224" y1="448.13" y2="448.13"/><ellipse cx="375.78" cy="461.8741" fill="#84BE84" rx="3" ry="3" style="stroke:#038048;stroke-width:1.0;"/><text fill="#000000" font-family="sans-serif" font-size="14" lengthAdjust="spacing" textLength="344.4424" x="384.78" y="465.6652">&#171;Create&#187; FrequentTimeout(Long,Long,(() -&gt; Unit)?)</text><ellipse cx="375.78" cy="478.3624" fill="#84BE84" rx="3" ry="3" style="stroke:#038048;stroke-width:1.0;"/><text fill="#000000" font-family="sans-serif" font-size="14" lengthAdjust="spacing" textLength="96.0449" x="384.78" y="482.1534">void toString()</text></g><!--class ErrorSource--><g id="elem_ErrorSource"><rect  fill="#F1F1F1" height="163.418" id="ErrorSource" rx="2.5" ry="2.5" style="stroke:#181818;stroke-width:0.5;" width="217.0576" x="434.47" y="127"/><ellipse cx="499.2986" cy="143" fill="#EB937F" rx="11" ry="11" style="stroke:#181818;stroke-width:1.0;"/><path d="M503.4129,149 L495.6931,149 L495.6931,136.6069 L503.4129,136.6069 L503.4129,138.7651 L498.1419,138.7651 L498.1419,141.438 L502.9148,141.438 L502.9148,143.5962 L498.1419,143.5962 L498.1419,146.8418 L503.4129,146.8418 Z " fill="#000000"/><text fill="#000000" font-family="sans-serif" font-size="14" lengthAdjust="spacing" textLength="78.9004" x="519.7986" y="148.291">ErrorSource</text><line style="stroke:#181818;stroke-width:0.5;" x1="435.47" x2="650.5276" y1="159" y2="159"/><ellipse cx="445.47" cy="172.7441" fill="none" rx="3" ry="3" style="stroke:#038048;stroke-width:1.0;"/><text fill="#000000" font-family="sans-serif" font-size="14" lengthAdjust="spacing" textLength="84.3896" x="454.47" y="176.5352">ACTIVATING</text><ellipse cx="445.47" cy="189.2324" fill="none" rx="3" ry="3" style="stroke:#038048;stroke-width:1.0;"/><text fill="#000000" font-family="sans-serif" font-size="14" lengthAdjust="spacing" textLength="83.4053" x="454.47" y="193.0234">COMPUTING</text><ellipse cx="445.47" cy="205.7207" fill="none" rx="3" ry="3" style="stroke:#038048;stroke-width:1.0;"/><text fill="#000000" font-family="sans-serif" font-size="14" lengthAdjust="spacing" textLength="61.9609" x="454.47" y="209.5117">TIMEOUT</text><ellipse cx="445.47" cy="222.209" fill="none" rx="3" ry="3" style="stroke:#038048;stroke-width:1.0;"/><text fill="#000000" font-family="sans-serif" font-size="14" lengthAdjust="spacing" textLength="59.0146" x="454.47" y="226">WAITING</text><ellipse cx="445.47" cy="238.6973" fill="none" rx="3" ry="3" style="stroke:#038048;stroke-width:1.0;"/><text fill="#000000" font-family="sans-serif" font-size="14" lengthAdjust="spacing" textLength="67.2383" x="454.47" y="242.4883">STOPPING</text><ellipse cx="445.47" cy="255.1855" fill="none" rx="3" ry="3" style="stroke:#038048;stroke-width:1.0;"/><text fill="#000000" font-family="sans-serif" font-size="14" lengthAdjust="spacing" textLength="102.4639" x="454.47" y="258.9766">DEACTIVATING</text><line style="stroke:#181818;stroke-width:0.5;" x1="435.47" x2="650.5276" y1="265.9297" y2="265.9297"/><ellipse cx="445.47" cy="279.6738" fill="#84BE84" rx="3" ry="3" style="stroke:#038048;stroke-width:1.0;"/><text fill="#000000" font-family="sans-serif" font-size="14" lengthAdjust="spacing" textLength="191.0576" x="454.47" y="283.4648">&#171;Create&#187; ErrorSource(String)</text></g><!--class ServiceError--><g id="elem_ServiceError"><rect  fill="#F1F1F1" height="64.4883" id="ServiceError" rx="2.5" ry="2.5" style="stroke:#181818;stroke-width:0.5;" width="333.2686" x="708.37" y="176.47"/><ellipse cx="830.4017" cy="192.47" fill="#ADD1B2" rx="11" ry="11" style="stroke:#181818;stroke-width:1.0;"/><path d="M833.3749,198.1131 Q832.7938,198.4119 832.1547,198.5613 Q831.5155,198.7107 830.8099,198.7107 Q828.3031,198.7107 826.9833,197.0589 Q825.6635,195.407 825.6635,192.2859 Q825.6635,189.1565 826.9833,187.5047 Q828.3031,185.8528 830.8099,185.8528 Q831.5155,185.8528 832.163,186.0022 Q832.8104,186.1516 833.3749,186.4505 L833.3749,189.1731 Q832.744,188.5921 832.1505,188.3223 Q831.557,188.0525 830.9262,188.0525 Q829.5814,188.0525 828.8966,189.1192 Q828.2118,190.1858 828.2118,192.2859 Q828.2118,194.3777 828.8966,195.4444 Q829.5814,196.511 830.9262,196.511 Q831.557,196.511 832.1505,196.2412 Q832.744,195.9715 833.3749,195.3904 Z " fill="#000000"/><text fill="#000000" font-family="sans-serif" font-size="14" lengthAdjust="spacing" textLength="80.7051" x="850.9017" y="197.761">ServiceError</text><line style="stroke:#181818;stroke-width:0.5;" x1="709.37" x2="1040.6386" y1="208.47" y2="208.47"/><line style="stroke:#181818;stroke-width:0.5;" x1="709.37" x2="1040.6386" y1="216.47" y2="216.47"/><ellipse cx="719.37" cy="230.2141" fill="#84BE84" rx="3" ry="3" style="stroke:#038048;stroke-width:1.0;"/><text fill="#000000" font-family="sans-serif" font-size="14" lengthAdjust="spacing" textLength="307.2686" x="728.37" y="234.0052">&#171;Create&#187; ServiceError(Throwable,ErrorSource)</text></g><!--class Service--><g id="elem_Service"><rect  fill="#F1F1F1" height="344.7891" id="Service" rx="2.5" ry="2.5" style="stroke:#181818;stroke-width:0.5;" width="339.9951" x="1636" y="606.81"/><ellipse cx="1778.0815" cy="622.81" fill="#A9DCDF" rx="11" ry="11" style="stroke:#181818;stroke-width:1.0;"/><path d="M1778.1948,618.1581 L1777.041,623.2299 L1779.3569,623.2299 Z M1776.7007,615.9169 L1779.6973,615.9169 L1783.0425,628.31 L1780.5938,628.31 L1779.8301,625.247 L1776.5513,625.247 L1775.8042,628.31 L1773.3555,628.31 Z " fill="#000000"/><text fill="#000000" font-family="sans-serif" font-size="14" font-style="italic" lengthAdjust="spacing" textLength="47.332" x="1798.5815" y="628.101">Service</text><line style="stroke:#181818;stroke-width:0.5;" x1="1637" x2="1974.9951" y1="638.81" y2="638.81"/><polygon fill="none" points="1647,647.5541,1651,651.5541,1647,655.5541,1643,651.5541" style="stroke:#B38D22;stroke-width:1.0;"/><text fill="#000000" font-family="sans-serif" font-size="14" lengthAdjust="spacing" textLength="130.2725" x="1656" y="656.3452">String serviceName</text><rect fill="none" height="6" style="stroke:#C82930;stroke-width:1.0;" width="6" x="1644" y="666.0424"/><text fill="#000000" font-family="sans-serif" font-size="14" lengthAdjust="spacing" textLength="126.9092" x="1656" y="672.8334">Job? computingJob</text><rect fill="none" height="6" style="stroke:#C82930;stroke-width:1.0;" width="6" x="1644" y="682.5307"/><text fill="#000000" font-family="sans-serif" font-size="14" lengthAdjust="spacing" textLength="106.5449" x="1656" y="689.3217">Job? timeoutJob</text><rect fill="none" height="6" style="stroke:#C82930;stroke-width:1.0;" width="6" x="1644" y="699.019"/><text fill="#000000" font-family="sans-serif" font-size="14" lengthAdjust="spacing" textLength="175.752" x="1656" y="705.81">AtomicLong? timeoutStart</text><ellipse cx="1647" cy="718.5073" fill="none" rx="3" ry="3" style="stroke:#038048;stroke-width:1.0;"/><text fill="#000000" font-family="sans-serif" font-size="14" lengthAdjust="spacing" textLength="115.2061" x="1656" y="722.2983">onErrorCallbacks</text><ellipse cx="1647" cy="734.9955" fill="none" rx="3" ry="3" style="stroke:#038048;stroke-width:1.0;"/><text fill="#000000" font-family="sans-serif" font-size="14" lengthAdjust="spacing" textLength="86.7412" x="1656" y="738.7866">isComputing</text><line style="stroke:#181818;stroke-width:0.5;" x1="1637" x2="1974.9951" y1="745.7397" y2="745.7397"/><ellipse cx="1647" cy="759.4838" fill="#84BE84" rx="3" ry="3" style="stroke:#038048;stroke-width:1.0;"/><text fill="#000000" font-family="sans-serif" font-size="14" lengthAdjust="spacing" textLength="226.5156" x="1656" y="763.2748">&#171;Create&#187; Service(CoroutineScope)</text><polygon fill="#FFFF44" points="1647,770.9721,1651,774.9721,1647,778.9721,1643,774.9721" style="stroke:#B38D22;stroke-width:1.0;"/><text fill="#000000" font-family="sans-serif" font-size="14" lengthAdjust="spacing" textLength="313.0859" x="1656" y="779.7631">Boolean checkComputingState(Boolean,String)</text><ellipse cx="1647" cy="792.4604" fill="#84BE84" rx="3" ry="3" style="stroke:#038048;stroke-width:1.0;"/><text fill="#000000" font-family="sans-serif" font-size="14" lengthAdjust="spacing" textLength="297.3223" x="1656" y="796.2514">Boolean computeAsync(I,FrequentTimeout?)</text><polygon fill="#FFFF44" points="1647,803.9487,1651,807.9487,1647,811.9487,1643,807.9487" style="stroke:#B38D22;stroke-width:1.0;"/><text fill="#000000" font-family="sans-serif" font-size="14" lengthAdjust="spacing" textLength="165.5459" x="1656" y="812.7397">void doComputeAsync(I)</text><rect fill="#F24D5C" height="6" style="stroke:#C82930;stroke-width:1.0;" width="6" x="1644" y="822.437"/><text fill="#000000" font-family="sans-serif" font-size="14" lengthAdjust="spacing" textLength="313.9951" x="1656" y="829.228">void doCheckTimeoutAsync(FrequentTimeout)</text><polygon fill="#FFFF44" points="1647,836.9252,1651,840.9252,1647,844.9252,1643,840.9252" style="stroke:#B38D22;stroke-width:1.0;"/><text fill="#000000" font-family="sans-serif" font-size="14" lengthAdjust="spacing" textLength="132.2344" x="1656" y="845.7163">void resetTimeout()</text><ellipse cx="1647" cy="858.4135" fill="#84BE84" rx="3" ry="3" style="stroke:#038048;stroke-width:1.0;"/><text fill="#000000" font-family="sans-serif" font-size="14" lengthAdjust="spacing" textLength="157.0557" x="1656" y="862.2045">Boolean wait(Timeout?)</text><polygon fill="#FFFF44" points="1647,869.9018,1651,873.9018,1647,877.9018,1643,873.9018" style="stroke:#B38D22;stroke-width:1.0;"/><text fill="#000000" font-family="sans-serif" font-size="14" lengthAdjust="spacing" textLength="88.6416" x="1656" y="878.6928">void doWait()</text><ellipse cx="1647" cy="891.3901" fill="#84BE84" rx="3" ry="3" style="stroke:#038048;stroke-width:1.0;"/><text fill="#000000" font-family="sans-serif" font-size="14" lengthAdjust="spacing" textLength="96.8379" x="1656" y="895.1811">Boolean stop()</text><polygon fill="#FFFF44" points="1647,902.8784,1651,906.8784,1647,910.8784,1643,906.8784" style="stroke:#B38D22;stroke-width:1.0;"/><text fill="#000000" font-family="sans-serif" font-size="14" lengthAdjust="spacing" textLength="89.8379" x="1656" y="911.6694">void doStop()</text><polygon fill="#FFFF44" points="1647,919.3666,1651,923.3666,1647,927.3666,1643,923.3666" style="stroke:#B38D22;stroke-width:1.0;"/><text fill="#000000" font-family="sans-serif" font-size="14" lengthAdjust="spacing" textLength="256.6826" x="1656" y="928.1577">void doThrow(Throwable,ErrorSource)</text><polygon fill="#FFFF44" points="1647,935.8549,1651,939.8549,1647,943.8549,1643,939.8549" style="stroke:#B38D22;stroke-width:1.0;"/><text fill="#000000" font-family="sans-serif" font-size="14" lengthAdjust="spacing" textLength="213.7324" x="1656" y="944.6459">Boolean? doThrow(ServiceError)</text></g><!--class ReusableServiceInterface--><g id="elem_ReusableServiceInterface"><rect  fill="#F1F1F1" height="97.4648" id="ReusableServiceInterface" rx="2.5" ry="2.5" style="stroke:#181818;stroke-width:0.5;" width="199.5352" x="1401.23" y="730.48"/><ellipse cx="1416.23" cy="746.48" fill="#B4A7E5" rx="11" ry="11" style="stroke:#181818;stroke-width:1.0;"/><path d="M1412.1577,742.2451 L1412.1577,740.0869 L1419.5371,740.0869 L1419.5371,742.2451 L1417.0718,742.2451 L1417.0718,750.3218 L1419.5371,750.3218 L1419.5371,752.48 L1412.1577,752.48 L1412.1577,750.3218 L1414.6231,750.3218 L1414.6231,742.2451 Z " fill="#000000"/><text fill="#000000" font-family="sans-serif" font-size="14" font-style="italic" lengthAdjust="spacing" textLength="167.5352" x="1430.23" y="751.771">ReusableServiceInterface</text><line style="stroke:#181818;stroke-width:0.5;" x1="1402.23" x2="1599.7652" y1="762.48" y2="762.48"/><ellipse cx="1412.23" cy="776.2241" fill="none" rx="3" ry="3" style="stroke:#038048;stroke-width:1.0;"/><text fill="#000000" font-family="sans-serif" font-size="14" lengthAdjust="spacing" textLength="158.0742" x="1421.23" y="780.0152">AtomicBoolean isActive</text><line style="stroke:#181818;stroke-width:0.5;" x1="1402.23" x2="1599.7652" y1="786.9683" y2="786.9683"/><ellipse cx="1412.23" cy="800.7124" fill="#84BE84" rx="3" ry="3" style="stroke:#038048;stroke-width:1.0;"/><text fill="#000000" font-family="sans-serif" font-size="14" lengthAdjust="spacing" textLength="119.2529" x="1421.23" y="804.5034">Boolean activate()</text><ellipse cx="1412.23" cy="817.2007" fill="#84BE84" rx="3" ry="3" style="stroke:#038048;stroke-width:1.0;"/><text fill="#000000" font-family="sans-serif" font-size="14" lengthAdjust="spacing" textLength="135.8643" x="1421.23" y="820.9917">Boolean deactivate()</text></g><!--class ReusableService--><g id="elem_ReusableService"><rect  fill="#F1F1F1" height="179.9063" id="ReusableService" rx="2.5" ry="2.5" style="stroke:#181818;stroke-width:0.5;" width="339.0859" x="1483.46" y="1011.6"/><ellipse cx="1594.6534" cy="1027.6" fill="#A9DCDF" rx="11" ry="11" style="stroke:#181818;stroke-width:1.0;"/><path d="M1594.7666,1022.9481 L1593.6128,1028.0199 L1595.9288,1028.0199 Z M1593.2725,1020.7069 L1596.2691,1020.7069 L1599.6143,1033.1 L1597.1656,1033.1 L1596.4019,1030.037 L1593.1231,1030.037 L1592.376,1033.1 L1589.9273,1033.1 Z " fill="#000000"/><text fill="#000000" font-family="sans-serif" font-size="14" font-style="italic" lengthAdjust="spacing" textLength="108.1992" x="1615.1534" y="1032.891">ReusableService</text><line style="stroke:#181818;stroke-width:0.5;" x1="1484.46" x2="1821.5459" y1="1043.6" y2="1043.6"/><ellipse cx="1494.46" cy="1057.3441" fill="none" rx="3" ry="3" style="stroke:#038048;stroke-width:1.0;"/><text fill="#000000" font-family="sans-serif" font-size="14" lengthAdjust="spacing" textLength="52.3428" x="1503.46" y="1061.1352">isActive</text><line style="stroke:#181818;stroke-width:0.5;" x1="1484.46" x2="1821.5459" y1="1068.0883" y2="1068.0883"/><ellipse cx="1494.46" cy="1081.8324" fill="#84BE84" rx="3" ry="3" style="stroke:#038048;stroke-width:1.0;"/><text fill="#000000" font-family="sans-serif" font-size="14" lengthAdjust="spacing" textLength="287.3828" x="1503.46" y="1085.6234">&#171;Create&#187; ReusableService(CoroutineScope)</text><ellipse cx="1494.46" cy="1098.3207" fill="#84BE84" rx="3" ry="3" style="stroke:#038048;stroke-width:1.0;"/><text fill="#000000" font-family="sans-serif" font-size="14" lengthAdjust="spacing" textLength="313.0859" x="1503.46" y="1102.1117">Boolean checkComputingState(Boolean,String)</text><rect fill="#F24D5C" height="6" style="stroke:#C82930;stroke-width:1.0;" width="6" x="1491.46" y="1111.809"/><text fill="#000000" font-family="sans-serif" font-size="14" lengthAdjust="spacing" textLength="278.6875" x="1503.46" y="1118.6">Boolean checkActiveState(Boolean,String)</text><ellipse cx="1494.46" cy="1131.2973" fill="#84BE84" rx="3" ry="3" style="stroke:#038048;stroke-width:1.0;"/><text fill="#000000" font-family="sans-serif" font-size="14" lengthAdjust="spacing" textLength="119.2529" x="1503.46" y="1135.0883">Boolean activate()</text><polygon fill="#FFFF44" points="1494.46,1142.7855,1498.46,1146.7855,1494.46,1150.7855,1490.46,1146.7855" style="stroke:#B38D22;stroke-width:1.0;"/><text fill="#000000" font-family="sans-serif" font-size="14" lengthAdjust="spacing" textLength="113.7773" x="1503.46" y="1151.5766">void doActivate()</text><ellipse cx="1494.46" cy="1164.2738" fill="#84BE84" rx="3" ry="3" style="stroke:#038048;stroke-width:1.0;"/><text fill="#000000" font-family="sans-serif" font-size="14" lengthAdjust="spacing" textLength="135.8643" x="1503.46" y="1168.0648">Boolean deactivate()</text><polygon fill="#FFFF44" points="1494.46,1175.7621,1498.46,1179.7621,1494.46,1183.7621,1490.46,1179.7621" style="stroke:#B38D22;stroke-width:1.0;"/><text fill="#000000" font-family="sans-serif" font-size="14" lengthAdjust="spacing" textLength="130.1357" x="1503.46" y="1184.5531">void doDeactivate()</text></g><!--class CallbackManagerInterface$Companion--><g id="elem_CallbackManagerInterface$Companion"><rect  fill="#F1F1F1" height="64.4883" id="CallbackManagerInterface$Companion" rx="2.5" ry="2.5" style="stroke:#181818;stroke-width:0.5;" width="293.9873" x="770.01" y="416.37"/><ellipse cx="785.01" cy="432.37" fill="#ADD1B2" rx="11" ry="11" style="stroke:#181818;stroke-width:1.0;"/><path d="M787.9831,438.0131 Q787.4021,438.3119 786.7629,438.4613 Q786.1238,438.6107 785.4182,438.6107 Q782.9114,438.6107 781.5915,436.9589 Q780.2717,435.307 780.2717,432.1859 Q780.2717,429.0565 781.5915,427.4047 Q782.9114,425.7528 785.4182,425.7528 Q786.1238,425.7528 786.7712,425.9022 Q787.4187,426.0516 787.9831,426.3505 L787.9831,429.0731 Q787.3523,428.4921 786.7588,428.2223 Q786.1653,427.9525 785.5344,427.9525 Q784.1897,427.9525 783.5049,429.0192 Q782.8201,430.0858 782.8201,432.1859 Q782.8201,434.2777 783.5049,435.3444 Q784.1897,436.411 785.5344,436.411 Q786.1653,436.411 786.7588,436.1412 Q787.3523,435.8715 787.9831,435.2904 Z " fill="#000000"/><text fill="#000000" font-family="sans-serif" font-size="14" lengthAdjust="spacing" textLength="261.9873" x="799.01" y="437.661">CallbackManagerInterface$Companion</text><line style="stroke:#181818;stroke-width:0.5;" x1="771.01" x2="1062.9973" y1="448.37" y2="448.37"/><line style="stroke:#181818;stroke-width:0.5;" x1="771.01" x2="1062.9973" y1="456.37" y2="456.37"/><ellipse cx="781.01" cy="470.1141" fill="#84BE84" rx="3" ry="3" style="stroke:#038048;stroke-width:1.0;"/><text fill="#000000" font-family="sans-serif" font-size="14" lengthAdjust="spacing" textLength="255.2266" x="790.01" y="473.9052">String getCallbackIdentifier(((I) -&gt; O))</text></g><!--class CallbackManagerInterface--><g id="elem_CallbackManagerInterface"><rect  fill="#F1F1F1" height="146.9297" id="CallbackManagerInterface" rx="2.5" ry="2.5" style="stroke:#181818;stroke-width:0.5;" width="232.9307" x="1087.53" y="135.25"/><ellipse cx="1114.1034" cy="151.25" fill="#B4A7E5" rx="11" ry="11" style="stroke:#181818;stroke-width:1.0;"/><path d="M1110.0312,147.0151 L1110.0312,144.8569 L1117.4106,144.8569 L1117.4106,147.0151 L1114.9452,147.0151 L1114.9452,155.0918 L1117.4106,155.0918 L1117.4106,157.25 L1110.0312,157.25 L1110.0312,155.0918 L1112.4965,155.0918 L1112.4965,147.0151 Z " fill="#000000"/><text fill="#000000" font-family="sans-serif" font-size="14" font-style="italic" lengthAdjust="spacing" textLength="175.2119" x="1130.6753" y="156.541">CallbackManagerInterface</text><line style="stroke:#181818;stroke-width:0.5;" x1="1088.53" x2="1319.4607" y1="167.25" y2="167.25"/><line style="stroke:#181818;stroke-width:0.5;" x1="1088.53" x2="1319.4607" y1="175.25" y2="175.25"/><ellipse cx="1098.53" cy="188.9941" fill="#84BE84" rx="3" ry="3" style="stroke:#038048;stroke-width:1.0;"/><text fill="#000000" font-family="sans-serif" font-size="14" lengthAdjust="spacing" textLength="140.0684" x="1107.53" y="192.7852">String add(((I) -&gt; O))</text><ellipse cx="1098.53" cy="205.4824" fill="#84BE84" rx="3" ry="3" style="stroke:#038048;stroke-width:1.0;"/><text fill="#000000" font-family="sans-serif" font-size="14" lengthAdjust="spacing" textLength="153.6924" x="1107.53" y="209.2734">void remove(((I) -&gt; O))</text><ellipse cx="1098.53" cy="221.9707" fill="#84BE84" rx="3" ry="3" style="stroke:#038048;stroke-width:1.0;"/><text fill="#000000" font-family="sans-serif" font-size="14" lengthAdjust="spacing" textLength="132.4531" x="1107.53" y="225.7617">void remove(String)</text><ellipse cx="1098.53" cy="238.459" fill="#84BE84" rx="3" ry="3" style="stroke:#038048;stroke-width:1.0;"/><text fill="#000000" font-family="sans-serif" font-size="14" lengthAdjust="spacing" textLength="74.7168" x="1107.53" y="242.25">void clear()</text><ellipse cx="1098.53" cy="254.9473" fill="#84BE84" rx="3" ry="3" style="stroke:#038048;stroke-width:1.0;"/><text fill="#000000" font-family="sans-serif" font-size="14" lengthAdjust="spacing" textLength="172.6963" x="1107.53" y="258.7383">Map&lt;String, O&gt; invoke(I)</text><ellipse cx="1098.53" cy="271.4355" fill="#84BE84" rx="3" ry="3" style="stroke:#038048;stroke-width:1.0;"/><text fill="#000000" font-family="sans-serif" font-size="14" lengthAdjust="spacing" textLength="206.9307" x="1107.53" y="275.2266">((I) -&gt; O)? getCallbacks(String)</text></g><!--class CallbackManager--><g id="elem_CallbackManager"><rect  fill="#F1F1F1" height="196.3945" id="CallbackManager" rx="2.5" ry="2.5" style="stroke:#181818;stroke-width:0.5;" width="389.0225" x="1099.49" y="350.42"/><ellipse cx="1231.8132" cy="366.42" fill="#ADD1B2" rx="11" ry="11" style="stroke:#181818;stroke-width:1.0;"/><path d="M1234.7864,372.0631 Q1234.2053,372.3619 1233.5662,372.5113 Q1232.927,372.6607 1232.2214,372.6607 Q1229.7146,372.6607 1228.3948,371.0089 Q1227.075,369.357 1227.075,366.2359 Q1227.075,363.1065 1228.3948,361.4547 Q1229.7146,359.8028 1232.2214,359.8028 Q1232.927,359.8028 1233.5745,359.9522 Q1234.2219,360.1016 1234.7864,360.4005 L1234.7864,363.1231 Q1234.1555,362.5421 1233.562,362.2723 Q1232.9685,362.0025 1232.3377,362.0025 Q1230.9929,362.0025 1230.3081,363.0692 Q1229.6233,364.1358 1229.6233,366.2359 Q1229.6233,368.3277 1230.3081,369.3944 Q1230.9929,370.461 1232.3377,370.461 Q1232.9685,370.461 1233.562,370.1912 Q1234.1555,369.9215 1234.7864,369.3404 Z " fill="#000000"/><text fill="#000000" font-family="sans-serif" font-size="14" lengthAdjust="spacing" textLength="115.876" x="1252.3132" y="371.711">CallbackManager</text><line style="stroke:#181818;stroke-width:0.5;" x1="1100.49" x2="1487.5125" y1="382.42" y2="382.42"/><rect fill="none" height="6" style="stroke:#C82930;stroke-width:1.0;" width="6" x="1107.49" y="393.1641"/><text fill="#000000" font-family="sans-serif" font-size="14" lengthAdjust="spacing" textLength="85.873" x="1119.49" y="399.9552">serviceName</text><line style="stroke:#181818;stroke-width:0.5;" x1="1100.49" x2="1487.5125" y1="406.9083" y2="406.9083"/><rect fill="#F24D5C" height="6" style="stroke:#C82930;stroke-width:1.0;" width="6" x="1107.49" y="417.6524"/><text fill="#000000" font-family="sans-serif" font-size="14" lengthAdjust="spacing" textLength="281.7295" x="1119.49" y="424.4434">MutableMap&lt;String, ((I) -&gt; O)&gt; callbacks</text><ellipse cx="1110.49" cy="437.1407" fill="#84BE84" rx="3" ry="3" style="stroke:#038048;stroke-width:1.0;"/><text fill="#000000" font-family="sans-serif" font-size="14" lengthAdjust="spacing" textLength="363.0225" x="1119.49" y="440.9317">&#171;Create&#187; CallbackManager(CentralizedLogger,String?)</text><ellipse cx="1110.49" cy="453.629" fill="#84BE84" rx="3" ry="3" style="stroke:#038048;stroke-width:1.0;"/><text fill="#000000" font-family="sans-serif" font-size="14" lengthAdjust="spacing" textLength="206.9307" x="1119.49" y="457.42">((I) -&gt; O)? getCallbacks(String)</text><ellipse cx="1110.49" cy="470.1173" fill="#84BE84" rx="3" ry="3" style="stroke:#038048;stroke-width:1.0;"/><text fill="#000000" font-family="sans-serif" font-size="14" lengthAdjust="spacing" textLength="140.0684" x="1119.49" y="473.9083">String add(((I) -&gt; O))</text><ellipse cx="1110.49" cy="486.6055" fill="#84BE84" rx="3" ry="3" style="stroke:#038048;stroke-width:1.0;"/><text fill="#000000" font-family="sans-serif" font-size="14" lengthAdjust="spacing" textLength="153.6924" x="1119.49" y="490.3966">void remove(((I) -&gt; O))</text><ellipse cx="1110.49" cy="503.0938" fill="#84BE84" rx="3" ry="3" style="stroke:#038048;stroke-width:1.0;"/><text fill="#000000" font-family="sans-serif" font-size="14" lengthAdjust="spacing" textLength="132.4531" x="1119.49" y="506.8848">void remove(String)</text><ellipse cx="1110.49" cy="519.5821" fill="#84BE84" rx="3" ry="3" style="stroke:#038048;stroke-width:1.0;"/><text fill="#000000" font-family="sans-serif" font-size="14" lengthAdjust="spacing" textLength="74.7168" x="1119.49" y="523.3731">void clear()</text><ellipse cx="1110.49" cy="536.0704" fill="#84BE84" rx="3" ry="3" style="stroke:#038048;stroke-width:1.0;"/><text fill="#000000" font-family="sans-serif" font-size="14" lengthAdjust="spacing" textLength="172.6963" x="1119.49" y="539.8614">Map&lt;String, O&gt; invoke(I)</text></g><!--class LoggableInterface--><g id="elem_LoggableInterface"><rect fill="#F1F1F1" height="48" id="LoggableInterface" rx="2.5" ry="2.5" style="stroke:#181818;stroke-width:0.5;" width="153.249" x="1608.38" y="184.71"/><ellipse cx="1623.38" cy="200.71" fill="#ADD1B2" rx="11" ry="11" style="stroke:#181818;stroke-width:1.0;"/><path d="M1626.3531,206.3531 Q1625.7721,206.6519 1625.1329,206.8013 Q1624.4938,206.9507 1623.7882,206.9507 Q1621.2814,206.9507 1619.9615,205.2989 Q1618.6417,203.647 1618.6417,200.5259 Q1618.6417,197.3965 1619.9615,195.7447 Q1621.2814,194.0928 1623.7882,194.0928 Q1624.4938,194.0928 1625.1412,194.2422 Q1625.7887,194.3916 1626.3531,194.6905 L1626.3531,197.4131 Q1625.7223,196.8321 1625.1288,196.5623 Q1624.5353,196.2925 1623.9044,196.2925 Q1622.5597,196.2925 1621.8749,197.3592 Q1621.1901,198.4258 1621.1901,200.5259 Q1621.1901,202.6177 1621.8749,203.6844 Q1622.5597,204.751 1623.9044,204.751 Q1624.5353,204.751 1625.1288,204.4812 Q1625.7223,204.2115 1626.3531,203.6304 Z " fill="#000000"/><text fill="#000000" font-family="sans-serif" font-size="14" lengthAdjust="spacing" textLength="121.249" x="1637.38" y="206.001">LoggableInterface</text><line style="stroke:#181818;stroke-width:0.5;" x1="1609.38" x2="1760.629" y1="216.71" y2="216.71"/><line style="stroke:#181818;stroke-width:0.5;" x1="1609.38" x2="1760.629" y1="224.71" y2="224.71"/></g><!--class Loggable--><g id="elem_Loggable"><rect fill="#F1F1F1" height="48" id="Loggable" rx="2.5" ry="2.5" style="stroke:#181818;stroke-width:0.5;" width="93.9131" x="1882.04" y="424.62"/><ellipse cx="1897.04" cy="440.62" fill="#ADD1B2" rx="11" ry="11" style="stroke:#181818;stroke-width:1.0;"/><path d="M1900.0131,446.2631 Q1899.4321,446.5619 1898.7929,446.7113 Q1898.1538,446.8607 1897.4482,446.8607 Q1894.9414,446.8607 1893.6215,445.2089 Q1892.3017,443.557 1892.3017,440.4359 Q1892.3017,437.3065 1893.6215,435.6547 Q1894.9414,434.0028 1897.4482,434.0028 Q1898.1538,434.0028 1898.8012,434.1522 Q1899.4487,434.3016 1900.0131,434.6005 L1900.0131,437.3231 Q1899.3823,436.7421 1898.7888,436.4723 Q1898.1953,436.2025 1897.5644,436.2025 Q1896.2197,436.2025 1895.5349,437.2692 Q1894.8501,438.3358 1894.8501,440.4359 Q1894.8501,442.5277 1895.5349,443.5944 Q1896.2197,444.661 1897.5644,444.661 Q1898.1953,444.661 1898.7888,444.3912 Q1899.3823,444.1215 1900.0131,443.5404 Z " fill="#000000"/><text fill="#000000" font-family="sans-serif" font-size="14" lengthAdjust="spacing" textLength="61.9131" x="1911.04" y="445.911">Loggable</text><line style="stroke:#181818;stroke-width:0.5;" x1="1883.04" x2="1974.9531" y1="456.62" y2="456.62"/><line style="stroke:#181818;stroke-width:0.5;" x1="1883.04" x2="1974.9531" y1="464.62" y2="464.62"/></g><!--reverse link LoggableInterface to ServiceInterface--><g id="link_LoggableInterface_ServiceInterface"><path  d="M1685,250.96 C1685,287.32 1685,340.71 1685,391.16 " fill="none" id="LoggableInterface-backto-ServiceInterface" style="stroke:#181818;stroke-width:1.0;stroke-dasharray:7.0,7.0;"/><polygon fill="none" points="1685,232.96,1679,250.96,1691,250.96,1685,232.96" style="stroke:#181818;stroke-width:1.0;"/></g><!--reverse link Timeout to Timeout$Companion--><g id="link_Timeout_Timeout$Companion"><path  d="M213.1518,273.8143 C210.2318,312.3743 207.34,350.58 204.27,391.18 " fill="none" id="Timeout-backto-Timeout$Companion" style="stroke:#181818;stroke-width:1.0;stroke-dasharray:7.0,7.0;"/><ellipse cx="213.7559" cy="265.8372" fill="#FFFFFF" rx="8" ry="8" style="stroke:#181818;stroke-width:1.0;"/><line style="stroke:#181818;stroke-width:1.0;" x1="213.1518" x2="214.36" y1="273.8143" y2="257.86"/><line style="stroke:#181818;stroke-width:1.0;" x1="205.7788" x2="221.7331" y1="265.2331" y2="266.4412"/></g><!--reverse link FrequentTimeout to FrequentTimeout$Companion--><g id="link_FrequentTimeout_FrequentTimeout$Companion"><path  d="M550,505.58 C550,571.77 550,686.8 550,746.83 " fill="none" id="FrequentTimeout-backto-FrequentTimeout$Companion" style="stroke:#181818;stroke-width:1.0;stroke-dasharray:7.0,7.0;"/><ellipse cx="550" cy="497.58" fill="#FFFFFF" rx="8" ry="8" style="stroke:#181818;stroke-width:1.0;"/><line style="stroke:#181818;stroke-width:1.0;" x1="550" x2="550" y1="505.58" y2="489.58"/><line style="stroke:#181818;stroke-width:1.0;" x1="542" x2="558" y1="497.58" y2="497.58"/></g><!--reverse link Timeout to FrequentTimeout--><g id="link_Timeout_FrequentTimeout"><path  d="M299.8219,268.3437 C361.3019,312.3937 436.59,366.35 494.21,407.64 " fill="none" id="Timeout-backto-FrequentTimeout" style="stroke:#181818;stroke-width:1.0;"/><polygon fill="none" points="285.19,257.86,296.3274,273.221,303.3165,263.4664,285.19,257.86" style="stroke:#181818;stroke-width:1.0;"/></g><!--reverse link ServiceInterface to Service--><g id="link_ServiceInterface_Service"><path  d="M1711.8808,522.6209 C1722.3108,550.9409 1729.36,570.09 1742.81,606.61 " fill="none" id="ServiceInterface-backto-Service" style="stroke:#181818;stroke-width:1.0;stroke-dasharray:7.0,7.0;"/><polygon fill="none" points="1705.66,505.73,1706.2505,524.6945,1717.5111,520.5473,1705.66,505.73" style="stroke:#181818;stroke-width:1.0;"/></g><!--reverse link Loggable to Service--><g id="link_Loggable_Service"><path  d="M1913.94,489.8478 C1903.13,518.7278 1890.03,553.71 1870.25,606.57 " fill="none" id="Loggable-backto-Service" style="stroke:#181818;stroke-width:1.0;"/><polygon fill="none" points="1920.25,472.99,1908.3208,487.7444,1919.5593,491.9511,1920.25,472.99" style="stroke:#181818;stroke-width:1.0;"/></g><!--reverse link ServiceInterface to ReusableServiceInterface--><g id="link_ServiceInterface_ReusableServiceInterface"><path  d="M1644.7859,521.4355 C1609.4259,584.5855 1561.37,670.41 1527.95,730.08 " fill="none" id="ServiceInterface-backto-ReusableServiceInterface" style="stroke:#181818;stroke-width:1.0;stroke-dasharray:7.0,7.0;"/><polygon fill="none" points="1653.58,505.73,1639.5507,518.5042,1650.0211,524.3669,1653.58,505.73" style="stroke:#181818;stroke-width:1.0;"/></g><!--reverse link ReusableServiceInterface to ReusableService--><g id="link_ReusableServiceInterface_ReusableService"><path  d="M1531.4766,844.4321 C1554.3766,892.6921 1582.51,952.01 1610.66,1011.32 " fill="none" id="ReusableServiceInterface-backto-ReusableService" style="stroke:#181818;stroke-width:1.0;stroke-dasharray:7.0,7.0;"/><polygon fill="none" points="1523.76,828.17,1526.0559,847.0042,1536.8972,841.8599,1523.76,828.17" style="stroke:#181818;stroke-width:1.0;"/></g><!--reverse link Service to ReusableService--><g id="link_Service_ReusableService"><path  d="M1716.3694,967.8811 C1706.5594,988.4111 1704.63,992.45 1695.71,1011.12 " fill="none" id="Service-backto-ReusableService" style="stroke:#181818;stroke-width:1.0;"/><polygon fill="none" points="1724.13,951.64,1710.9557,965.2942,1721.7831,970.468,1724.13,951.64" style="stroke:#181818;stroke-width:1.0;"/></g><!--reverse link CallbackManagerInterface to CallbackManagerInterface$Companion--><g id="link_CallbackManagerInterface_CallbackManagerInterface$Companion"><path  d="M1104.013,292.5924 C1050.113,337.2824 996.07,382.07 955.15,415.99 " fill="none" id="CallbackManagerInterface-backto-CallbackManagerInterface$Companion" style="stroke:#181818;stroke-width:1.0;stroke-dasharray:7.0,7.0;"/><ellipse cx="1110.1715" cy="287.4862" fill="#FFFFFF" rx="8" ry="8" style="stroke:#181818;stroke-width:1.0;"/><line style="stroke:#181818;stroke-width:1.0;" x1="1104.013" x2="1116.33" y1="292.5924" y2="282.38"/><line style="stroke:#181818;stroke-width:1.0;" x1="1105.0653" x2="1115.2777" y1="281.3277" y2="293.6447"/></g><!--reverse link CallbackManagerInterface to CallbackManager--><g id="link_CallbackManagerInterface_CallbackManager"><path  d="M1237.8621,299.2144 C1245.9321,320.5344 1248.51,327.37 1257.06,349.97 " fill="none" id="CallbackManagerInterface-backto-CallbackManager" style="stroke:#181818;stroke-width:1.0;stroke-dasharray:7.0,7.0;"/><polygon fill="none" points="1231.49,282.38,1232.2507,301.3384,1243.4736,297.0903,1231.49,282.38" style="stroke:#181818;stroke-width:1.0;"/></g><!--SRC=[nLRRSjem47ttLtYcVJ33vGiO6DUGrWq49fZcCIFi3T74I5GIPDgc_rx95o4x0SkyzCtUbVRi7frT2HC1x0d5u2PuYmLA1nkQOWA36AMfppdc0X4nM04xuXX2lVgFqtLzGNSu_a9f2eYuc0Tqjpy8JBRILrhZp0O-_qLYB-pTCFXv028Yl0Dw4EEEiVGLOU5zvE22xhsEyzTnd3X5d5zEjOZmMMM32AP4vlh9dL6oTIVJ6tyzYnwZS3vTh2DfrgR0dys- -C6jj1qfJboHHudeIZ1PaQVsTqgd0joW-4LxFQ_ZzaVkcc3H6RVDDEDoE0mO806ZaLkOCyXUBN8tJm2J8ts1e4Z3qtPH9fJbO952xJmgfFMhf0NVfi7jut9w7oucrqMl5rfpvmLVgBfQ7P33xZByb37ALlJ02hswVX25F_melFkg_eB5VBakVqf9oCy7FoojgsYnN1RVasbbkr67WUFb6LfBeEYhB4AT7jFdHS-Clg9D2Zq3BOD16ouOYeLh3vTrH9wfotFJ7Tg1FF7lT3CkUbOwvLzfA_eXj-IDhqvAErO2CQ5eeYHBiDGcLxRgQ7XVeXTGHfKRLZ7TW-epFJ-U8NxHkoMA0A_mzKgkMqoRee4J6bHMTcHHfKC15XjoRosA3iA0WzRkXK6cCH-K_OF1fXUiQl_PePyxUitHMAyq5PDB4DkDztiuS8LWDURzME0Z66KWPL07OzQMW65MgRJHQIsVl7iDP4D2jQNlfDHj9QL-TNKEsAGwer1zT7uZ9thffCwK1K5bUyqHGLjW-i0g0xnRzlWMHBaXJAIIyHC69Y-jC9koYqu6QocLSyWc7agIIlHksJ0xUeGBdXEr-JKhIMCPWNEq7-REdhiO5TUVQjkkUuesDklavYHkJsXs_TLcu_mWbD3CN4xW8_qeu5LzrW9xWUIVeHJ_XcH6jz9I26fiLSn_e5Wfqd4kagSAKTISn31y6mpQlIWTgwTIjodikuUCq-g5qXZ_x8F9Bl_XMx_V2i1fzootvjtkG2tojOftHPxdhYJdkekiDQ1LGHRyj0fxThWswhBvGhWIkPcusjP_]--></g></svg>