<svg xmlns="http://www.w3.org/2000/svg" xmlns:xlink="http://www.w3.org/1999/xlink" contentStyleType="text/css" height="1012px" preserveAspectRatio="none" style="width:2421px;height:1012px;background:#FFFFFF;" version="1.1" viewBox="0 0 2421 1012" width="2421px" zoomAndPan="magnify"><defs/><g><!--cluster digital--><g id="cluster_digital"><path d="M8.5,6 L55.5742,6 A3.75,3.75 0 0 1 58.0742,8.5 L65.0742,28.4883 L2061.5,28.4883 A2.5,2.5 0 0 1 2064,30.9883 L2064,1002.73 A2.5,2.5 0 0 1 2061.5,1005.23 L8.5,1005.23 A2.5,2.5 0 0 1 6,1002.73 L6,8.5 A2.5,2.5 0 0 1 8.5,6 " fill="none" style="stroke:#000000;stroke-width:1.5;"/><line style="stroke:#000000;stroke-width:1.5;" x1="6" x2="65.0742" y1="28.4883" y2="28.4883"/><text fill="#000000" font-family="sans-serif" font-size="14" font-weight="bold" lengthAdjust="spacing" textLength="46.0742" x="10" y="21.5352">digital</text></g><!--cluster boline--><g id="cluster_boline"><path d="M32.5,49 L78.2207,49 A3.75,3.75 0 0 1 80.7207,51.5 L87.7207,71.4883 L2037.5,71.4883 A2.5,2.5 0 0 1 2040,73.9883 L2040,978.73 A2.5,2.5 0 0 1 2037.5,981.23 L32.5,981.23 A2.5,2.5 0 0 1 30,978.73 L30,51.5 A2.5,2.5 0 0 1 32.5,49 " fill="none" style="stroke:#000000;stroke-width:1.5;"/><line style="stroke:#000000;stroke-width:1.5;" x1="30" x2="87.7207" y1="71.4883" y2="71.4883"/><text fill="#000000" font-family="sans-serif" font-size="14" font-weight="bold" lengthAdjust="spacing" textLength="44.7207" x="34" y="64.5352">boline</text></g><!--cluster callAssistant--><g id="cluster_callAssistant"><path d="M56.5,92 L149.6689,92 A3.75,3.75 0 0 1 152.1689,94.5 L159.1689,114.4883 L2013.5,114.4883 A2.5,2.5 0 0 1 2016,116.9883 L2016,954.73 A2.5,2.5 0 0 1 2013.5,957.23 L56.5,957.23 A2.5,2.5 0 0 1 54,954.73 L54,94.5 A2.5,2.5 0 0 1 56.5,92 " fill="none" style="stroke:#000000;stroke-width:1.5;"/><line style="stroke:#000000;stroke-width:1.5;" x1="54" x2="159.1689" y1="114.4883" y2="114.4883"/><text fill="#000000" font-family="sans-serif" font-size="14" font-weight="bold" lengthAdjust="spacing" textLength="92.1689" x="58" y="107.5352">callAssistant</text></g><!--cluster speech2text--><g id="cluster_speech2text"><path d="M185.5,239 L273.8018,239 A3.75,3.75 0 0 1 276.3018,241.5 L283.3018,261.4883 L1989.5,261.4883 A2.5,2.5 0 0 1 1992,263.9883 L1992,930.73 A2.5,2.5 0 0 1 1989.5,933.23 L185.5,933.23 A2.5,2.5 0 0 1 183,930.73 L183,241.5 A2.5,2.5 0 0 1 185.5,239 " fill="none" style="stroke:#000000;stroke-width:1.5;"/><line style="stroke:#000000;stroke-width:1.5;" x1="183" x2="283.3018" y1="261.4883" y2="261.4883"/><text fill="#000000" font-family="sans-serif" font-size="14" font-weight="bold" lengthAdjust="spacing" textLength="87.3018" x="187" y="254.5352">speech2text</text></g><!--cluster org--><g id="cluster_org"><path d="M2090.5,49 L2116.041,49 A3.75,3.75 0 0 1 2118.541,51.5 L2125.541,71.4883 L2411.5,71.4883 A2.5,2.5 0 0 1 2414,73.9883 L2414,212.5 A2.5,2.5 0 0 1 2411.5,215 L2090.5,215 A2.5,2.5 0 0 1 2088,212.5 L2088,51.5 A2.5,2.5 0 0 1 2090.5,49 " fill="none" style="stroke:#000000;stroke-width:1.5;"/><line style="stroke:#000000;stroke-width:1.5;" x1="2088" x2="2125.541" y1="71.4883" y2="71.4883"/><text fill="#000000" font-family="sans-serif" font-size="14" font-weight="bold" lengthAdjust="spacing" textLength="24.541" x="2092" y="64.5352">org</text></g><!--cluster reactivestreams--><g id="cluster_reactivestreams"><path d="M2114.5,92 L2230.3643,92 A3.75,3.75 0 0 1 2232.8643,94.5 L2239.8643,114.4883 L2387.5,114.4883 A2.5,2.5 0 0 1 2390,116.9883 L2390,188.5 A2.5,2.5 0 0 1 2387.5,191 L2114.5,191 A2.5,2.5 0 0 1 2112,188.5 L2112,94.5 A2.5,2.5 0 0 1 2114.5,92 " fill="none" style="stroke:#000000;stroke-width:1.5;"/><line style="stroke:#000000;stroke-width:1.5;" x1="2112" x2="2239.8643" y1="114.4883" y2="114.4883"/><text fill="#000000" font-family="sans-serif" font-size="14" font-weight="bold" lengthAdjust="spacing" textLength="114.8643" x="2116" y="107.5352">reactivestreams</text></g><!--class Loggable--><g id="elem_Loggable"><rect fill="#F1F1F1" height="48" id="Loggable" rx="2.5" ry="2.5" style="stroke:#181818;stroke-width:0.5;" width="93.9131" x="70.04" y="339.95"/><ellipse cx="85.04" cy="355.95" fill="#ADD1B2" rx="11" ry="11" style="stroke:#181818;stroke-width:1.0;"/><path d="M88.0131,361.5931 Q87.4321,361.8919 86.7929,362.0413 Q86.1538,362.1907 85.4482,362.1907 Q82.9414,362.1907 81.6215,360.5389 Q80.3017,358.887 80.3017,355.7659 Q80.3017,352.6365 81.6215,350.9847 Q82.9414,349.3328 85.4482,349.3328 Q86.1538,349.3328 86.8012,349.4822 Q87.4487,349.6316 88.0131,349.9305 L88.0131,352.6531 Q87.3823,352.0721 86.7888,351.8023 Q86.1953,351.5325 85.5644,351.5325 Q84.2197,351.5325 83.5349,352.5992 Q82.8501,353.6658 82.8501,355.7659 Q82.8501,357.8577 83.5349,358.9244 Q84.2197,359.991 85.5644,359.991 Q86.1953,359.991 86.7888,359.7212 Q87.3823,359.4515 88.0131,358.8704 Z " fill="#000000"/><text fill="#000000" font-family="sans-serif" font-size="14" lengthAdjust="spacing" textLength="61.9131" x="99.04" y="361.241">Loggable</text><line style="stroke:#181818;stroke-width:0.5;" x1="71.04" x2="162.9531" y1="371.95" y2="371.95"/><line style="stroke:#181818;stroke-width:0.5;" x1="71.04" x2="162.9531" y1="379.95" y2="379.95"/></g><!--class ReusableService--><g id="elem_ReusableService"><rect fill="#F1F1F1" height="48" id="ReusableService" rx="2.5" ry="2.5" style="stroke:#181818;stroke-width:0.5;" width="140.1992" x="560.9" y="127"/><ellipse cx="575.9" cy="143" fill="#ADD1B2" rx="11" ry="11" style="stroke:#181818;stroke-width:1.0;"/><path d="M578.8731,148.6431 Q578.2921,148.9419 577.6529,149.0913 Q577.0138,149.2407 576.3082,149.2407 Q573.8014,149.2407 572.4815,147.5889 Q571.1617,145.937 571.1617,142.8159 Q571.1617,139.6865 572.4815,138.0347 Q573.8014,136.3828 576.3082,136.3828 Q577.0138,136.3828 577.6612,136.5322 Q578.3087,136.6816 578.8731,136.9805 L578.8731,139.7031 Q578.2423,139.1221 577.6488,138.8523 Q577.0553,138.5825 576.4244,138.5825 Q575.0797,138.5825 574.3949,139.6492 Q573.7101,140.7158 573.7101,142.8159 Q573.7101,144.9077 574.3949,145.9744 Q575.0797,147.041 576.4244,147.041 Q577.0553,147.041 577.6488,146.7712 Q578.2423,146.5015 578.8731,145.9204 Z " fill="#000000"/><text fill="#000000" font-family="sans-serif" font-size="14" lengthAdjust="spacing" textLength="108.1992" x="589.9" y="148.291">ReusableService</text><line style="stroke:#181818;stroke-width:0.5;" x1="561.9" x2="700.0992" y1="159" y2="159"/><line style="stroke:#181818;stroke-width:0.5;" x1="561.9" x2="700.0992" y1="167" y2="167"/></g><!--class DesktopMicrophone--><g id="elem_DesktopMicrophone"><rect codeLine="1" fill="#F1F1F1" height="113.9531" id="DesktopMicrophone" rx="2.5" ry="2.5" style="stroke:#181818;stroke-width:0.5;" width="217.1533" x="199.42" y="571.61"/><ellipse cx="236.3386" cy="587.61" fill="#ADD1B2" rx="11" ry="11" style="stroke:#181818;stroke-width:1.0;"/><path d="M239.3117,593.2531 Q238.7307,593.5519 238.0915,593.7013 Q237.4524,593.8507 236.7468,593.8507 Q234.24,593.8507 232.9201,592.1989 Q231.6003,590.547 231.6003,587.4259 Q231.6003,584.2965 232.9201,582.6447 Q234.24,580.9928 236.7468,580.9928 Q237.4524,580.9928 238.0998,581.1422 Q238.7473,581.2916 239.3117,581.5905 L239.3117,584.3131 Q238.6809,583.7321 238.0874,583.4623 Q237.4939,583.1925 236.863,583.1925 Q235.5183,583.1925 234.8335,584.2592 Q234.1487,585.3258 234.1487,587.4259 Q234.1487,589.5177 234.8335,590.5844 Q235.5183,591.651 236.863,591.651 Q237.4939,591.651 238.0874,591.3812 Q238.6809,591.1115 239.3117,590.5304 Z " fill="#000000"/><text fill="#000000" font-family="sans-serif" font-size="14" lengthAdjust="spacing" textLength="136.4453" x="255.2094" y="592.901">DesktopMicrophone</text><line style="stroke:#181818;stroke-width:0.5;" x1="200.42" x2="415.5733" y1="603.61" y2="603.61"/><rect fill="none" height="6" style="stroke:#C82930;stroke-width:1.0;" width="6" x="207.42" y="614.3541"/><text fill="#000000" font-family="sans-serif" font-size="14" lengthAdjust="spacing" textLength="191.1533" x="219.42" y="621.1452">Int MIC_SAMPLE_SIZE_IN_BIT</text><rect fill="none" height="6" style="stroke:#C82930;stroke-width:1.0;" width="6" x="207.42" y="630.8424"/><text fill="#000000" font-family="sans-serif" font-size="14" lengthAdjust="spacing" textLength="172.293" x="219.42" y="637.6334">Int MIC_AUDIO_CHANNEL</text><rect fill="none" height="6" style="stroke:#C82930;stroke-width:1.0;" width="6" x="207.42" y="647.3307"/><text fill="#000000" font-family="sans-serif" font-size="14" lengthAdjust="spacing" textLength="164.3291" x="219.42" y="654.1217">Float MIC_SAMPLE_RATE</text><line style="stroke:#181818;stroke-width:0.5;" x1="200.42" x2="415.5733" y1="661.0748" y2="661.0748"/><ellipse cx="210.42" cy="674.819" fill="#84BE84" rx="3" ry="3" style="stroke:#038048;stroke-width:1.0;"/><text fill="#000000" font-family="sans-serif" font-size="14" lengthAdjust="spacing" textLength="136.4111" x="219.42" y="678.61">InputStream? build()</text></g><!--class Speech2TextStreamBuilder--><g id="elem_Speech2TextStreamBuilder"><rect codeLine="9" fill="#F1F1F1" height="64.4883" id="Speech2TextStreamBuilder" rx="2.5" ry="2.5" style="stroke:#181818;stroke-width:0.5;" width="213.4189" x="199.29" y="331.71"/><ellipse cx="214.29" cy="347.71" fill="#B4A7E5" rx="11" ry="11" style="stroke:#181818;stroke-width:1.0;"/><path d="M210.2177,343.4751 L210.2177,341.3169 L217.5971,341.3169 L217.5971,343.4751 L215.1318,343.4751 L215.1318,351.5518 L217.5971,351.5518 L217.5971,353.71 L210.2177,353.71 L210.2177,351.5518 L212.6831,351.5518 L212.6831,343.4751 Z " fill="#000000"/><text fill="#000000" font-family="sans-serif" font-size="14" font-style="italic" lengthAdjust="spacing" textLength="181.4189" x="228.29" y="353.001">Speech2TextStreamBuilder</text><line style="stroke:#181818;stroke-width:0.5;" x1="200.29" x2="411.7089" y1="363.71" y2="363.71"/><line style="stroke:#181818;stroke-width:0.5;" x1="200.29" x2="411.7089" y1="371.71" y2="371.71"/><ellipse cx="210.29" cy="385.4541" fill="#84BE84" rx="3" ry="3" style="stroke:#038048;stroke-width:1.0;"/><text fill="#000000" font-family="sans-serif" font-size="14" lengthAdjust="spacing" textLength="136.4111" x="219.29" y="389.2452">InputStream? build()</text></g><!--class Speech2Text--><g id="elem_Speech2Text"><rect codeLine="13" fill="#F1F1F1" height="97.4648" id="Speech2Text" rx="2.5" ry="2.5" style="stroke:#181818;stroke-width:0.5;" width="366.7441" x="447.63" y="315.22"/><ellipse cx="583.1832" cy="331.22" fill="#A9DCDF" rx="11" ry="11" style="stroke:#181818;stroke-width:1.0;"/><path d="M583.2965,326.5681 L582.1427,331.6399 L584.4586,331.6399 Z M581.8024,324.3269 L584.7989,324.3269 L588.1442,336.72 L585.6954,336.72 L584.9318,333.657 L581.6529,333.657 L580.9059,336.72 L578.4571,336.72 Z " fill="#000000"/><text fill="#000000" font-family="sans-serif" font-size="14" font-style="italic" lengthAdjust="spacing" textLength="87.1377" x="603.6832" y="336.511">Speech2Text</text><line style="stroke:#181818;stroke-width:0.5;" x1="448.63" x2="813.3741" y1="347.22" y2="347.22"/><ellipse cx="458.63" cy="360.9641" fill="none" rx="3" ry="3" style="stroke:#038048;stroke-width:1.0;"/><text fill="#000000" font-family="sans-serif" font-size="14" lengthAdjust="spacing" textLength="123.5938" x="467.63" y="364.7552">onResultCallbacks</text><line style="stroke:#181818;stroke-width:0.5;" x1="448.63" x2="813.3741" y1="371.7083" y2="371.7083"/><ellipse cx="458.63" cy="385.4524" fill="#84BE84" rx="3" ry="3" style="stroke:#038048;stroke-width:1.0;"/><text fill="#000000" font-family="sans-serif" font-size="14" lengthAdjust="spacing" textLength="340.7441" x="467.63" y="389.2434">&#171;Create&#187; Speech2Text(Speech2TextStreamBuilder)</text><ellipse cx="458.63" cy="401.9407" fill="#84BE84" rx="3" ry="3" style="stroke:#038048;stroke-width:1.0;"/><text fill="#000000" font-family="sans-serif" font-size="14" lengthAdjust="spacing" textLength="264.0449" x="467.63" y="405.7317">void computeAsync(FrequentTimeout?)</text></g><!--class AwsTranscribe$Companion--><g id="elem_AwsTranscribe$Companion"><rect codeLine="20" fill="#F1F1F1" height="113.9531" id="AwsTranscribe$Companion" rx="2.5" ry="2.5" style="stroke:#181818;stroke-width:0.5;" width="292.2188" x="494.89" y="803.28"/><ellipse cx="543.7225" cy="819.28" fill="#ADD1B2" rx="11" ry="11" style="stroke:#181818;stroke-width:1.0;"/><path d="M546.6957,824.9231 Q546.1146,825.2219 545.4754,825.3713 Q544.8363,825.5207 544.1307,825.5207 Q541.6239,825.5207 540.3041,823.8689 Q538.9842,822.217 538.9842,819.0959 Q538.9842,815.9665 540.3041,814.3147 Q541.6239,812.6628 544.1307,812.6628 Q544.8363,812.6628 545.4838,812.8122 Q546.1312,812.9616 546.6957,813.2605 L546.6957,815.9831 Q546.0648,815.4021 545.4713,815.1323 Q544.8778,814.8625 544.2469,814.8625 Q542.9022,814.8625 542.2174,815.9292 Q541.5326,816.9958 541.5326,819.0959 Q541.5326,821.1877 542.2174,822.2544 Q542.9022,823.321 544.2469,823.321 Q544.8778,823.321 545.4713,823.0512 Q546.0648,822.7815 546.6957,822.2004 Z " fill="#000000"/><text fill="#000000" font-family="sans-serif" font-size="14" lengthAdjust="spacing" textLength="186.0537" x="564.2225" y="824.571">AwsTranscribe$Companion</text><line style="stroke:#181818;stroke-width:0.5;" x1="495.89" x2="786.1088" y1="835.28" y2="835.28"/><rect fill="none" height="6" style="stroke:#C82930;stroke-width:1.0;" width="6" x="502.89" y="846.0241"/><text fill="#000000" font-family="sans-serif" font-size="14" lengthAdjust="spacing" textLength="120.2852" x="514.89" y="852.8152">LANGUAGE_CODE</text><rect fill="none" height="6" style="stroke:#C82930;stroke-width:1.0;" width="6" x="502.89" y="862.5124"/><text fill="#000000" font-family="sans-serif" font-size="14" lengthAdjust="spacing" textLength="266.2188" x="514.89" y="869.3034">AUDIO_STREAM_CHUNK_SIZE_IN_BYTES</text><rect fill="none" height="6" style="stroke:#C82930;stroke-width:1.0;" width="6" x="502.89" y="879.0007"/><text fill="#000000" font-family="sans-serif" font-size="14" lengthAdjust="spacing" textLength="94.001" x="514.89" y="885.7917">SAMPLE_RATE</text><rect fill="none" height="6" style="stroke:#C82930;stroke-width:1.0;" width="6" x="502.89" y="895.489"/><text fill="#000000" font-family="sans-serif" font-size="14" lengthAdjust="spacing" textLength="124.2979" x="514.89" y="902.28">MEDIA_ENCODING</text><line style="stroke:#181818;stroke-width:0.5;" x1="495.89" x2="786.1088" y1="909.2331" y2="909.2331"/></g><!--class AwsTranscribe--><g id="elem_AwsTranscribe"><rect codeLine="27" fill="#F1F1F1" height="229.3711" id="AwsTranscribe" rx="2.5" ry="2.5" style="stroke:#181818;stroke-width:0.5;" width="378.8848" x="451.56" y="513.91"/><ellipse cx="587.1132" cy="529.91" fill="#ADD1B2" rx="11" ry="11" style="stroke:#181818;stroke-width:1.0;"/><path d="M590.0864,535.5531 Q589.5053,535.8519 588.8662,536.0013 Q588.227,536.1507 587.5214,536.1507 Q585.0146,536.1507 583.6948,534.4989 Q582.3749,532.847 582.3749,529.7259 Q582.3749,526.5965 583.6948,524.9447 Q585.0146,523.2928 587.5214,523.2928 Q588.227,523.2928 588.8745,523.4422 Q589.5219,523.5916 590.0864,523.8905 L590.0864,526.6131 Q589.4555,526.0321 588.862,525.7623 Q588.2685,525.4925 587.6376,525.4925 Q586.2929,525.4925 585.6081,526.5592 Q584.9233,527.6258 584.9233,529.7259 Q584.9233,531.8177 585.6081,532.8844 Q586.2929,533.951 587.6376,533.951 Q588.2685,533.951 588.862,533.6812 Q589.4555,533.4115 590.0864,532.8304 Z " fill="#000000"/><text fill="#000000" font-family="sans-serif" font-size="14" lengthAdjust="spacing" textLength="99.2783" x="607.6132" y="535.201">AwsTranscribe</text><line style="stroke:#181818;stroke-width:0.5;" x1="452.56" x2="829.4448" y1="545.91" y2="545.91"/><rect fill="none" height="6" style="stroke:#C82930;stroke-width:1.0;" width="6" x="459.56" y="556.6541"/><text fill="#000000" font-family="sans-serif" font-size="14" lengthAdjust="spacing" textLength="267.0664" x="471.56" y="563.4452">TranscribeStreamingAsyncClient? client</text><rect fill="none" height="6" style="stroke:#C82930;stroke-width:1.0;" width="6" x="459.56" y="573.1424"/><text fill="#000000" font-family="sans-serif" font-size="14" lengthAdjust="spacing" textLength="284.9082" x="471.56" y="579.9334">StartStreamTranscriptionRequest? request</text><rect fill="none" height="6" style="stroke:#C82930;stroke-width:1.0;" width="6" x="459.56" y="589.6307"/><text fill="#000000" font-family="sans-serif" font-size="14" lengthAdjust="spacing" textLength="282.3379" x="471.56" y="596.4217">CompletableFuture&lt;Void&gt;? transcribeJob</text><line style="stroke:#181818;stroke-width:0.5;" x1="452.56" x2="829.4448" y1="603.3748" y2="603.3748"/><ellipse cx="462.56" cy="617.119" fill="#84BE84" rx="3" ry="3" style="stroke:#038048;stroke-width:1.0;"/><text fill="#000000" font-family="sans-serif" font-size="14" lengthAdjust="spacing" textLength="352.8848" x="471.56" y="620.91">&#171;Create&#187; AwsTranscribe(Speech2TextStreamBuilder)</text><rect fill="#F24D5C" height="6" style="stroke:#C82930;stroke-width:1.0;" width="6" x="459.56" y="630.6073"/><text fill="#000000" font-family="sans-serif" font-size="14" lengthAdjust="spacing" textLength="294.7998" x="471.56" y="637.3983">TranscribeStreamingAsyncClient initClient()</text><rect fill="#F24D5C" height="6" style="stroke:#C82930;stroke-width:1.0;" width="6" x="459.56" y="647.0955"/><text fill="#000000" font-family="sans-serif" font-size="14" lengthAdjust="spacing" textLength="313.25" x="471.56" y="653.8866">StartStreamTranscriptionRequest initRequest()</text><ellipse cx="462.56" cy="666.5838" fill="#84BE84" rx="3" ry="3" style="stroke:#038048;stroke-width:1.0;"/><text fill="#000000" font-family="sans-serif" font-size="14" lengthAdjust="spacing" textLength="113.7773" x="471.56" y="670.3748">void doActivate()</text><ellipse cx="462.56" cy="683.0721" fill="#84BE84" rx="3" ry="3" style="stroke:#038048;stroke-width:1.0;"/><text fill="#000000" font-family="sans-serif" font-size="14" lengthAdjust="spacing" textLength="189.1846" x="471.56" y="686.8631">void doComputeAsync(Unit)</text><rect fill="#F24D5C" height="6" style="stroke:#C82930;stroke-width:1.0;" width="6" x="459.56" y="696.5604"/><text fill="#000000" font-family="sans-serif" font-size="14" lengthAdjust="spacing" textLength="181.9248" x="471.56" y="703.3514">void getResponseHandler()</text><ellipse cx="462.56" cy="716.0487" fill="#84BE84" rx="3" ry="3" style="stroke:#038048;stroke-width:1.0;"/><text fill="#000000" font-family="sans-serif" font-size="14" lengthAdjust="spacing" textLength="89.8379" x="471.56" y="719.8397">void doStop()</text><ellipse cx="462.56" cy="732.537" fill="#84BE84" rx="3" ry="3" style="stroke:#038048;stroke-width:1.0;"/><text fill="#000000" font-family="sans-serif" font-size="14" lengthAdjust="spacing" textLength="130.1357" x="471.56" y="736.328">void doDeactivate()</text></g><!--class AudioStreamPublisher$Companion--><g id="elem_AudioStreamPublisher$Companion"><rect codeLine="42" fill="#F1F1F1" height="97.4648" id="AudioStreamPublisher$Companion" rx="2.5" ry="2.5" style="stroke:#181818;stroke-width:0.5;" width="284.3506" x="936.82" y="579.86"/><ellipse cx="959.0099" cy="595.86" fill="#ADD1B2" rx="11" ry="11" style="stroke:#181818;stroke-width:1.0;"/><path d="M961.983,601.5031 Q961.402,601.8019 960.7628,601.9513 Q960.1237,602.1007 959.4181,602.1007 Q956.9113,602.1007 955.5914,600.4489 Q954.2716,598.797 954.2716,595.6759 Q954.2716,592.5465 955.5914,590.8947 Q956.9113,589.2428 959.4181,589.2428 Q960.1237,589.2428 960.7711,589.3922 Q961.4186,589.5416 961.983,589.8405 L961.983,592.5631 Q961.3522,591.9821 960.7587,591.7123 Q960.1652,591.4425 959.5343,591.4425 Q958.1896,591.4425 957.5048,592.5092 Q956.82,593.5758 956.82,595.6759 Q956.82,597.7677 957.5048,598.8344 Q958.1896,599.901 959.5343,599.901 Q960.1652,599.901 960.7587,599.6312 Q961.3522,599.3615 961.983,598.7804 Z " fill="#000000"/><text fill="#000000" font-family="sans-serif" font-size="14" lengthAdjust="spacing" textLength="236.373" x="974.6076" y="601.151">AudioStreamPublisher$Companion</text><line style="stroke:#181818;stroke-width:0.5;" x1="937.82" x2="1220.1706" y1="611.86" y2="611.86"/><rect fill="none" height="6" style="stroke:#C82930;stroke-width:1.0;" width="6" x="944.82" y="622.6041"/><text fill="#000000" font-family="sans-serif" font-size="14" lengthAdjust="spacing" textLength="258.3506" x="956.82" y="629.3952">SubscriptionImpl? currentSubscription</text><rect fill="none" height="6" style="stroke:#C82930;stroke-width:1.0;" width="6" x="944.82" y="639.0924"/><text fill="#000000" font-family="sans-serif" font-size="14" lengthAdjust="spacing" textLength="43.3809" x="956.82" y="645.8834">mutex</text><line style="stroke:#181818;stroke-width:0.5;" x1="937.82" x2="1220.1706" y1="652.8366" y2="652.8366"/><ellipse cx="947.82" cy="666.5807" fill="#84BE84" rx="3" ry="3" style="stroke:#038048;stroke-width:1.0;"/><text fill="#000000" font-family="sans-serif" font-size="14" lengthAdjust="spacing" textLength="72.0234" x="956.82" y="670.3717">void stop()</text></g><!--class AudioStreamPublisher--><g id="elem_AudioStreamPublisher"><rect codeLine="49" fill="#F1F1F1" height="80.9766" id="AudioStreamPublisher" rx="2.5" ry="2.5" style="stroke:#181818;stroke-width:0.5;" width="459.4326" x="849.28" y="323.46"/><ellipse cx="999.9475" cy="339.46" fill="#ADD1B2" rx="11" ry="11" style="stroke:#181818;stroke-width:1.0;"/><path d="M1002.9206,345.1031 Q1002.3396,345.4019 1001.7004,345.5513 Q1001.0613,345.7007 1000.3557,345.7007 Q997.8488,345.7007 996.529,344.0489 Q995.2092,342.397 995.2092,339.2759 Q995.2092,336.1465 996.529,334.4947 Q997.8488,332.8428 1000.3557,332.8428 Q1001.0613,332.8428 1001.7087,332.9922 Q1002.3562,333.1416 1002.9206,333.4405 L1002.9206,336.1631 Q1002.2898,335.5821 1001.6963,335.3123 Q1001.1028,335.0425 1000.4719,335.0425 Q999.1272,335.0425 998.4424,336.1092 Q997.7575,337.1758 997.7575,339.2759 Q997.7575,341.3677 998.4424,342.4344 Q999.1272,343.501 1000.4719,343.501 Q1001.1028,343.501 1001.6963,343.2312 Q1002.2898,342.9615 1002.9206,342.3804 Z " fill="#000000"/><text fill="#000000" font-family="sans-serif" font-size="14" lengthAdjust="spacing" textLength="149.5977" x="1020.4475" y="344.751">AudioStreamPublisher</text><line style="stroke:#181818;stroke-width:0.5;" x1="850.28" x2="1307.7126" y1="355.46" y2="355.46"/><line style="stroke:#181818;stroke-width:0.5;" x1="850.28" x2="1307.7126" y1="363.46" y2="363.46"/><ellipse cx="860.28" cy="377.2041" fill="#84BE84" rx="3" ry="3" style="stroke:#038048;stroke-width:1.0;"/><text fill="#000000" font-family="sans-serif" font-size="14" lengthAdjust="spacing" textLength="433.4326" x="869.28" y="380.9952">&#171;Create&#187; AudioStreamPublisher(InputStream,CentralizedLogger)</text><ellipse cx="860.28" cy="393.6924" fill="#84BE84" rx="3" ry="3" style="stroke:#038048;stroke-width:1.0;"/><text fill="#000000" font-family="sans-serif" font-size="14" lengthAdjust="spacing" textLength="311.2744" x="869.28" y="397.4834">void subscribe(Subscriber&lt;in AudioStream?&gt;)</text></g><!--class SubscriptionImpl--><g id="elem_SubscriptionImpl"><rect codeLine="54" fill="#F1F1F1" height="179.9063" id="SubscriptionImpl" rx="2.5" ry="2.5" style="stroke:#181818;stroke-width:0.5;" width="632.4365" x="1343.78" y="274"/><ellipse cx="1598.5144" cy="290" fill="#ADD1B2" rx="11" ry="11" style="stroke:#181818;stroke-width:1.0;"/><path d="M1601.4875,295.6431 Q1600.9065,295.9419 1600.2673,296.0913 Q1599.6281,296.2407 1598.9226,296.2407 Q1596.4157,296.2407 1595.0959,294.5889 Q1593.7761,292.937 1593.7761,289.8159 Q1593.7761,286.6865 1595.0959,285.0347 Q1596.4157,283.3828 1598.9226,283.3828 Q1599.6281,283.3828 1600.2756,283.5322 Q1600.9231,283.6816 1601.4875,283.9805 L1601.4875,286.7031 Q1600.8567,286.1221 1600.2632,285.8523 Q1599.6696,285.5825 1599.0388,285.5825 Q1597.6941,285.5825 1597.0092,286.6492 Q1596.3244,287.7158 1596.3244,289.8159 Q1596.3244,291.9077 1597.0092,292.9744 Q1597.6941,294.041 1599.0388,294.041 Q1599.6696,294.041 1600.2632,293.7712 Q1600.8567,293.5015 1601.4875,292.9204 Z " fill="#000000"/><text fill="#000000" font-family="sans-serif" font-size="14" lengthAdjust="spacing" textLength="114.4678" x="1619.0144" y="295.291">SubscriptionImpl</text><line style="stroke:#181818;stroke-width:0.5;" x1="1344.78" x2="1975.2165" y1="306" y2="306"/><rect fill="none" height="6" style="stroke:#C82930;stroke-width:1.0;" width="6" x="1351.78" y="316.7441"/><text fill="#000000" font-family="sans-serif" font-size="14" lengthAdjust="spacing" textLength="170.7686" x="1363.78" y="323.5352">ExecutorService executor</text><rect fill="none" height="6" style="stroke:#C82930;stroke-width:1.0;" width="6" x="1351.78" y="333.2324"/><text fill="#000000" font-family="sans-serif" font-size="14" lengthAdjust="spacing" textLength="54.9131" x="1363.78" y="340.0234">demand</text><rect fill="none" height="6" style="stroke:#C82930;stroke-width:1.0;" width="6" x="1351.78" y="349.7207"/><text fill="#000000" font-family="sans-serif" font-size="14" lengthAdjust="spacing" textLength="47.3594" x="1363.78" y="356.5117">isOpen</text><line style="stroke:#181818;stroke-width:0.5;" x1="1344.78" x2="1975.2165" y1="363.4648" y2="363.4648"/><rect fill="#F24D5C" height="6" style="stroke:#C82930;stroke-width:1.0;" width="6" x="1351.78" y="374.209"/><text fill="#000000" font-family="sans-serif" font-size="14" lengthAdjust="spacing" textLength="606.4365" x="1363.78" y="381">&#171;Create&#187; SubscriptionImpl(Subscriber&lt;in AudioStream?&gt;,InputStream,CentralizedLogger)</text><rect fill="#F24D5C" height="6" style="stroke:#C82930;stroke-width:1.0;" width="6" x="1351.78" y="390.6973"/><text fill="#000000" font-family="sans-serif" font-size="14" lengthAdjust="spacing" textLength="172.792" x="1363.78" y="397.4883">ByteBuffer getNextEvent()</text><ellipse cx="1354.78" cy="410.1855" fill="#84BE84" rx="3" ry="3" style="stroke:#038048;stroke-width:1.0;"/><text fill="#000000" font-family="sans-serif" font-size="14" lengthAdjust="spacing" textLength="126.9229" x="1363.78" y="413.9766">void request(Long)</text><ellipse cx="1354.78" cy="426.6738" fill="#84BE84" rx="3" ry="3" style="stroke:#038048;stroke-width:1.0;"/><text fill="#000000" font-family="sans-serif" font-size="14" lengthAdjust="spacing" textLength="84.8477" x="1363.78" y="430.4648">void cancel()</text><ellipse cx="1354.78" cy="443.1621" fill="#84BE84" rx="3" ry="3" style="stroke:#038048;stroke-width:1.0;"/><text fill="#000000" font-family="sans-serif" font-size="14" lengthAdjust="spacing" textLength="72.0234" x="1363.78" y="446.9531">void stop()</text></g><!--class Publisher--><g id="elem_Publisher"><rect fill="#F1F1F1" height="48" id="Publisher" rx="2.5" ry="2.5" style="stroke:#181818;stroke-width:0.5;" width="94.6855" x="2127.66" y="127"/><ellipse cx="2142.66" cy="143" fill="#ADD1B2" rx="11" ry="11" style="stroke:#181818;stroke-width:1.0;"/><path d="M2145.6331,148.6431 Q2145.0521,148.9419 2144.4129,149.0913 Q2143.7738,149.2407 2143.0682,149.2407 Q2140.5614,149.2407 2139.2415,147.5889 Q2137.9217,145.937 2137.9217,142.8159 Q2137.9217,139.6865 2139.2415,138.0347 Q2140.5614,136.3828 2143.0682,136.3828 Q2143.7738,136.3828 2144.4212,136.5322 Q2145.0687,136.6816 2145.6331,136.9805 L2145.6331,139.7031 Q2145.0023,139.1221 2144.4088,138.8523 Q2143.8153,138.5825 2143.1844,138.5825 Q2141.8397,138.5825 2141.1549,139.6492 Q2140.4701,140.7158 2140.4701,142.8159 Q2140.4701,144.9077 2141.1549,145.9744 Q2141.8397,147.041 2143.1844,147.041 Q2143.8153,147.041 2144.4088,146.7712 Q2145.0023,146.5015 2145.6331,145.9204 Z " fill="#000000"/><text fill="#000000" font-family="sans-serif" font-size="14" lengthAdjust="spacing" textLength="62.6855" x="2156.66" y="148.291">Publisher</text><line style="stroke:#181818;stroke-width:0.5;" x1="2128.66" x2="2221.3455" y1="159" y2="159"/><line style="stroke:#181818;stroke-width:0.5;" x1="2128.66" x2="2221.3455" y1="167" y2="167"/></g><!--class Subscription--><g id="elem_Subscription"><rect fill="#F1F1F1" height="48" id="Subscription" rx="2.5" ry="2.5" style="stroke:#181818;stroke-width:0.5;" width="116.5059" x="2257.75" y="127"/><ellipse cx="2272.75" cy="143" fill="#ADD1B2" rx="11" ry="11" style="stroke:#181818;stroke-width:1.0;"/><path d="M2275.7231,148.6431 Q2275.1421,148.9419 2274.5029,149.0913 Q2273.8638,149.2407 2273.1582,149.2407 Q2270.6514,149.2407 2269.3315,147.5889 Q2268.0117,145.937 2268.0117,142.8159 Q2268.0117,139.6865 2269.3315,138.0347 Q2270.6514,136.3828 2273.1582,136.3828 Q2273.8638,136.3828 2274.5112,136.5322 Q2275.1587,136.6816 2275.7231,136.9805 L2275.7231,139.7031 Q2275.0923,139.1221 2274.4988,138.8523 Q2273.9053,138.5825 2273.2744,138.5825 Q2271.9297,138.5825 2271.2449,139.6492 Q2270.5601,140.7158 2270.5601,142.8159 Q2270.5601,144.9077 2271.2449,145.9744 Q2271.9297,147.041 2273.2744,147.041 Q2273.9053,147.041 2274.4988,146.7712 Q2275.0923,146.5015 2275.7231,145.9204 Z " fill="#000000"/><text fill="#000000" font-family="sans-serif" font-size="14" lengthAdjust="spacing" textLength="84.5059" x="2286.75" y="148.291">Subscription</text><line style="stroke:#181818;stroke-width:0.5;" x1="2258.75" x2="2373.2559" y1="159" y2="159"/><line style="stroke:#181818;stroke-width:0.5;" x1="2258.75" x2="2373.2559" y1="167" y2="167"/></g><!--reverse link Speech2TextStreamBuilder to DesktopMicrophone--><g id="link_Speech2TextStreamBuilder_DesktopMicrophone"><path codeLine="68" d="M306.3776,414.6295 C306.7076,457.8095 307.16,517.86 307.57,571.17 " fill="none" id="Speech2TextStreamBuilder-backto-DesktopMicrophone" style="stroke:#181818;stroke-width:1.0;stroke-dasharray:7.0,7.0;"/><polygon fill="none" points="306.24,396.63,300.3777,414.6753,312.3774,414.5836,306.24,396.63" style="stroke:#181818;stroke-width:1.0;"/></g><!--reverse link Loggable to DesktopMicrophone--><g id="link_Loggable_DesktopMicrophone"><path codeLine="69" d="M144.5373,402.8171 C174.1673,443.5571 225.56,514.23 266.99,571.2 " fill="none" id="Loggable-backto-DesktopMicrophone" style="stroke:#181818;stroke-width:1.0;"/><polygon fill="none" points="133.95,388.26,139.6849,406.3462,149.3897,399.288,133.95,388.26" style="stroke:#181818;stroke-width:1.0;"/></g><!--reverse link ReusableService to Speech2Text--><g id="link_ReusableService_Speech2Text"><path codeLine="70" d="M631,193.38 C631,226.85 631,271.18 631,314.77 " fill="none" id="ReusableService-backto-Speech2Text" style="stroke:#181818;stroke-width:1.0;"/><polygon fill="none" points="631,175.38,625,193.38,637,193.38,631,175.38" style="stroke:#181818;stroke-width:1.0;"/></g><!--reverse link AwsTranscribe to AwsTranscribe$Companion--><g id="link_AwsTranscribe_AwsTranscribe$Companion"><path codeLine="71" d="M641,759.75 C641,780.35 641,784.98 641,802.99 " fill="none" id="AwsTranscribe-backto-AwsTranscribe$Companion" style="stroke:#181818;stroke-width:1.0;stroke-dasharray:7.0,7.0;"/><ellipse cx="641" cy="751.75" fill="#FFFFFF" rx="8" ry="8" style="stroke:#181818;stroke-width:1.0;"/><line style="stroke:#181818;stroke-width:1.0;" x1="641" x2="641" y1="759.75" y2="743.75"/><line style="stroke:#181818;stroke-width:1.0;" x1="633" x2="649" y1="751.75" y2="751.75"/></g><!--reverse link Speech2Text to AwsTranscribe--><g id="link_Speech2Text_AwsTranscribe"><path codeLine="72" d="M633.5184,431.1068 C634.5984,459.3268 635.31,478.24 636.65,513.47 " fill="none" id="Speech2Text-backto-AwsTranscribe" style="stroke:#181818;stroke-width:1.0;"/><polygon fill="none" points="632.83,413.12,627.5228,431.3363,639.514,430.8774,632.83,413.12" style="stroke:#181818;stroke-width:1.0;"/></g><!--reverse link AudioStreamPublisher to AudioStreamPublisher$Companion--><g id="link_AudioStreamPublisher_AudioStreamPublisher$Companion"><path codeLine="73" d="M1079,420.84 C1079,467.77 1079,529.61 1079,579.74 " fill="none" id="AudioStreamPublisher-backto-AudioStreamPublisher$Companion" style="stroke:#181818;stroke-width:1.0;stroke-dasharray:7.0,7.0;"/><ellipse cx="1079" cy="412.84" fill="#FFFFFF" rx="8" ry="8" style="stroke:#181818;stroke-width:1.0;"/><line style="stroke:#181818;stroke-width:1.0;" x1="1079" x2="1079" y1="420.84" y2="404.84"/><line style="stroke:#181818;stroke-width:1.0;" x1="1071" x2="1087" y1="412.84" y2="412.84"/></g><!--reverse link Publisher to AudioStreamPublisher--><g id="link_Publisher_AudioStreamPublisher"><path codeLine="74" d="M2119.2339,183.9068 C2087.9939,200.7868 2058.67,213.65 2016,223 C1941.11,239.42 1400.27,211.95 1326,231 C1255.36,249.12 1182.7,291.31 1134.64,323.14 " fill="none" id="Publisher-backto-AudioStreamPublisher" style="stroke:#181818;stroke-width:1.0;stroke-dasharray:7.0,7.0;"/><polygon fill="none" points="2135.07,175.35,2116.3817,178.6281,2122.0862,189.1855,2135.07,175.35" style="stroke:#181818;stroke-width:1.0;"/></g><!--reverse link Subscription to SubscriptionImpl--><g id="link_Subscription_SubscriptionImpl"><path codeLine="75" d="M2284.6929,188.8631 C2270.5629,204.5731 2262.1,211.1 2240,223 C2159.41,266.41 2065.34,296.53 1976.7,317.36 " fill="none" id="Subscription-backto-SubscriptionImpl" style="stroke:#181818;stroke-width:1.0;stroke-dasharray:7.0,7.0;"/><polygon fill="none" points="2296.73,175.48,2280.2318,184.8507,2289.1539,192.8755,2296.73,175.48" style="stroke:#181818;stroke-width:1.0;"/></g><!--SRC=[jLLDSzem4BtxL_ZG0qoA3pqpCCOuYLjmCXWwqruOsTuucWZ9bMIQzEE_TsL344n2QcXFNachtRVlhTOP8qgvEIse9inB1QCSl8mmvYj5bIPSUwe4oEu_Q7ZKtXZKWnRbb6PIbFU2W_lJwRaHr-uq2fQ9FxsTXCia-XeketWvYkRMeRyOHpVBuDgFut22-vTCaBrhCtyUEXVeNrOwqHB8QkYc5MLvf-lyTXo7SWtoZcJmzt2JnfwZtKGScNWW4VNhYKYgj2IPThDst5Z9wlYku3DG5TC1Nab9zg1mizyFCA66mS2r_3kl0UtYbRMWkPk95Q85Nptnh7CfuLi5NC_f2aIbXmq_BU7wtzLS4guoILDu5s1ymgdWjQ3kn8-l5lvLk0nkng7PQDHBvhFGdwA8Y_ZJJkOlyp0nFhQEk9o6uyXVXZ66YE8h0_4SX3MktR9XYVAYPYHW5EaOecBcYuw99dB3vFPEgQaH18bJw2aR0rrDvGmqIHbSLhgIqF-CX0-6hdvEzb6a-zBj8JiYtbk8NSgfRinEzstOjVl6xZotHYxyJDCr8hFt0hjX5dZFnA_F2i0OgXHSmJNXEGDftqlmUTlhCP1Tz5FQhCgfQ4gwhL96rJt8WsvBglIvqWZ5G1qhAP4J-y1qr0eBUjn2KmtGVmIfVh6smY_uTAo9yJv0V98m-WFoYIWAwwcg1hLfZAqb-vJR8OU3xWdluP2dchpm4R9A2vc0N5ESZR1P6xvoMA70ngBgfWJ3eJr_3i8TW_l-ZT9xxkX9mwYwkqCgiS5Yn1kkcxRUqB9vSPs9uCLkh16U0TivMQ8wplbZll_ByyxukHr7O6etKmEpz7h_BSiCAcMoRFLjbynYnZbnxbwqeV2Ldyf9KhOiTI-rSzumQ5VpqGdd25buiXcYsFx6ItcxJEqwzALKBoQmttRB78TZuGy0]--></g></svg>