<svg xmlns="http://www.w3.org/2000/svg" xmlns:xlink="http://www.w3.org/1999/xlink" contentStyleType="text/css" height="1568px" preserveAspectRatio="none" style="width:2006px;height:1568px;background:#FFFFFF;" version="1.1" viewBox="0 0 2006 1568" width="2006px" zoomAndPan="magnify"><defs/><g><!--cluster bon--><g id="cluster_bon"><path d="M8.5,196 L55.5742,196 A3.75,3.75 0 0 1 58.0742,198.5 L65.0742,218.4883 L1996.5,218.4883 A2.5,2.5 0 0 1 1999,220.9883 L1999,1559.47 A2.5,2.5 0 0 1 1996.5,1561.97 L8.5,1561.97 A2.5,2.5 0 0 1 6,1559.47 L6,198.5 A2.5,2.5 0 0 1 8.5,196 " fill="none" style="stroke:#000000;stroke-width:1.5;"/><line style="stroke:#000000;stroke-width:1.5;" x1="6" x2="65.0742" y1="218.4883" y2="218.4883"/><text fill="#000000" font-family="sans-serif" font-size="14" font-weight="bold" lengthAdjust="spacing" textLength="46.0742" x="10" y="211.5352">bon</text></g><!--cluster cubi--><g id="cluster_cubi"><path d="M32.5,239 L78.2207,239 A3.75,3.75 0 0 1 80.7207,241.5 L87.7207,261.4883 L1972.5,261.4883 A2.5,2.5 0 0 1 1975,263.9883 L1975,1535.47 A2.5,2.5 0 0 1 1972.5,1537.97 L32.5,1537.97 A2.5,2.5 0 0 1 30,1535.47 L30,241.5 A2.5,2.5 0 0 1 32.5,239 " fill="none" style="stroke:#000000;stroke-width:1.5;"/><line style="stroke:#000000;stroke-width:1.5;" x1="30" x2="87.7207" y1="261.4883" y2="261.4883"/><text fill="#000000" font-family="sans-serif" font-size="14" font-weight="bold" lengthAdjust="spacing" textLength="44.7207" x="34" y="254.5352">cubi</text></g><!--cluster callAssistant--><g id="cluster_callAssistant"><path d="M56.5,282 L149.6689,282 A3.75,3.75 0 0 1 152.1689,284.5 L159.1689,304.4883 L1948.5,304.4883 A2.5,2.5 0 0 1 1951,306.9883 L1951,1511.47 A2.5,2.5 0 0 1 1948.5,1513.97 L56.5,1513.97 A2.5,2.5 0 0 1 54,1511.47 L54,284.5 A2.5,2.5 0 0 1 56.5,282 " fill="none" style="stroke:#000000;stroke-width:1.5;"/><line style="stroke:#000000;stroke-width:1.5;" x1="54" x2="159.1689" y1="304.4883" y2="304.4883"/><text fill="#000000" font-family="sans-serif" font-size="14" font-weight="bold" lengthAdjust="spacing" textLength="92.1689" x="58" y="297.5352">callAssistant</text></g><!--cluster speech2text--><g id="cluster_speech2text"><path d="M80.5,325 L168.8018,325 A3.75,3.75 0 0 1 171.3018,327.5 L178.3018,347.4883 L1819.5,347.4883 A2.5,2.5 0 0 1 1822,349.9883 L1822,1487.47 A2.5,2.5 0 0 1 1819.5,1489.97 L80.5,1489.97 A2.5,2.5 0 0 1 78,1487.47 L78,327.5 A2.5,2.5 0 0 1 80.5,325 " fill="none" style="stroke:#000000;stroke-width:1.5;"/><line style="stroke:#000000;stroke-width:1.5;" x1="78" x2="178.3018" y1="347.4883" y2="347.4883"/><text fill="#000000" font-family="sans-serif" font-size="14" font-weight="bold" lengthAdjust="spacing" textLength="87.3018" x="82" y="340.5352">speech2text</text></g><!--cluster org--><g id="cluster_org"><path d="M459.5,6 L485.041,6 A3.75,3.75 0 0 1 487.541,8.5 L494.541,28.4883 L780.5,28.4883 A2.5,2.5 0 0 1 783,30.9883 L783,169.5 A2.5,2.5 0 0 1 780.5,172 L459.5,172 A2.5,2.5 0 0 1 457,169.5 L457,8.5 A2.5,2.5 0 0 1 459.5,6 " fill="none" style="stroke:#000000;stroke-width:1.5;"/><line style="stroke:#000000;stroke-width:1.5;" x1="457" x2="494.541" y1="28.4883" y2="28.4883"/><text fill="#000000" font-family="sans-serif" font-size="14" font-weight="bold" lengthAdjust="spacing" textLength="24.541" x="461" y="21.5352">org</text></g><!--cluster reactivestreams--><g id="cluster_reactivestreams"><path d="M483.5,49 L599.3643,49 A3.75,3.75 0 0 1 601.8643,51.5 L608.8643,71.4883 L756.5,71.4883 A2.5,2.5 0 0 1 759,73.9883 L759,145.5 A2.5,2.5 0 0 1 756.5,148 L483.5,148 A2.5,2.5 0 0 1 481,145.5 L481,51.5 A2.5,2.5 0 0 1 483.5,49 " fill="none" style="stroke:#000000;stroke-width:1.5;"/><line style="stroke:#000000;stroke-width:1.5;" x1="481" x2="608.8643" y1="71.4883" y2="71.4883"/><text fill="#000000" font-family="sans-serif" font-size="14" font-weight="bold" lengthAdjust="spacing" textLength="114.8643" x="485" y="64.5352">reactivestreams</text></g><!--class Loggable--><g id="elem_Loggable"><rect fill="#F1F1F1" height="48" id="Loggable" rx="2.5" ry="2.5" style="stroke:#181818;stroke-width:0.5;" width="93.9131" x="1841.04" y="425.95"/><ellipse cx="1856.04" cy="441.95" fill="#ADD1B2" rx="11" ry="11" style="stroke:#181818;stroke-width:1.0;"/><path d="M1859.0131,447.5931 Q1858.4321,447.8919 1857.7929,448.0413 Q1857.1538,448.1907 1856.4482,448.1907 Q1853.9414,448.1907 1852.6215,446.5389 Q1851.3017,444.887 1851.3017,441.7659 Q1851.3017,438.6365 1852.6215,436.9847 Q1853.9414,435.3328 1856.4482,435.3328 Q1857.1538,435.3328 1857.8012,435.4822 Q1858.4487,435.6316 1859.0131,435.9305 L1859.0131,438.6531 Q1858.3823,438.0721 1857.7888,437.8023 Q1857.1953,437.5325 1856.5644,437.5325 Q1855.2197,437.5325 1854.5349,438.5992 Q1853.8501,439.6658 1853.8501,441.7659 Q1853.8501,443.8577 1854.5349,444.9244 Q1855.2197,445.991 1856.5644,445.991 Q1857.1953,445.991 1857.7888,445.7212 Q1858.3823,445.4515 1859.0131,444.8704 Z " fill="#000000"/><text fill="#000000" font-family="sans-serif" font-size="14" lengthAdjust="spacing" textLength="61.9131" x="1870.04" y="447.241">Loggable</text><line style="stroke:#181818;stroke-width:0.5;" x1="1842.04" x2="1933.9531" y1="457.95" y2="457.95"/><line style="stroke:#181818;stroke-width:0.5;" x1="1842.04" x2="1933.9531" y1="465.95" y2="465.95"/></g><!--class DesktopMicrophone--><g id="elem_DesktopMicrophone"><rect  fill="#F1F1F1" height="113.9531" id="DesktopMicrophone" rx="2.5" ry="2.5" style="stroke:#181818;stroke-width:0.5;" width="217.1533" x="1588.42" y="665.86"/><ellipse cx="1625.3386" cy="681.86" fill="#ADD1B2" rx="11" ry="11" style="stroke:#181818;stroke-width:1.0;"/><path d="M1628.3117,687.5031 Q1627.7307,687.8019 1627.0915,687.9513 Q1626.4524,688.1007 1625.7468,688.1007 Q1623.24,688.1007 1621.9201,686.4489 Q1620.6003,684.797 1620.6003,681.6759 Q1620.6003,678.5465 1621.9201,676.8947 Q1623.24,675.2428 1625.7468,675.2428 Q1626.4524,675.2428 1627.0998,675.3922 Q1627.7473,675.5416 1628.3117,675.8405 L1628.3117,678.5631 Q1627.6809,677.9821 1627.0874,677.7123 Q1626.4939,677.4425 1625.863,677.4425 Q1624.5183,677.4425 1623.8335,678.5092 Q1623.1487,679.5758 1623.1487,681.6759 Q1623.1487,683.7677 1623.8335,684.8344 Q1624.5183,685.901 1625.863,685.901 Q1626.4939,685.901 1627.0874,685.6312 Q1627.6809,685.3615 1628.3117,684.7804 Z " fill="#000000"/><text fill="#000000" font-family="sans-serif" font-size="14" lengthAdjust="spacing" textLength="136.4453" x="1644.2094" y="687.151">DesktopMicrophone</text><line style="stroke:#181818;stroke-width:0.5;" x1="1589.42" x2="1804.5733" y1="697.86" y2="697.86"/><rect fill="none" height="6" style="stroke:#C82930;stroke-width:1.0;" width="6" x="1596.42" y="708.6041"/><text fill="#000000" font-family="sans-serif" font-size="14" lengthAdjust="spacing" textLength="191.1533" x="1608.42" y="715.3952">Int MIC_SAMPLE_SIZE_IN_BIT</text><rect fill="none" height="6" style="stroke:#C82930;stroke-width:1.0;" width="6" x="1596.42" y="725.0924"/><text fill="#000000" font-family="sans-serif" font-size="14" lengthAdjust="spacing" textLength="172.293" x="1608.42" y="731.8834">Int MIC_AUDIO_CHANNEL</text><rect fill="none" height="6" style="stroke:#C82930;stroke-width:1.0;" width="6" x="1596.42" y="741.5807"/><text fill="#000000" font-family="sans-serif" font-size="14" lengthAdjust="spacing" textLength="164.3291" x="1608.42" y="748.3717">Float MIC_SAMPLE_RATE</text><line style="stroke:#181818;stroke-width:0.5;" x1="1589.42" x2="1804.5733" y1="755.3248" y2="755.3248"/><ellipse cx="1599.42" cy="769.069" fill="#84BE84" rx="3" ry="3" style="stroke:#038048;stroke-width:1.0;"/><text fill="#000000" font-family="sans-serif" font-size="14" lengthAdjust="spacing" textLength="136.4111" x="1608.42" y="772.86">InputStream? build()</text></g><!--class Speech2TextStreamBuilder--><g id="elem_Speech2TextStreamBuilder"><rect  fill="#F1F1F1" height="64.4883" id="Speech2TextStreamBuilder" rx="2.5" ry="2.5" style="stroke:#181818;stroke-width:0.5;" width="213.4189" x="1592.29" y="417.71"/><ellipse cx="1607.29" cy="433.71" fill="#B4A7E5" rx="11" ry="11" style="stroke:#181818;stroke-width:1.0;"/><path d="M1603.2177,429.4751 L1603.2177,427.3169 L1610.5971,427.3169 L1610.5971,429.4751 L1608.1318,429.4751 L1608.1318,437.5518 L1610.5971,437.5518 L1610.5971,439.71 L1603.2177,439.71 L1603.2177,437.5518 L1605.6831,437.5518 L1605.6831,429.4751 Z " fill="#000000"/><text fill="#000000" font-family="sans-serif" font-size="14" font-style="italic" lengthAdjust="spacing" textLength="181.4189" x="1621.29" y="439.001">Speech2TextStreamBuilder</text><line style="stroke:#181818;stroke-width:0.5;" x1="1593.29" x2="1804.7089" y1="449.71" y2="449.71"/><line style="stroke:#181818;stroke-width:0.5;" x1="1593.29" x2="1804.7089" y1="457.71" y2="457.71"/><ellipse cx="1603.29" cy="471.4541" fill="#84BE84" rx="3" ry="3" style="stroke:#038048;stroke-width:1.0;"/><text fill="#000000" font-family="sans-serif" font-size="14" lengthAdjust="spacing" textLength="136.4111" x="1612.29" y="475.2452">InputStream? build()</text></g><!--class Transcription$Companion--><g id="elem_Transcription$Companion"><rect  fill="#F1F1F1" height="97.4648" id="Transcription$Companion" rx="2.5" ry="2.5" style="stroke:#181818;stroke-width:0.5;" width="209.2422" x="846.38" y="1037.67"/><ellipse cx="861.38" cy="1053.67" fill="#ADD1B2" rx="11" ry="11" style="stroke:#181818;stroke-width:1.0;"/><path d="M864.3531,1059.3131 Q863.7721,1059.6119 863.1329,1059.7613 Q862.4938,1059.9107 861.7882,1059.9107 Q859.2814,1059.9107 857.9615,1058.2589 Q856.6417,1056.607 856.6417,1053.4859 Q856.6417,1050.3565 857.9615,1048.7047 Q859.2814,1047.0528 861.7882,1047.0528 Q862.4938,1047.0528 863.1412,1047.2022 Q863.7887,1047.3516 864.3531,1047.6505 L864.3531,1050.3731 Q863.7223,1049.7921 863.1288,1049.5223 Q862.5353,1049.2525 861.9044,1049.2525 Q860.5597,1049.2525 859.8749,1050.3192 Q859.1901,1051.3858 859.1901,1053.4859 Q859.1901,1055.5777 859.8749,1056.6444 Q860.5597,1057.711 861.9044,1057.711 Q862.5353,1057.711 863.1288,1057.4412 Q863.7223,1057.1715 864.3531,1056.5904 Z " fill="#000000"/><text fill="#000000" font-family="sans-serif" font-size="14" lengthAdjust="spacing" textLength="177.2422" x="875.38" y="1058.961">Transcription$Companion</text><line style="stroke:#181818;stroke-width:0.5;" x1="847.38" x2="1054.6222" y1="1069.67" y2="1069.67"/><ellipse cx="857.38" cy="1083.4141" fill="none" rx="3" ry="3" style="stroke:#038048;stroke-width:1.0;"/><text fill="#000000" font-family="sans-serif" font-size="14" lengthAdjust="spacing" textLength="112.2529" x="866.38" y="1087.2052">UNKNOWN_TIME</text><ellipse cx="857.38" cy="1099.9024" fill="none" rx="3" ry="3" style="stroke:#038048;stroke-width:1.0;"/><text fill="#000000" font-family="sans-serif" font-size="14" lengthAdjust="spacing" textLength="167.8564" x="866.38" y="1103.6934">UNKNOWN_CONFIDENCE</text><ellipse cx="857.38" cy="1116.3907" fill="none" rx="3" ry="3" style="stroke:#038048;stroke-width:1.0;"/><text fill="#000000" font-family="sans-serif" font-size="14" lengthAdjust="spacing" textLength="141.8115" x="866.38" y="1120.1817">UNKNOWN_MESSAGE</text><line style="stroke:#181818;stroke-width:0.5;" x1="847.38" x2="1054.6222" y1="1127.1348" y2="1127.1348"/></g><!--class Transcription--><g id="elem_Transcription"><rect  fill="#F1F1F1" height="245.8594" id="Transcription" rx="2.5" ry="2.5" style="stroke:#181818;stroke-width:0.5;" width="401.71" x="750.15" y="599.9"/><ellipse cx="901.5216" cy="615.9" fill="#ADD1B2" rx="11" ry="11" style="stroke:#181818;stroke-width:1.0;"/><path d="M904.4947,621.5431 Q903.9137,621.8419 903.2745,621.9913 Q902.6354,622.1407 901.9298,622.1407 Q899.4229,622.1407 898.1031,620.4889 Q896.7833,618.837 896.7833,615.7159 Q896.7833,612.5865 898.1031,610.9347 Q899.4229,609.2828 901.9298,609.2828 Q902.6354,609.2828 903.2828,609.4322 Q903.9303,609.5816 904.4947,609.8805 L904.4947,612.6031 Q903.8639,612.0221 903.2704,611.7523 Q902.6769,611.4825 902.046,611.4825 Q900.7013,611.4825 900.0165,612.5492 Q899.3316,613.6158 899.3316,615.7159 Q899.3316,617.8077 900.0165,618.8744 Q900.7013,619.941 902.046,619.941 Q902.6769,619.941 903.2704,619.6712 Q903.8639,619.4015 904.4947,618.8204 Z " fill="#000000"/><text fill="#000000" font-family="sans-serif" font-size="14" lengthAdjust="spacing" textLength="90.4668" x="922.0216" y="621.191">Transcription</text><line style="stroke:#181818;stroke-width:0.5;" x1="751.15" x2="1150.86" y1="631.9" y2="631.9"/><rect fill="none" height="6" style="stroke:#C82930;stroke-width:1.0;" width="6" x="758.15" y="642.6441"/><text fill="#000000" font-family="sans-serif" font-size="14" lengthAdjust="spacing" textLength="106.5791" x="770.15" y="649.4352">messageBuilder</text><ellipse cx="761.15" cy="662.1324" fill="none" rx="3" ry="3" style="stroke:#038048;stroke-width:1.0;"/><text fill="#000000" font-family="sans-serif" font-size="14" lengthAdjust="spacing" textLength="103.8037" x="770.15" y="665.9234">String message</text><ellipse cx="761.15" cy="678.6207" fill="none" rx="3" ry="3" style="stroke:#038048;stroke-width:1.0;"/><text fill="#000000" font-family="sans-serif" font-size="14" lengthAdjust="spacing" textLength="126.7861" x="770.15" y="682.4117">Double confidence</text><ellipse cx="761.15" cy="695.109" fill="none" rx="3" ry="3" style="stroke:#038048;stroke-width:1.0;"/><text fill="#000000" font-family="sans-serif" font-size="14" lengthAdjust="spacing" textLength="102.751" x="770.15" y="698.9">Long startTime</text><ellipse cx="761.15" cy="711.5973" fill="none" rx="3" ry="3" style="stroke:#038048;stroke-width:1.0;"/><text fill="#000000" font-family="sans-serif" font-size="14" lengthAdjust="spacing" textLength="96.9814" x="770.15" y="715.3883">Long endTime</text><ellipse cx="761.15" cy="728.0855" fill="none" rx="3" ry="3" style="stroke:#038048;stroke-width:1.0;"/><text fill="#000000" font-family="sans-serif" font-size="14" lengthAdjust="spacing" textLength="114.8369" x="770.15" y="731.8766">String sourceTag</text><line style="stroke:#181818;stroke-width:0.5;" x1="751.15" x2="1150.86" y1="738.8297" y2="738.8297"/><ellipse cx="761.15" cy="752.5738" fill="#84BE84" rx="3" ry="3" style="stroke:#038048;stroke-width:1.0;"/><text fill="#000000" font-family="sans-serif" font-size="14" lengthAdjust="spacing" textLength="375.71" x="770.15" y="756.3648">&#171;Create&#187; Transcription(String,Double,Long,Long,String)</text><ellipse cx="761.15" cy="769.0621" fill="#84BE84" rx="3" ry="3" style="stroke:#038048;stroke-width:1.0;"/><text fill="#000000" font-family="sans-serif" font-size="14" lengthAdjust="spacing" textLength="175.834" x="770.15" y="772.8531">void merge(Transcription)</text><ellipse cx="761.15" cy="785.5504" fill="#84BE84" rx="3" ry="3" style="stroke:#038048;stroke-width:1.0;"/><text fill="#000000" font-family="sans-serif" font-size="14" lengthAdjust="spacing" textLength="75.9404" x="770.15" y="789.3414">void reset()</text><ellipse cx="761.15" cy="802.0387" fill="#84BE84" rx="3" ry="3" style="stroke:#038048;stroke-width:1.0;"/><text fill="#000000" font-family="sans-serif" font-size="14" lengthAdjust="spacing" textLength="142.8369" x="770.15" y="805.8297">Boolean equals(Any?)</text><ellipse cx="761.15" cy="818.527" fill="#84BE84" rx="3" ry="3" style="stroke:#038048;stroke-width:1.0;"/><text fill="#000000" font-family="sans-serif" font-size="14" lengthAdjust="spacing" textLength="98.6357" x="770.15" y="822.318">Int hashCode()</text><ellipse cx="761.15" cy="835.0152" fill="#84BE84" rx="3" ry="3" style="stroke:#038048;stroke-width:1.0;"/><text fill="#000000" font-family="sans-serif" font-size="14" lengthAdjust="spacing" textLength="107.3105" x="770.15" y="838.8063">String toString()</text></g><!--class Speech2Text--><g id="elem_Speech2Text"><rect  fill="#F1F1F1" height="113.9531" id="Speech2Text" rx="2.5" ry="2.5" style="stroke:#181818;stroke-width:0.5;" width="366.7441" x="1186.63" y="665.86"/><ellipse cx="1322.1832" cy="681.86" fill="#A9DCDF" rx="11" ry="11" style="stroke:#181818;stroke-width:1.0;"/><path d="M1322.2965,677.2081 L1321.1427,682.2799 L1323.4586,682.2799 Z M1320.8024,674.9669 L1323.7989,674.9669 L1327.1442,687.36 L1324.6954,687.36 L1323.9318,684.297 L1320.6529,684.297 L1319.9059,687.36 L1317.4571,687.36 Z " fill="#000000"/><text fill="#000000" font-family="sans-serif" font-size="14" font-style="italic" lengthAdjust="spacing" textLength="87.1377" x="1342.6832" y="687.151">Speech2Text</text><line style="stroke:#181818;stroke-width:0.5;" x1="1187.63" x2="1552.3741" y1="697.86" y2="697.86"/><ellipse cx="1197.63" cy="711.6041" fill="none" rx="3" ry="3" style="stroke:#038048;stroke-width:1.0;"/><text fill="#000000" font-family="sans-serif" font-size="14" lengthAdjust="spacing" textLength="123.5938" x="1206.63" y="715.3952">onResultCallbacks</text><ellipse cx="1197.63" cy="728.0924" fill="none" rx="3" ry="3" style="stroke:#038048;stroke-width:1.0;"/><text fill="#000000" font-family="sans-serif" font-size="14" lengthAdjust="spacing" textLength="198.666" x="1206.63" y="731.8834">onStartTranscribingCallbacks</text><line style="stroke:#181818;stroke-width:0.5;" x1="1187.63" x2="1552.3741" y1="738.8366" y2="738.8366"/><ellipse cx="1197.63" cy="752.5807" fill="#84BE84" rx="3" ry="3" style="stroke:#038048;stroke-width:1.0;"/><text fill="#000000" font-family="sans-serif" font-size="14" lengthAdjust="spacing" textLength="340.7441" x="1206.63" y="756.3717">&#171;Create&#187; Speech2Text(Speech2TextStreamBuilder)</text><ellipse cx="1197.63" cy="769.069" fill="#84BE84" rx="3" ry="3" style="stroke:#038048;stroke-width:1.0;"/><text fill="#000000" font-family="sans-serif" font-size="14" lengthAdjust="spacing" textLength="308.4443" x="1206.63" y="772.86">void computeAsync(FrequentTimeout?,String)</text></g><!--class AwsTranscribe$Companion--><g id="elem_AwsTranscribe$Companion"><rect  fill="#F1F1F1" height="146.9297" id="AwsTranscribe$Companion" rx="2.5" ry="2.5" style="stroke:#181818;stroke-width:0.5;" width="301.5088" x="1219.25" y="1327.04"/><ellipse cx="1272.7275" cy="1343.04" fill="#ADD1B2" rx="11" ry="11" style="stroke:#181818;stroke-width:1.0;"/><path d="M1275.7007,1348.6831 Q1275.1196,1348.9819 1274.4805,1349.1313 Q1273.8413,1349.2807 1273.1357,1349.2807 Q1270.6289,1349.2807 1269.3091,1347.6289 Q1267.9893,1345.977 1267.9893,1342.8559 Q1267.9893,1339.7265 1269.3091,1338.0747 Q1270.6289,1336.4228 1273.1357,1336.4228 Q1273.8413,1336.4228 1274.4888,1336.5722 Q1275.1362,1336.7216 1275.7007,1337.0205 L1275.7007,1339.7431 Q1275.0698,1339.1621 1274.4763,1338.8923 Q1273.8828,1338.6225 1273.252,1338.6225 Q1271.9072,1338.6225 1271.2224,1339.6892 Q1270.5376,1340.7558 1270.5376,1342.8559 Q1270.5376,1344.9477 1271.2224,1346.0144 Q1271.9072,1347.081 1273.252,1347.081 Q1273.8828,1347.081 1274.4763,1346.8112 Q1275.0698,1346.5415 1275.7007,1345.9604 Z " fill="#000000"/><text fill="#000000" font-family="sans-serif" font-size="14" lengthAdjust="spacing" textLength="186.0537" x="1293.2275" y="1348.331">AwsTranscribe$Companion</text><line style="stroke:#181818;stroke-width:0.5;" x1="1220.25" x2="1519.7588" y1="1359.04" y2="1359.04"/><rect fill="none" height="6" style="stroke:#C82930;stroke-width:1.0;" width="6" x="1227.25" y="1369.7841"/><text fill="#000000" font-family="sans-serif" font-size="14" lengthAdjust="spacing" textLength="120.2852" x="1239.25" y="1376.5752">LANGUAGE_CODE</text><rect fill="none" height="6" style="stroke:#C82930;stroke-width:1.0;" width="6" x="1227.25" y="1386.2724"/><text fill="#000000" font-family="sans-serif" font-size="14" lengthAdjust="spacing" textLength="266.2188" x="1239.25" y="1393.0634">AUDIO_STREAM_CHUNK_SIZE_IN_BYTES</text><rect fill="none" height="6" style="stroke:#C82930;stroke-width:1.0;" width="6" x="1227.25" y="1402.7607"/><text fill="#000000" font-family="sans-serif" font-size="14" lengthAdjust="spacing" textLength="94.001" x="1239.25" y="1409.5517">SAMPLE_RATE</text><rect fill="none" height="6" style="stroke:#C82930;stroke-width:1.0;" width="6" x="1227.25" y="1419.249"/><text fill="#000000" font-family="sans-serif" font-size="14" lengthAdjust="spacing" textLength="124.2979" x="1239.25" y="1426.04">MEDIA_ENCODING</text><rect fill="none" height="6" style="stroke:#C82930;stroke-width:1.0;" width="6" x="1227.25" y="1435.7373"/><text fill="#000000" font-family="sans-serif" font-size="14" lengthAdjust="spacing" textLength="275.5088" x="1239.25" y="1442.5283">MINIMUM_WORDS_FOR_PARTIAL_RESULT</text><rect fill="none" height="6" style="stroke:#C82930;stroke-width:1.0;" width="6" x="1227.25" y="1452.2255"/><text fill="#000000" font-family="sans-serif" font-size="14" lengthAdjust="spacing" textLength="229.8926" x="1239.25" y="1459.0166">TRANSCRIPTION_BUFFERING_TIME</text><line style="stroke:#181818;stroke-width:0.5;" x1="1220.25" x2="1519.7588" y1="1465.9697" y2="1465.9697"/></g><!--class AwsTranscribe--><g id="elem_AwsTranscribe"><rect  fill="#F1F1F1" height="361.2773" id="AwsTranscribe" rx="2.5" ry="2.5" style="stroke:#181818;stroke-width:0.5;" width="398.8594" x="1170.57" y="905.76"/><ellipse cx="1316.1105" cy="921.76" fill="#ADD1B2" rx="11" ry="11" style="stroke:#181818;stroke-width:1.0;"/><path d="M1319.0837,927.4031 Q1318.5026,927.7019 1317.8635,927.8513 Q1317.2243,928.0007 1316.5187,928.0007 Q1314.0119,928.0007 1312.6921,926.3489 Q1311.3722,924.697 1311.3722,921.5759 Q1311.3722,918.4465 1312.6921,916.7947 Q1314.0119,915.1428 1316.5187,915.1428 Q1317.2243,915.1428 1317.8718,915.2922 Q1318.5192,915.4416 1319.0837,915.7405 L1319.0837,918.4631 Q1318.4528,917.8821 1317.8593,917.6123 Q1317.2658,917.3425 1316.6349,917.3425 Q1315.2902,917.3425 1314.6054,918.4092 Q1313.9206,919.4758 1313.9206,921.5759 Q1313.9206,923.6677 1314.6054,924.7344 Q1315.2902,925.801 1316.6349,925.801 Q1317.2658,925.801 1317.8593,925.5312 Q1318.4528,925.2615 1319.0837,924.6804 Z " fill="#000000"/><text fill="#000000" font-family="sans-serif" font-size="14" lengthAdjust="spacing" textLength="99.2783" x="1336.6105" y="927.051">AwsTranscribe</text><line style="stroke:#181818;stroke-width:0.5;" x1="1171.57" x2="1568.4294" y1="937.76" y2="937.76"/><rect fill="none" height="6" style="stroke:#C82930;stroke-width:1.0;" width="6" x="1178.57" y="948.5041"/><text fill="#000000" font-family="sans-serif" font-size="14" lengthAdjust="spacing" textLength="267.0664" x="1190.57" y="955.2952">TranscribeStreamingAsyncClient? client</text><rect fill="none" height="6" style="stroke:#C82930;stroke-width:1.0;" width="6" x="1178.57" y="964.9924"/><text fill="#000000" font-family="sans-serif" font-size="14" lengthAdjust="spacing" textLength="284.9082" x="1190.57" y="971.7834">StartStreamTranscriptionRequest? request</text><rect fill="none" height="6" style="stroke:#C82930;stroke-width:1.0;" width="6" x="1178.57" y="981.4807"/><text fill="#000000" font-family="sans-serif" font-size="14" lengthAdjust="spacing" textLength="282.3379" x="1190.57" y="988.2717">CompletableFuture&lt;Void&gt;? transcribeJob</text><rect fill="none" height="6" style="stroke:#C82930;stroke-width:1.0;" width="6" x="1178.57" y="997.969"/><text fill="#000000" font-family="sans-serif" font-size="14" lengthAdjust="spacing" textLength="153.2549" x="1190.57" y="1004.76">bufferingTranscription</text><rect fill="none" height="6" style="stroke:#C82930;stroke-width:1.0;" width="6" x="1178.57" y="1014.4573"/><text fill="#000000" font-family="sans-serif" font-size="14" lengthAdjust="spacing" textLength="110.6602" x="1190.57" y="1021.2483">Job? mergingJob</text><rect fill="none" height="6" style="stroke:#C82930;stroke-width:1.0;" width="6" x="1178.57" y="1030.9455"/><text fill="#000000" font-family="sans-serif" font-size="14" lengthAdjust="spacing" textLength="194.0449" x="1190.57" y="1037.7366">Long? audioStreamStartTime</text><rect fill="none" height="6" style="stroke:#C82930;stroke-width:1.0;" width="6" x="1178.57" y="1047.4338"/><text fill="#000000" font-family="sans-serif" font-size="14" lengthAdjust="spacing" textLength="138.9678" x="1190.57" y="1054.2248">userStartedSpeaking</text><rect fill="none" height="6" style="stroke:#C82930;stroke-width:1.0;" width="6" x="1178.57" y="1063.9221"/><text fill="#000000" font-family="sans-serif" font-size="14" lengthAdjust="spacing" textLength="102.0537" x="1190.57" y="1070.7131">userIsSpeaking</text><ellipse cx="1181.57" cy="1083.4104" fill="none" rx="3" ry="3" style="stroke:#038048;stroke-width:1.0;"/><text fill="#000000" font-family="sans-serif" font-size="14" lengthAdjust="spacing" textLength="114.8369" x="1190.57" y="1087.2014">String sourceTag</text><line style="stroke:#181818;stroke-width:0.5;" x1="1171.57" x2="1568.4294" y1="1094.1545" y2="1094.1545"/><ellipse cx="1181.57" cy="1107.8987" fill="#84BE84" rx="3" ry="3" style="stroke:#038048;stroke-width:1.0;"/><text fill="#000000" font-family="sans-serif" font-size="14" lengthAdjust="spacing" textLength="352.8848" x="1190.57" y="1111.6897">&#171;Create&#187; AwsTranscribe(Speech2TextStreamBuilder)</text><rect fill="#F24D5C" height="6" style="stroke:#C82930;stroke-width:1.0;" width="6" x="1178.57" y="1121.387"/><text fill="#000000" font-family="sans-serif" font-size="14" lengthAdjust="spacing" textLength="294.7998" x="1190.57" y="1128.178">TranscribeStreamingAsyncClient initClient()</text><rect fill="#F24D5C" height="6" style="stroke:#C82930;stroke-width:1.0;" width="6" x="1178.57" y="1137.8752"/><text fill="#000000" font-family="sans-serif" font-size="14" lengthAdjust="spacing" textLength="313.25" x="1190.57" y="1144.6663">StartStreamTranscriptionRequest initRequest()</text><ellipse cx="1181.57" cy="1157.3635" fill="#84BE84" rx="3" ry="3" style="stroke:#038048;stroke-width:1.0;"/><text fill="#000000" font-family="sans-serif" font-size="14" lengthAdjust="spacing" textLength="153.7471" x="1190.57" y="1161.1545">void doActivate(String)</text><ellipse cx="1181.57" cy="1173.8518" fill="#84BE84" rx="3" ry="3" style="stroke:#038048;stroke-width:1.0;"/><text fill="#000000" font-family="sans-serif" font-size="14" lengthAdjust="spacing" textLength="233.584" x="1190.57" y="1177.6428">void doComputeAsync(Unit,String)</text><rect fill="#F24D5C" height="6" style="stroke:#C82930;stroke-width:1.0;" width="6" x="1178.57" y="1187.3401"/><text fill="#000000" font-family="sans-serif" font-size="14" lengthAdjust="spacing" textLength="181.9248" x="1190.57" y="1194.1311">void getResponseHandler()</text><rect fill="#F24D5C" height="6" style="stroke:#C82930;stroke-width:1.0;" width="6" x="1178.57" y="1203.8284"/><text fill="#000000" font-family="sans-serif" font-size="14" lengthAdjust="spacing" textLength="372.8594" x="1190.57" y="1210.6194">List&lt;Transcription&gt; parseTranscriptions(List&lt;Result&gt;)</text><rect fill="#F24D5C" height="6" style="stroke:#C82930;stroke-width:1.0;" width="6" x="1178.57" y="1220.3166"/><text fill="#000000" font-family="sans-serif" font-size="14" lengthAdjust="spacing" textLength="273.5127" x="1190.57" y="1227.1077">void handleTranscriptions(List&lt;Result&gt;)</text><ellipse cx="1181.57" cy="1239.8049" fill="#84BE84" rx="3" ry="3" style="stroke:#038048;stroke-width:1.0;"/><text fill="#000000" font-family="sans-serif" font-size="14" lengthAdjust="spacing" textLength="129.8076" x="1190.57" y="1243.5959">void doStop(String)</text><ellipse cx="1181.57" cy="1256.2932" fill="#84BE84" rx="3" ry="3" style="stroke:#038048;stroke-width:1.0;"/><text fill="#000000" font-family="sans-serif" font-size="14" lengthAdjust="spacing" textLength="170.1055" x="1190.57" y="1260.0842">void doDeactivate(String)</text></g><!--class AudioStreamPublisher$Companion--><g id="elem_AudioStreamPublisher$Companion"><rect  fill="#F1F1F1" height="97.4648" id="AudioStreamPublisher$Companion" rx="2.5" ry="2.5" style="stroke:#181818;stroke-width:0.5;" width="284.3506" x="181.82" y="674.1"/><ellipse cx="204.0099" cy="690.1" fill="#ADD1B2" rx="11" ry="11" style="stroke:#181818;stroke-width:1.0;"/><path d="M206.983,695.7431 Q206.402,696.0419 205.7628,696.1913 Q205.1237,696.3407 204.4181,696.3407 Q201.9113,696.3407 200.5914,694.6889 Q199.2716,693.037 199.2716,689.9159 Q199.2716,686.7865 200.5914,685.1347 Q201.9113,683.4828 204.4181,683.4828 Q205.1237,683.4828 205.7711,683.6322 Q206.4186,683.7816 206.983,684.0805 L206.983,686.8031 Q206.3522,686.2221 205.7587,685.9523 Q205.1652,685.6825 204.5343,685.6825 Q203.1896,685.6825 202.5048,686.7492 Q201.82,687.8158 201.82,689.9159 Q201.82,692.0077 202.5048,693.0744 Q203.1896,694.141 204.5343,694.141 Q205.1652,694.141 205.7587,693.8712 Q206.3522,693.6015 206.983,693.0204 Z " fill="#000000"/><text fill="#000000" font-family="sans-serif" font-size="14" lengthAdjust="spacing" textLength="236.373" x="219.6076" y="695.391">AudioStreamPublisher$Companion</text><line style="stroke:#181818;stroke-width:0.5;" x1="182.82" x2="465.1706" y1="706.1" y2="706.1"/><rect fill="none" height="6" style="stroke:#C82930;stroke-width:1.0;" width="6" x="189.82" y="716.8441"/><text fill="#000000" font-family="sans-serif" font-size="14" lengthAdjust="spacing" textLength="258.3506" x="201.82" y="723.6352">SubscriptionImpl? currentSubscription</text><rect fill="none" height="6" style="stroke:#C82930;stroke-width:1.0;" width="6" x="189.82" y="733.3324"/><text fill="#000000" font-family="sans-serif" font-size="14" lengthAdjust="spacing" textLength="43.3809" x="201.82" y="740.1234">mutex</text><line style="stroke:#181818;stroke-width:0.5;" x1="182.82" x2="465.1706" y1="747.0766" y2="747.0766"/><ellipse cx="192.82" cy="760.8207" fill="#84BE84" rx="3" ry="3" style="stroke:#038048;stroke-width:1.0;"/><text fill="#000000" font-family="sans-serif" font-size="14" lengthAdjust="spacing" textLength="72.0234" x="201.82" y="764.6117">void stop()</text></g><!--class AudioStreamPublisher--><g id="elem_AudioStreamPublisher"><rect  fill="#F1F1F1" height="80.9766" id="AudioStreamPublisher" rx="2.5" ry="2.5" style="stroke:#181818;stroke-width:0.5;" width="459.4326" x="94.28" y="409.46"/><ellipse cx="244.9475" cy="425.46" fill="#ADD1B2" rx="11" ry="11" style="stroke:#181818;stroke-width:1.0;"/><path d="M247.9206,431.1031 Q247.3396,431.4019 246.7004,431.5513 Q246.0613,431.7007 245.3557,431.7007 Q242.8488,431.7007 241.529,430.0489 Q240.2092,428.397 240.2092,425.2759 Q240.2092,422.1465 241.529,420.4947 Q242.8488,418.8428 245.3557,418.8428 Q246.0613,418.8428 246.7087,418.9922 Q247.3562,419.1416 247.9206,419.4405 L247.9206,422.1631 Q247.2898,421.5821 246.6963,421.3123 Q246.1028,421.0425 245.4719,421.0425 Q244.1272,421.0425 243.4424,422.1092 Q242.7575,423.1758 242.7575,425.2759 Q242.7575,427.3677 243.4424,428.4344 Q244.1272,429.501 245.4719,429.501 Q246.1028,429.501 246.6963,429.2312 Q247.2898,428.9615 247.9206,428.3804 Z " fill="#000000"/><text fill="#000000" font-family="sans-serif" font-size="14" lengthAdjust="spacing" textLength="149.5977" x="265.4475" y="430.751">AudioStreamPublisher</text><line style="stroke:#181818;stroke-width:0.5;" x1="95.28" x2="552.7126" y1="441.46" y2="441.46"/><line style="stroke:#181818;stroke-width:0.5;" x1="95.28" x2="552.7126" y1="449.46" y2="449.46"/><ellipse cx="105.28" cy="463.2041" fill="#84BE84" rx="3" ry="3" style="stroke:#038048;stroke-width:1.0;"/><text fill="#000000" font-family="sans-serif" font-size="14" lengthAdjust="spacing" textLength="433.4326" x="114.28" y="466.9952">&#171;Create&#187; AudioStreamPublisher(InputStream,CentralizedLogger)</text><ellipse cx="105.28" cy="479.6924" fill="#84BE84" rx="3" ry="3" style="stroke:#038048;stroke-width:1.0;"/><text fill="#000000" font-family="sans-serif" font-size="14" lengthAdjust="spacing" textLength="311.2744" x="114.28" y="483.4834">void subscribe(Subscriber&lt;in AudioStream?&gt;)</text></g><!--class SubscriptionImpl--><g id="elem_SubscriptionImpl"><rect  fill="#F1F1F1" height="179.9063" id="SubscriptionImpl" rx="2.5" ry="2.5" style="stroke:#181818;stroke-width:0.5;" width="632.4365" x="588.78" y="360"/><ellipse cx="843.5144" cy="376" fill="#ADD1B2" rx="11" ry="11" style="stroke:#181818;stroke-width:1.0;"/><path d="M846.4875,381.6431 Q845.9065,381.9419 845.2673,382.0913 Q844.6281,382.2407 843.9226,382.2407 Q841.4157,382.2407 840.0959,380.5889 Q838.7761,378.937 838.7761,375.8159 Q838.7761,372.6865 840.0959,371.0347 Q841.4157,369.3828 843.9226,369.3828 Q844.6281,369.3828 845.2756,369.5322 Q845.9231,369.6816 846.4875,369.9805 L846.4875,372.7031 Q845.8567,372.1221 845.2632,371.8523 Q844.6696,371.5825 844.0388,371.5825 Q842.6941,371.5825 842.0092,372.6492 Q841.3244,373.7158 841.3244,375.8159 Q841.3244,377.9077 842.0092,378.9744 Q842.6941,380.041 844.0388,380.041 Q844.6696,380.041 845.2632,379.7712 Q845.8567,379.5015 846.4875,378.9204 Z " fill="#000000"/><text fill="#000000" font-family="sans-serif" font-size="14" lengthAdjust="spacing" textLength="114.4678" x="864.0144" y="381.291">SubscriptionImpl</text><line style="stroke:#181818;stroke-width:0.5;" x1="589.78" x2="1220.2165" y1="392" y2="392"/><rect fill="none" height="6" style="stroke:#C82930;stroke-width:1.0;" width="6" x="596.78" y="402.7441"/><text fill="#000000" font-family="sans-serif" font-size="14" lengthAdjust="spacing" textLength="170.7686" x="608.78" y="409.5352">ExecutorService executor</text><rect fill="none" height="6" style="stroke:#C82930;stroke-width:1.0;" width="6" x="596.78" y="419.2324"/><text fill="#000000" font-family="sans-serif" font-size="14" lengthAdjust="spacing" textLength="54.9131" x="608.78" y="426.0234">demand</text><rect fill="none" height="6" style="stroke:#C82930;stroke-width:1.0;" width="6" x="596.78" y="435.7207"/><text fill="#000000" font-family="sans-serif" font-size="14" lengthAdjust="spacing" textLength="47.3594" x="608.78" y="442.5117">isOpen</text><line style="stroke:#181818;stroke-width:0.5;" x1="589.78" x2="1220.2165" y1="449.4648" y2="449.4648"/><rect fill="#F24D5C" height="6" style="stroke:#C82930;stroke-width:1.0;" width="6" x="596.78" y="460.209"/><text fill="#000000" font-family="sans-serif" font-size="14" lengthAdjust="spacing" textLength="606.4365" x="608.78" y="467">&#171;Create&#187; SubscriptionImpl(Subscriber&lt;in AudioStream?&gt;,InputStream,CentralizedLogger)</text><rect fill="#F24D5C" height="6" style="stroke:#C82930;stroke-width:1.0;" width="6" x="596.78" y="476.6973"/><text fill="#000000" font-family="sans-serif" font-size="14" lengthAdjust="spacing" textLength="172.792" x="608.78" y="483.4883">ByteBuffer getNextEvent()</text><ellipse cx="599.78" cy="496.1855" fill="#84BE84" rx="3" ry="3" style="stroke:#038048;stroke-width:1.0;"/><text fill="#000000" font-family="sans-serif" font-size="14" lengthAdjust="spacing" textLength="126.9229" x="608.78" y="499.9766">void request(Long)</text><ellipse cx="599.78" cy="512.6738" fill="#84BE84" rx="3" ry="3" style="stroke:#038048;stroke-width:1.0;"/><text fill="#000000" font-family="sans-serif" font-size="14" lengthAdjust="spacing" textLength="84.8477" x="608.78" y="516.4648">void cancel()</text><ellipse cx="599.78" cy="529.1621" fill="#84BE84" rx="3" ry="3" style="stroke:#038048;stroke-width:1.0;"/><text fill="#000000" font-family="sans-serif" font-size="14" lengthAdjust="spacing" textLength="72.0234" x="608.78" y="532.9531">void stop()</text></g><!--class CallbackInput--><g id="elem_CallbackInput"><rect fill="#F1F1F1" height="48" id="CallbackInput" rx="2.5" ry="2.5" style="stroke:#181818;stroke-width:0.5;" width="124.8662" x="1256.57" y="425.95"/><ellipse cx="1271.57" cy="441.95" fill="#ADD1B2" rx="11" ry="11" style="stroke:#181818;stroke-width:1.0;"/><path d="M1274.5431,447.5931 Q1273.9621,447.8919 1273.3229,448.0413 Q1272.6838,448.1907 1271.9782,448.1907 Q1269.4714,448.1907 1268.1515,446.5389 Q1266.8317,444.887 1266.8317,441.7659 Q1266.8317,438.6365 1268.1515,436.9847 Q1269.4714,435.3328 1271.9782,435.3328 Q1272.6838,435.3328 1273.3312,435.4822 Q1273.9787,435.6316 1274.5431,435.9305 L1274.5431,438.6531 Q1273.9123,438.0721 1273.3188,437.8023 Q1272.7253,437.5325 1272.0944,437.5325 Q1270.7497,437.5325 1270.0649,438.5992 Q1269.3801,439.6658 1269.3801,441.7659 Q1269.3801,443.8577 1270.0649,444.9244 Q1270.7497,445.991 1272.0944,445.991 Q1272.7253,445.991 1273.3188,445.7212 Q1273.9123,445.4515 1274.5431,444.8704 Z " fill="#000000"/><text fill="#000000" font-family="sans-serif" font-size="14" lengthAdjust="spacing" textLength="92.8662" x="1285.57" y="447.241">CallbackInput</text><line style="stroke:#181818;stroke-width:0.5;" x1="1257.57" x2="1380.4362" y1="457.95" y2="457.95"/><line style="stroke:#181818;stroke-width:0.5;" x1="1257.57" x2="1380.4362" y1="465.95" y2="465.95"/></g><!--class ReusableService--><g id="elem_ReusableService"><rect fill="#F1F1F1" height="48" id="ReusableService" rx="2.5" ry="2.5" style="stroke:#181818;stroke-width:0.5;" width="140.1992" x="1416.9" y="425.95"/><ellipse cx="1431.9" cy="441.95" fill="#ADD1B2" rx="11" ry="11" style="stroke:#181818;stroke-width:1.0;"/><path d="M1434.8731,447.5931 Q1434.2921,447.8919 1433.6529,448.0413 Q1433.0138,448.1907 1432.3082,448.1907 Q1429.8014,448.1907 1428.4815,446.5389 Q1427.1617,444.887 1427.1617,441.7659 Q1427.1617,438.6365 1428.4815,436.9847 Q1429.8014,435.3328 1432.3082,435.3328 Q1433.0138,435.3328 1433.6612,435.4822 Q1434.3087,435.6316 1434.8731,435.9305 L1434.8731,438.6531 Q1434.2423,438.0721 1433.6488,437.8023 Q1433.0553,437.5325 1432.4244,437.5325 Q1431.0797,437.5325 1430.3949,438.5992 Q1429.7101,439.6658 1429.7101,441.7659 Q1429.7101,443.8577 1430.3949,444.9244 Q1431.0797,445.991 1432.4244,445.991 Q1433.0553,445.991 1433.6488,445.7212 Q1434.2423,445.4515 1434.8731,444.8704 Z " fill="#000000"/><text fill="#000000" font-family="sans-serif" font-size="14" lengthAdjust="spacing" textLength="108.1992" x="1445.9" y="447.241">ReusableService</text><line style="stroke:#181818;stroke-width:0.5;" x1="1417.9" x2="1556.0992" y1="457.95" y2="457.95"/><line style="stroke:#181818;stroke-width:0.5;" x1="1417.9" x2="1556.0992" y1="465.95" y2="465.95"/></g><!--class Publisher--><g id="elem_Publisher"><rect fill="#F1F1F1" height="48" id="Publisher" rx="2.5" ry="2.5" style="stroke:#181818;stroke-width:0.5;" width="94.6855" x="496.66" y="84"/><ellipse cx="511.66" cy="100" fill="#ADD1B2" rx="11" ry="11" style="stroke:#181818;stroke-width:1.0;"/><path d="M514.6331,105.6431 Q514.0521,105.9419 513.4129,106.0913 Q512.7738,106.2407 512.0682,106.2407 Q509.5614,106.2407 508.2415,104.5889 Q506.9217,102.937 506.9217,99.8159 Q506.9217,96.6865 508.2415,95.0347 Q509.5614,93.3828 512.0682,93.3828 Q512.7738,93.3828 513.4212,93.5322 Q514.0687,93.6816 514.6331,93.9805 L514.6331,96.7031 Q514.0023,96.1221 513.4088,95.8523 Q512.8153,95.5825 512.1844,95.5825 Q510.8397,95.5825 510.1549,96.6492 Q509.4701,97.7158 509.4701,99.8159 Q509.4701,101.9077 510.1549,102.9744 Q510.8397,104.041 512.1844,104.041 Q512.8153,104.041 513.4088,103.7712 Q514.0023,103.5015 514.6331,102.9204 Z " fill="#000000"/><text fill="#000000" font-family="sans-serif" font-size="14" lengthAdjust="spacing" textLength="62.6855" x="525.66" y="105.291">Publisher</text><line style="stroke:#181818;stroke-width:0.5;" x1="497.66" x2="590.3455" y1="116" y2="116"/><line style="stroke:#181818;stroke-width:0.5;" x1="497.66" x2="590.3455" y1="124" y2="124"/></g><!--class Subscription--><g id="elem_Subscription"><rect fill="#F1F1F1" height="48" id="Subscription" rx="2.5" ry="2.5" style="stroke:#181818;stroke-width:0.5;" width="116.5059" x="626.75" y="84"/><ellipse cx="641.75" cy="100" fill="#ADD1B2" rx="11" ry="11" style="stroke:#181818;stroke-width:1.0;"/><path d="M644.7231,105.6431 Q644.1421,105.9419 643.5029,106.0913 Q642.8638,106.2407 642.1582,106.2407 Q639.6514,106.2407 638.3315,104.5889 Q637.0117,102.937 637.0117,99.8159 Q637.0117,96.6865 638.3315,95.0347 Q639.6514,93.3828 642.1582,93.3828 Q642.8638,93.3828 643.5112,93.5322 Q644.1587,93.6816 644.7231,93.9805 L644.7231,96.7031 Q644.0923,96.1221 643.4988,95.8523 Q642.9053,95.5825 642.2744,95.5825 Q640.9297,95.5825 640.2449,96.6492 Q639.5601,97.7158 639.5601,99.8159 Q639.5601,101.9077 640.2449,102.9744 Q640.9297,104.041 642.2744,104.041 Q642.9053,104.041 643.4988,103.7712 Q644.0923,103.5015 644.7231,102.9204 Z " fill="#000000"/><text fill="#000000" font-family="sans-serif" font-size="14" lengthAdjust="spacing" textLength="84.5059" x="655.75" y="105.291">Subscription</text><line style="stroke:#181818;stroke-width:0.5;" x1="627.75" x2="742.2559" y1="116" y2="116"/><line style="stroke:#181818;stroke-width:0.5;" x1="627.75" x2="742.2559" y1="124" y2="124"/></g><!--reverse link Speech2TextStreamBuilder to DesktopMicrophone--><g id="link_Speech2TextStreamBuilder_DesktopMicrophone"><path  d="M1698.6374,500.5495 C1698.3074,545.3495 1697.83,610.03 1697.42,665.48 " fill="none" id="Speech2TextStreamBuilder-backto-DesktopMicrophone" style="stroke:#181818;stroke-width:1.0;stroke-dasharray:7.0,7.0;"/><polygon fill="none" points="1698.77,482.55,1692.6376,500.5053,1704.6373,500.5937,1698.77,482.55" style="stroke:#181818;stroke-width:1.0;"/></g><!--reverse link Loggable to DesktopMicrophone--><g id="link_Loggable_DesktopMicrophone"><path  d="M1861.3463,488.7601 C1831.7063,530.7901 1778.55,606.17 1736.82,665.36 " fill="none" id="Loggable-backto-DesktopMicrophone" style="stroke:#181818;stroke-width:1.0;"/><polygon fill="none" points="1871.72,474.05,1856.4429,485.3022,1866.2497,492.218,1871.72,474.05" style="stroke:#181818;stroke-width:1.0;"/></g><!--reverse link Transcription to Transcription$Companion--><g id="link_Transcription_Transcription$Companion"><path  d="M951,862.24 C951,927.8 951,988.83 951,1037.39 " fill="none" id="Transcription-backto-Transcription$Companion" style="stroke:#181818;stroke-width:1.0;stroke-dasharray:7.0,7.0;"/><ellipse cx="951" cy="854.24" fill="#FFFFFF" rx="8" ry="8" style="stroke:#181818;stroke-width:1.0;"/><line style="stroke:#181818;stroke-width:1.0;" x1="951" x2="951" y1="862.24" y2="846.24"/><line style="stroke:#181818;stroke-width:1.0;" x1="943" x2="959" y1="854.24" y2="854.24"/></g><!--reverse link CallbackInput to Transcription--><g id="link_CallbackInput_Transcription"><path  d="M1289.8587,488.1381 C1274.5787,507.1081 1262.65,519.95 1239,539.9 C1212.11,562.6 1182.16,584.57 1152.02,604.93 " fill="none" id="CallbackInput-backto-Transcription" style="stroke:#181818;stroke-width:1.0;stroke-dasharray:7.0,7.0;"/><polygon fill="none" points="1301.15,474.12,1285.186,484.3743,1294.5314,491.9018,1301.15,474.12" style="stroke:#181818;stroke-width:1.0;"/></g><!--reverse link ReusableService to Speech2Text--><g id="link_ReusableService_Speech2Text"><path  d="M1469.8839,490.575 C1451.7339,532.605 1419.96,606.17 1394.39,665.36 " fill="none" id="ReusableService-backto-Speech2Text" style="stroke:#181818;stroke-width:1.0;"/><polygon fill="none" points="1477.02,474.05,1464.3756,488.1963,1475.3923,492.9537,1477.02,474.05" style="stroke:#181818;stroke-width:1.0;"/></g><!--reverse link AwsTranscribe to AwsTranscribe$Companion--><g id="link_AwsTranscribe_AwsTranscribe$Companion"><path  d="M1370,1283.15 C1370,1304.15 1370,1308.57 1370,1326.83 " fill="none" id="AwsTranscribe-backto-AwsTranscribe$Companion" style="stroke:#181818;stroke-width:1.0;stroke-dasharray:7.0,7.0;"/><ellipse cx="1370" cy="1275.15" fill="#FFFFFF" rx="8" ry="8" style="stroke:#181818;stroke-width:1.0;"/><line style="stroke:#181818;stroke-width:1.0;" x1="1370" x2="1370" y1="1283.15" y2="1267.15"/><line style="stroke:#181818;stroke-width:1.0;" x1="1362" x2="1378" y1="1275.15" y2="1275.15"/></g><!--reverse link Speech2Text to AwsTranscribe--><g id="link_Speech2Text_AwsTranscribe"><path  d="M1370,797.93 C1370,832.05 1370,859.72 1370,905.33 " fill="none" id="Speech2Text-backto-AwsTranscribe" style="stroke:#181818;stroke-width:1.0;"/><polygon fill="none" points="1370,779.93,1364,797.93,1376,797.93,1370,779.93" style="stroke:#181818;stroke-width:1.0;"/></g><!--reverse link AudioStreamPublisher to AudioStreamPublisher$Companion--><g id="link_AudioStreamPublisher_AudioStreamPublisher$Companion"><path  d="M324,506.92 C324,555.63 324,621.87 324,673.93 " fill="none" id="AudioStreamPublisher-backto-AudioStreamPublisher$Companion" style="stroke:#181818;stroke-width:1.0;stroke-dasharray:7.0,7.0;"/><ellipse cx="324" cy="498.92" fill="#FFFFFF" rx="8" ry="8" style="stroke:#181818;stroke-width:1.0;"/><line style="stroke:#181818;stroke-width:1.0;" x1="324" x2="324" y1="506.92" y2="490.92"/><line style="stroke:#181818;stroke-width:1.0;" x1="316" x2="332" y1="498.92" y2="498.92"/></g><!--reverse link Publisher to AudioStreamPublisher--><g id="link_Publisher_AudioStreamPublisher"><path  d="M519.1002,147.4714 C482.0102,204.7814 396,337.69 349.75,409.17 " fill="none" id="Publisher-backto-AudioStreamPublisher" style="stroke:#181818;stroke-width:1.0;stroke-dasharray:7.0,7.0;"/><polygon fill="none" points="528.88,132.36,514.063,144.2115,524.1373,150.7314,528.88,132.36" style="stroke:#181818;stroke-width:1.0;"/></g><!--reverse link Subscription to SubscriptionImpl--><g id="link_Subscription_SubscriptionImpl"><path  d="M709.8988,147.4721 C739.7488,193.6021 797.87,283.41 847.34,359.86 " fill="none" id="Subscription-backto-SubscriptionImpl" style="stroke:#181818;stroke-width:1.0;stroke-dasharray:7.0,7.0;"/><polygon fill="none" points="700.12,132.36,704.8614,150.7317,714.9362,144.2125,700.12,132.36" style="stroke:#181818;stroke-width:1.0;"/></g><!--SRC=[jLRFS-es4Bxxh_2X1sTUmg5d1iOn9iyjc8nj-gQzU8Iz0KsCH2KvJTg-_xqh2OnDGnA7zWBoQhK_Fdsxgw8YKhebNLD5gi6ALvJ1e21LvKj9fI9C3UGEeDZygE1P3IOW7nNVpMaX-6x36RX_EJTkn9GxZu8yzUVtip1Fez_2F8hpsoXhRVhBIRJ8Wwz-78Spb4yhJZh74ZyBdI-elwjLgWIGxTXTrRGglIldk-Cub2aG3wI0ZuURsdM6QslnLji3WL6VTrJqWoGJXCb2q9sYdFqGyEsEC5mP5-uo_ZbUV8lpB9g7xUzW4K-ZIHW77UayJ5F_Bhmq27CdxXQa96lOPunkC5NArWSv2YQyNbNW5fmzq19OeMKpZYfeNwYCRXi1i7B_kJSYUIqAoCWQHSDXW1Wg68tSJXYUrRssRgwr8VjZvLTuz8dJ4WCIQ_0wHviz0HAKfpzlEQ-0C1T-hqabFP-zZA_C9IftG-Gcu2KOlNs0Yjl5dZja9PKWXN9xujeYaBrGpXAGTQK2FB8YnQEqmjGWjazXXNxR-os0MlQyS-HiaY-GIxK2NxwmmfiAp1oOkHPUgt63eawlPrR-7xA95JgKHTxC_FXkYIn4Zav2BR25csP9wC-nVf6inmh_DGjJhTCkOVoSXvF8pv7UYqaKtnb954VpvJp_jaWcQJvT9FczdsIHFykJC5tETADmiyIFqo29xhDeWRQNqscOu75RFDylozBaTloqW2D-1joWeeZi6CcX_r7HNAVLwV0oqNSWKLFO1Qfgz2fG12a-hLKjOFWBtjrexAh6sKzyfTDRrGyFeE-iOn9tS7zigW3thAukax5Bwf9o6qNQL2GQgYK88u0IEKGUyTX17Cb6ybwjTk1vWuplmUPIHfLTUbVlOsVKzskleNh9_KBH9upCE-aE9G_QPR34qmtrRwpA6j2Wt74cuIjXPGN21393JWmx8OpS7H4IEZBf6JrRrQF6viOOUbEp2J35YVZli2T0JbFwJAaUEN2FRPJA3OYJYathLHDZX6H47jT2u7MqDyn4G1IV3m5A7VH_5f9fZcrolQBZjGRkTO3n2LBHFw6SyVMwrVMaZLfpyh0IGyhQ9iUZpmpgKvmCUE4p5BNY8WNnHF5f0VjlZLS9MsI1Nb6vs876iDtAJyoz5UxrEwdVkBSl2aUrRX2QpZ766pxPYceceIqPtHgE4uBWrAwEIgrBTPpBNqd3lmU32zw6RqUWSzTT4xtStFnlNiu_ahxqoUtC8-_ZlW_l0KE4di1svyM7ZoLGImtmWThzS6wHmldaoEs5y9atoQTOt3FLZcldiZxOB-Stcxl3nNeWx1J1ojTQSd3qr8z3hxbwrK6xhVNqSTeH_m40]--></g></svg>