<svg xmlns="http://www.w3.org/2000/svg" xmlns:xlink="http://www.w3.org/1999/xlink" contentStyleType="text/css" height="933px" preserveAspectRatio="none" style="width:1063px;height:933px;background:#FFFFFF;" version="1.1" viewBox="0 0 1063 933" width="1063px" zoomAndPan="magnify"><defs/><g><!--cluster digital--><g id="cluster_digital"><path d="M8.5,6 L55.5742,6 A3.75,3.75 0 0 1 58.0742,8.5 L65.0742,28.4883 L1053.5,28.4883 A2.5,2.5 0 0 1 1056,30.9883 L1056,924.29 A2.5,2.5 0 0 1 1053.5,926.79 L8.5,926.79 A2.5,2.5 0 0 1 6,924.29 L6,8.5 A2.5,2.5 0 0 1 8.5,6 " fill="none" style="stroke:#000000;stroke-width:1.5;"/><line style="stroke:#000000;stroke-width:1.5;" x1="6" x2="65.0742" y1="28.4883" y2="28.4883"/><text fill="#000000" font-family="sans-serif" font-size="14" font-weight="bold" lengthAdjust="spacing" textLength="46.0742" x="10" y="21.5352">digital</text></g><!--cluster boline--><g id="cluster_boline"><path d="M32.5,49 L78.2207,49 A3.75,3.75 0 0 1 80.7207,51.5 L87.7207,71.4883 L1029.5,71.4883 A2.5,2.5 0 0 1 1032,73.9883 L1032,900.29 A2.5,2.5 0 0 1 1029.5,902.79 L32.5,902.79 A2.5,2.5 0 0 1 30,900.29 L30,51.5 A2.5,2.5 0 0 1 32.5,49 " fill="none" style="stroke:#000000;stroke-width:1.5;"/><line style="stroke:#000000;stroke-width:1.5;" x1="30" x2="87.7207" y1="71.4883" y2="71.4883"/><text fill="#000000" font-family="sans-serif" font-size="14" font-weight="bold" lengthAdjust="spacing" textLength="44.7207" x="34" y="64.5352">boline</text></g><!--cluster callAssistant--><g id="cluster_callAssistant"><path d="M56.5,92 L149.6689,92 A3.75,3.75 0 0 1 152.1689,94.5 L159.1689,114.4883 L1005.5,114.4883 A2.5,2.5 0 0 1 1008,116.9883 L1008,876.29 A2.5,2.5 0 0 1 1005.5,878.79 L56.5,878.79 A2.5,2.5 0 0 1 54,876.29 L54,94.5 A2.5,2.5 0 0 1 56.5,92 " fill="none" style="stroke:#000000;stroke-width:1.5;"/><line style="stroke:#000000;stroke-width:1.5;" x1="54" x2="159.1689" y1="114.4883" y2="114.4883"/><text fill="#000000" font-family="sans-serif" font-size="14" font-weight="bold" lengthAdjust="spacing" textLength="92.1689" x="58" y="107.5352">callAssistant</text></g><!--cluster text2speech--><g id="cluster_text2speech"><path d="M80.5,135 L168.8018,135 A3.75,3.75 0 0 1 171.3018,137.5 L178.3018,157.4883 L981.5,157.4883 A2.5,2.5 0 0 1 984,159.9883 L984,852.29 A2.5,2.5 0 0 1 981.5,854.79 L80.5,854.79 A2.5,2.5 0 0 1 78,852.29 L78,137.5 A2.5,2.5 0 0 1 80.5,135 " fill="none" style="stroke:#000000;stroke-width:1.5;"/><line style="stroke:#000000;stroke-width:1.5;" x1="78" x2="178.3018" y1="157.4883" y2="157.4883"/><text fill="#000000" font-family="sans-serif" font-size="14" font-weight="bold" lengthAdjust="spacing" textLength="87.3018" x="82" y="150.5352">text2speech</text></g><!--class DesktopAudioPlayer--><g id="elem_DesktopAudioPlayer"><rect codeLine="1" fill="#F1F1F1" height="130.4414" id="DesktopAudioPlayer" rx="2.5" ry="2.5" style="stroke:#181818;stroke-width:0.5;" width="270.0771" x="268.96" y="708.35"/><ellipse cx="331.5396" cy="724.35" fill="#ADD1B2" rx="11" ry="11" style="stroke:#181818;stroke-width:1.0;"/><path d="M334.5127,729.9931 Q333.9317,730.2919 333.2925,730.4413 Q332.6534,730.5907 331.9478,730.5907 Q329.441,730.5907 328.1211,728.9389 Q326.8013,727.287 326.8013,724.1659 Q326.8013,721.0365 328.1211,719.3847 Q329.441,717.7328 331.9478,717.7328 Q332.6534,717.7328 333.3008,717.8822 Q333.9483,718.0316 334.5127,718.3305 L334.5127,721.0531 Q333.8819,720.4721 333.2884,720.2023 Q332.6949,719.9325 332.064,719.9325 Q330.7193,719.9325 330.0345,720.9992 Q329.3496,722.0658 329.3496,724.1659 Q329.3496,726.2577 330.0345,727.3244 Q330.7193,728.391 332.064,728.391 Q332.6949,728.391 333.2884,728.1212 Q333.8819,727.8515 334.5127,727.2704 Z " fill="#000000"/><text fill="#000000" font-family="sans-serif" font-size="14" lengthAdjust="spacing" textLength="136.418" x="352.0396" y="729.641">DesktopAudioPlayer</text><line style="stroke:#181818;stroke-width:0.5;" x1="269.96" x2="538.0371" y1="740.35" y2="740.35"/><ellipse cx="279.96" cy="754.0941" fill="none" rx="3" ry="3" style="stroke:#038048;stroke-width:1.0;"/><text fill="#000000" font-family="sans-serif" font-size="14" lengthAdjust="spacing" textLength="167.4463" x="288.96" y="757.8852">onBeginPlayingCallbacks</text><ellipse cx="279.96" cy="770.5824" fill="none" rx="3" ry="3" style="stroke:#038048;stroke-width:1.0;"/><text fill="#000000" font-family="sans-serif" font-size="14" lengthAdjust="spacing" textLength="155.2168" x="288.96" y="774.3734">onEndPlayingCallbacks</text><rect fill="none" height="6" style="stroke:#C82930;stroke-width:1.0;" width="6" x="276.96" y="784.0707"/><text fill="#000000" font-family="sans-serif" font-size="14" lengthAdjust="spacing" textLength="158.0469" x="288.96" y="790.8617">AdvancedPlayer? player</text><line style="stroke:#181818;stroke-width:0.5;" x1="269.96" x2="538.0371" y1="797.8148" y2="797.8148"/><ellipse cx="279.96" cy="811.559" fill="#84BE84" rx="3" ry="3" style="stroke:#038048;stroke-width:1.0;"/><text fill="#000000" font-family="sans-serif" font-size="14" lengthAdjust="spacing" textLength="244.0771" x="288.96" y="815.35">void doComputeAsync(InputStream)</text><ellipse cx="279.96" cy="828.0473" fill="#84BE84" rx="3" ry="3" style="stroke:#038048;stroke-width:1.0;"/><text fill="#000000" font-family="sans-serif" font-size="14" lengthAdjust="spacing" textLength="89.8379" x="288.96" y="831.8383">void doStop()</text></g><!--class Text2SpeechPlayerInterface--><g id="elem_Text2SpeechPlayerInterface"><rect codeLine="10" fill="#F1F1F1" height="80.9766" id="Text2SpeechPlayerInterface" rx="2.5" ry="2.5" style="stroke:#181818;stroke-width:0.5;" width="382.2275" x="93.89" y="302.73"/><ellipse cx="187.3373" cy="318.73" fill="#B4A7E5" rx="11" ry="11" style="stroke:#181818;stroke-width:1.0;"/><path d="M183.265,314.4951 L183.265,312.3369 L190.6444,312.3369 L190.6444,314.4951 L188.1791,314.4951 L188.1791,322.5718 L190.6444,322.5718 L190.6444,324.73 L183.265,324.73 L183.265,322.5718 L185.7303,322.5718 L185.7303,314.4951 Z " fill="#000000"/><text fill="#000000" font-family="sans-serif" font-size="14" font-style="italic" lengthAdjust="spacing" textLength="186.833" x="207.8373" y="324.021">Text2SpeechPlayerInterface</text><line style="stroke:#181818;stroke-width:0.5;" x1="94.89" x2="475.1175" y1="334.73" y2="334.73"/><ellipse cx="104.89" cy="348.4741" fill="none" rx="3" ry="3" style="stroke:#038048;stroke-width:1.0;"/><text fill="#000000" font-family="sans-serif" font-size="14" lengthAdjust="spacing" textLength="356.2275" x="113.89" y="352.2652">CallbackManager&lt;C, Unit&gt; onBeginPlayingCallbacks</text><ellipse cx="104.89" cy="364.9624" fill="none" rx="3" ry="3" style="stroke:#038048;stroke-width:1.0;"/><text fill="#000000" font-family="sans-serif" font-size="14" lengthAdjust="spacing" textLength="343.998" x="113.89" y="368.7534">CallbackManager&lt;C, Unit&gt; onEndPlayingCallbacks</text><line style="stroke:#181818;stroke-width:0.5;" x1="94.89" x2="475.1175" y1="375.7066" y2="375.7066"/></g><!--class Text2SpeechPlayer--><g id="elem_Text2SpeechPlayer"><rect codeLine="15" fill="#F1F1F1" height="48" id="Text2SpeechPlayer" rx="2.5" ry="2.5" style="stroke:#181818;stroke-width:0.5;" width="159.4971" x="324.25" y="534.4"/><ellipse cx="339.25" cy="550.4" fill="#A9DCDF" rx="11" ry="11" style="stroke:#181818;stroke-width:1.0;"/><path d="M339.3633,545.7481 L338.2095,550.8199 L340.5254,550.8199 Z M337.8691,543.5069 L340.8657,543.5069 L344.2109,555.9 L341.7622,555.9 L340.9985,552.837 L337.7197,552.837 L336.9727,555.9 L334.5239,555.9 Z " fill="#000000"/><text fill="#000000" font-family="sans-serif" font-size="14" font-style="italic" lengthAdjust="spacing" textLength="127.4971" x="353.25" y="555.691">Text2SpeechPlayer</text><line style="stroke:#181818;stroke-width:0.5;" x1="325.25" x2="482.7471" y1="566.4" y2="566.4"/><line style="stroke:#181818;stroke-width:0.5;" x1="325.25" x2="482.7471" y1="574.4" y2="574.4"/></g><!--class Text2Speech--><g id="elem_Text2Speech"><rect codeLine="17" fill="#F1F1F1" height="130.4414" id="Text2Speech" rx="2.5" ry="2.5" style="stroke:#181818;stroke-width:0.5;" width="341.8271" x="626.09" y="278"/><ellipse cx="749.1847" cy="294" fill="#A9DCDF" rx="11" ry="11" style="stroke:#181818;stroke-width:1.0;"/><path d="M749.298,289.3481 L748.1442,294.4199 L750.4601,294.4199 Z M747.8039,287.1069 L750.8004,287.1069 L754.1457,299.5 L751.6969,299.5 L750.9333,296.437 L747.6545,296.437 L746.9074,299.5 L744.4587,299.5 Z " fill="#000000"/><text fill="#000000" font-family="sans-serif" font-size="14" font-style="italic" lengthAdjust="spacing" textLength="87.1377" x="769.6847" y="299.291">Text2Speech</text><line style="stroke:#181818;stroke-width:0.5;" x1="627.09" x2="966.9171" y1="310" y2="310"/><line style="stroke:#181818;stroke-width:0.5;" x1="627.09" x2="966.9171" y1="318" y2="318"/><ellipse cx="637.09" cy="331.7441" fill="#84BE84" rx="3" ry="3" style="stroke:#038048;stroke-width:1.0;"/><text fill="#000000" font-family="sans-serif" font-size="14" lengthAdjust="spacing" textLength="315.8271" x="646.09" y="335.5352">&#171;Create&#187; Text2Speech(Text2SpeechPlayer&lt;*&gt;)</text><polygon fill="#FFFF44" points="637.09,343.2324,641.09,347.2324,637.09,351.2324,633.09,347.2324" style="stroke:#B38D22;stroke-width:1.0;"/><text fill="#000000" font-family="sans-serif" font-size="14" lengthAdjust="spacing" textLength="215.8242" x="646.09" y="352.0234">InputStream? fetchAudio(String)</text><ellipse cx="637.09" cy="364.7207" fill="#84BE84" rx="3" ry="3" style="stroke:#038048;stroke-width:1.0;"/><text fill="#000000" font-family="sans-serif" font-size="14" lengthAdjust="spacing" textLength="201.4824" x="646.09" y="368.5117">void doComputeAsync(String)</text><ellipse cx="637.09" cy="381.209" fill="#84BE84" rx="3" ry="3" style="stroke:#038048;stroke-width:1.0;"/><text fill="#000000" font-family="sans-serif" font-size="14" lengthAdjust="spacing" textLength="88.6416" x="646.09" y="385">void doWait()</text><ellipse cx="637.09" cy="397.6973" fill="#84BE84" rx="3" ry="3" style="stroke:#038048;stroke-width:1.0;"/><text fill="#000000" font-family="sans-serif" font-size="14" lengthAdjust="spacing" textLength="89.8379" x="646.09" y="401.4883">void doStop()</text></g><!--class AwsPolly$Companion--><g id="elem_AwsPolly$Companion"><rect codeLine="25" fill="#F1F1F1" height="97.4648" id="AwsPolly$Companion" rx="2.5" ry="2.5" style="stroke:#181818;stroke-width:0.5;" width="178.1045" x="707.95" y="724.84"/><ellipse cx="722.95" cy="740.84" fill="#ADD1B2" rx="11" ry="11" style="stroke:#181818;stroke-width:1.0;"/><path d="M725.9231,746.4831 Q725.3421,746.7819 724.7029,746.9313 Q724.0638,747.0807 723.3582,747.0807 Q720.8514,747.0807 719.5315,745.4289 Q718.2117,743.777 718.2117,740.6559 Q718.2117,737.5265 719.5315,735.8747 Q720.8514,734.2228 723.3582,734.2228 Q724.0638,734.2228 724.7112,734.3722 Q725.3587,734.5216 725.9231,734.8205 L725.9231,737.5431 Q725.2923,736.9621 724.6988,736.6923 Q724.1053,736.4225 723.4744,736.4225 Q722.1297,736.4225 721.4449,737.4892 Q720.7601,738.5558 720.7601,740.6559 Q720.7601,742.7477 721.4449,743.8144 Q722.1297,744.881 723.4744,744.881 Q724.1053,744.881 724.6988,744.6112 Q725.2923,744.3415 725.9231,743.7604 Z " fill="#000000"/><text fill="#000000" font-family="sans-serif" font-size="14" lengthAdjust="spacing" textLength="146.1045" x="736.95" y="746.131">AwsPolly$Companion</text><line style="stroke:#181818;stroke-width:0.5;" x1="708.95" x2="885.0545" y1="756.84" y2="756.84"/><rect fill="none" height="6" style="stroke:#C82930;stroke-width:1.0;" width="6" x="715.95" y="767.5841"/><text fill="#000000" font-family="sans-serif" font-size="14" lengthAdjust="spacing" textLength="87.9854" x="727.95" y="774.3752">VOICE_NAME</text><rect fill="none" height="6" style="stroke:#C82930;stroke-width:1.0;" width="6" x="715.95" y="784.0724"/><text fill="#000000" font-family="sans-serif" font-size="14" lengthAdjust="spacing" textLength="81.2383" x="727.95" y="790.8634">VOICE_TYPE</text><rect fill="none" height="6" style="stroke:#C82930;stroke-width:1.0;" width="6" x="715.95" y="800.5607"/><text fill="#000000" font-family="sans-serif" font-size="14" lengthAdjust="spacing" textLength="133.1914" x="727.95" y="807.3517">MAX_TEXT_LENGTH</text><line style="stroke:#181818;stroke-width:0.5;" x1="708.95" x2="885.0545" y1="814.3048" y2="814.3048"/></g><!--class AwsPolly--><g id="elem_AwsPolly"><rect codeLine="31" fill="#F1F1F1" height="179.9063" id="AwsPolly" rx="2.5" ry="2.5" style="stroke:#181818;stroke-width:0.5;" width="316.958" x="638.52" y="468.44"/><ellipse cx="763.0845" cy="484.44" fill="#ADD1B2" rx="11" ry="11" style="stroke:#181818;stroke-width:1.0;"/><path d="M766.0576,490.0831 Q765.4765,490.3819 764.8374,490.5313 Q764.1982,490.6807 763.4927,490.6807 Q760.9858,490.6807 759.666,489.0289 Q758.3462,487.377 758.3462,484.2559 Q758.3462,481.1265 759.666,479.4747 Q760.9858,477.8228 763.4927,477.8228 Q764.1982,477.8228 764.8457,477.9722 Q765.4931,478.1216 766.0576,478.4205 L766.0576,481.1431 Q765.4267,480.5621 764.8332,480.2923 Q764.2397,480.0225 763.6089,480.0225 Q762.2641,480.0225 761.5793,481.0892 Q760.8945,482.1558 760.8945,484.2559 Q760.8945,486.3477 761.5793,487.4144 Q762.2641,488.481 763.6089,488.481 Q764.2397,488.481 764.8332,488.2112 Q765.4267,487.9415 766.0576,487.3604 Z " fill="#000000"/><text fill="#000000" font-family="sans-serif" font-size="14" lengthAdjust="spacing" textLength="59.3291" x="783.5845" y="489.731">AwsPolly</text><line style="stroke:#181818;stroke-width:0.5;" x1="639.52" x2="954.478" y1="500.44" y2="500.44"/><rect fill="none" height="6" style="stroke:#C82930;stroke-width:1.0;" width="6" x="646.52" y="511.1841"/><text fill="#000000" font-family="sans-serif" font-size="14" lengthAdjust="spacing" textLength="118.5762" x="658.52" y="517.9752">PollyClient? client</text><rect fill="none" height="6" style="stroke:#C82930;stroke-width:1.0;" width="6" x="646.52" y="527.6724"/><text fill="#000000" font-family="sans-serif" font-size="14" lengthAdjust="spacing" textLength="81.9697" x="658.52" y="534.4634">Voice? voice</text><line style="stroke:#181818;stroke-width:0.5;" x1="639.52" x2="954.478" y1="541.4166" y2="541.4166"/><ellipse cx="649.52" cy="555.1607" fill="#84BE84" rx="3" ry="3" style="stroke:#038048;stroke-width:1.0;"/><text fill="#000000" font-family="sans-serif" font-size="14" lengthAdjust="spacing" textLength="290.958" x="658.52" y="558.9517">&#171;Create&#187; AwsPolly(Text2SpeechPlayer&lt;C&gt;)</text><rect fill="#F24D5C" height="6" style="stroke:#C82930;stroke-width:1.0;" width="6" x="646.52" y="568.649"/><text fill="#000000" font-family="sans-serif" font-size="14" lengthAdjust="spacing" textLength="182.0068" x="658.52" y="575.44">PollyClient initializeClient()</text><rect fill="#F24D5C" height="6" style="stroke:#C82930;stroke-width:1.0;" width="6" x="646.52" y="585.1373"/><text fill="#000000" font-family="sans-serif" font-size="14" lengthAdjust="spacing" textLength="144.792" x="658.52" y="591.9283">Voice initializeVoice()</text><ellipse cx="649.52" cy="604.6255" fill="#84BE84" rx="3" ry="3" style="stroke:#038048;stroke-width:1.0;"/><text fill="#000000" font-family="sans-serif" font-size="14" lengthAdjust="spacing" textLength="113.7773" x="658.52" y="608.4166">void doActivate()</text><ellipse cx="649.52" cy="621.1138" fill="#84BE84" rx="3" ry="3" style="stroke:#038048;stroke-width:1.0;"/><text fill="#000000" font-family="sans-serif" font-size="14" lengthAdjust="spacing" textLength="130.1357" x="658.52" y="624.9048">void doDeactivate()</text><ellipse cx="649.52" cy="637.6021" fill="#84BE84" rx="3" ry="3" style="stroke:#038048;stroke-width:1.0;"/><text fill="#000000" font-family="sans-serif" font-size="14" lengthAdjust="spacing" textLength="215.8242" x="658.52" y="641.3931">InputStream? fetchAudio(String)</text></g><!--class ServiceInterface--><g id="elem_ServiceInterface"><rect fill="#F1F1F1" height="48" id="ServiceInterface" rx="2.5" ry="2.5" style="stroke:#181818;stroke-width:0.5;" width="138.668" x="215.67" y="170"/><ellipse cx="230.67" cy="186" fill="#ADD1B2" rx="11" ry="11" style="stroke:#181818;stroke-width:1.0;"/><path d="M233.6431,191.6431 Q233.0621,191.9419 232.4229,192.0913 Q231.7838,192.2407 231.0782,192.2407 Q228.5714,192.2407 227.2515,190.5889 Q225.9317,188.937 225.9317,185.8159 Q225.9317,182.6865 227.2515,181.0347 Q228.5714,179.3828 231.0782,179.3828 Q231.7838,179.3828 232.4312,179.5322 Q233.0787,179.6816 233.6431,179.9805 L233.6431,182.7031 Q233.0123,182.1221 232.4188,181.8523 Q231.8253,181.5825 231.1944,181.5825 Q229.8497,181.5825 229.1649,182.6492 Q228.4801,183.7158 228.4801,185.8159 Q228.4801,187.9077 229.1649,188.9744 Q229.8497,190.041 231.1944,190.041 Q231.8253,190.041 232.4188,189.7712 Q233.0123,189.5015 233.6431,188.9204 Z " fill="#000000"/><text fill="#000000" font-family="sans-serif" font-size="14" lengthAdjust="spacing" textLength="106.668" x="244.67" y="191.291">ServiceInterface</text><line style="stroke:#181818;stroke-width:0.5;" x1="216.67" x2="353.338" y1="202" y2="202"/><line style="stroke:#181818;stroke-width:0.5;" x1="216.67" x2="353.338" y1="210" y2="210"/></g><!--class Service--><g id="elem_Service"><rect fill="#F1F1F1" height="48" id="Service" rx="2.5" ry="2.5" style="stroke:#181818;stroke-width:0.5;" width="79.332" x="511.33" y="319.22"/><ellipse cx="526.33" cy="335.22" fill="#ADD1B2" rx="11" ry="11" style="stroke:#181818;stroke-width:1.0;"/><path d="M529.3031,340.8631 Q528.7221,341.1619 528.0829,341.3113 Q527.4438,341.4607 526.7382,341.4607 Q524.2314,341.4607 522.9115,339.8089 Q521.5917,338.157 521.5917,335.0359 Q521.5917,331.9065 522.9115,330.2547 Q524.2314,328.6028 526.7382,328.6028 Q527.4438,328.6028 528.0912,328.7522 Q528.7387,328.9016 529.3031,329.2005 L529.3031,331.9231 Q528.6723,331.3421 528.0788,331.0723 Q527.4853,330.8025 526.8544,330.8025 Q525.5097,330.8025 524.8249,331.8692 Q524.1401,332.9358 524.1401,335.0359 Q524.1401,337.1277 524.8249,338.1944 Q525.5097,339.261 526.8544,339.261 Q527.4853,339.261 528.0788,338.9912 Q528.6723,338.7215 529.3031,338.1404 Z " fill="#000000"/><text fill="#000000" font-family="sans-serif" font-size="14" lengthAdjust="spacing" textLength="47.332" x="540.33" y="340.511">Service</text><line style="stroke:#181818;stroke-width:0.5;" x1="512.33" x2="589.662" y1="351.22" y2="351.22"/><line style="stroke:#181818;stroke-width:0.5;" x1="512.33" x2="589.662" y1="359.22" y2="359.22"/></g><!--class ReusableService--><g id="elem_ReusableService"><rect fill="#F1F1F1" height="48" id="ReusableService" rx="2.5" ry="2.5" style="stroke:#181818;stroke-width:0.5;" width="140.1992" x="726.9" y="170"/><ellipse cx="741.9" cy="186" fill="#ADD1B2" rx="11" ry="11" style="stroke:#181818;stroke-width:1.0;"/><path d="M744.8731,191.6431 Q744.2921,191.9419 743.6529,192.0913 Q743.0138,192.2407 742.3082,192.2407 Q739.8014,192.2407 738.4815,190.5889 Q737.1617,188.937 737.1617,185.8159 Q737.1617,182.6865 738.4815,181.0347 Q739.8014,179.3828 742.3082,179.3828 Q743.0138,179.3828 743.6612,179.5322 Q744.3087,179.6816 744.8731,179.9805 L744.8731,182.7031 Q744.2423,182.1221 743.6488,181.8523 Q743.0553,181.5825 742.4244,181.5825 Q741.0797,181.5825 740.3949,182.6492 Q739.7101,183.7158 739.7101,185.8159 Q739.7101,187.9077 740.3949,188.9744 Q741.0797,190.041 742.4244,190.041 Q743.0553,190.041 743.6488,189.7712 Q744.2423,189.5015 744.8731,188.9204 Z " fill="#000000"/><text fill="#000000" font-family="sans-serif" font-size="14" lengthAdjust="spacing" textLength="108.1992" x="755.9" y="191.291">ReusableService</text><line style="stroke:#181818;stroke-width:0.5;" x1="727.9" x2="866.0992" y1="202" y2="202"/><line style="stroke:#181818;stroke-width:0.5;" x1="727.9" x2="866.0992" y1="210" y2="210"/></g><!--reverse link Text2SpeechPlayer to DesktopAudioPlayer--><g id="link_Text2SpeechPlayer_DesktopAudioPlayer"><path codeLine="45" d="M404,600.61 C404,630.51 404,665.65 404,708.14 " fill="none" id="Text2SpeechPlayer-backto-DesktopAudioPlayer" style="stroke:#181818;stroke-width:1.0;"/><polygon fill="none" points="404,582.61,398,600.61,410,600.61,404,582.61" style="stroke:#181818;stroke-width:1.0;"/></g><!--reverse link ServiceInterface to Text2SpeechPlayerInterface--><g id="link_ServiceInterface_Text2SpeechPlayerInterface"><path codeLine="46" d="M285,236.33 C285,258.87 285,275.46 285,302.36 " fill="none" id="ServiceInterface-backto-Text2SpeechPlayerInterface" style="stroke:#181818;stroke-width:1.0;stroke-dasharray:7.0,7.0;"/><polygon fill="none" points="285,218.33,279,236.33,291,236.33,285,218.33" style="stroke:#181818;stroke-width:1.0;"/></g><!--reverse link Service to Text2SpeechPlayer--><g id="link_Service_Text2SpeechPlayer"><path codeLine="47" d="M524.7715,382.2583 C496.4915,423.2683 448.25,493.22 419.99,534.2 " fill="none" id="Service-backto-Text2SpeechPlayer" style="stroke:#181818;stroke-width:1.0;"/><polygon fill="none" points="534.99,367.44,519.8321,378.8521,529.7109,385.6645,534.99,367.44" style="stroke:#181818;stroke-width:1.0;"/></g><!--reverse link Text2SpeechPlayerInterface to Text2SpeechPlayer--><g id="link_Text2SpeechPlayerInterface_Text2SpeechPlayer"><path codeLine="48" d="M315.8742,399.5367 C340.5442,443.7267 370.86,498.03 391.02,534.15 " fill="none" id="Text2SpeechPlayerInterface-backto-Text2SpeechPlayer" style="stroke:#181818;stroke-width:1.0;stroke-dasharray:7.0,7.0;"/><polygon fill="none" points="307.1,383.82,310.6353,402.4614,321.1131,396.612,307.1,383.82" style="stroke:#181818;stroke-width:1.0;"/></g><!--reverse link ReusableService to Text2Speech--><g id="link_ReusableService_Text2Speech"><path codeLine="49" d="M797,236.33 C797,252.38 797,256.55 797,277.7 " fill="none" id="ReusableService-backto-Text2Speech" style="stroke:#181818;stroke-width:1.0;"/><polygon fill="none" points="797,218.33,791,236.33,803,236.33,797,218.33" style="stroke:#181818;stroke-width:1.0;"/></g><!--reverse link AwsPolly to AwsPolly$Companion--><g id="link_AwsPolly_AwsPolly$Companion"><path codeLine="50" d="M797,664.57 C797,690.58 797,702.01 797,724.45 " fill="none" id="AwsPolly-backto-AwsPolly$Companion" style="stroke:#181818;stroke-width:1.0;stroke-dasharray:7.0,7.0;"/><ellipse cx="797" cy="656.57" fill="#FFFFFF" rx="8" ry="8" style="stroke:#181818;stroke-width:1.0;"/><line style="stroke:#181818;stroke-width:1.0;" x1="797" x2="797" y1="664.57" y2="648.57"/><line style="stroke:#181818;stroke-width:1.0;" x1="789" x2="805" y1="656.57" y2="656.57"/></g><!--reverse link Text2Speech to AwsPolly--><g id="link_Text2Speech_AwsPolly"><path codeLine="51" d="M797,426.76 C797,445.51 797,448.33 797,468.3 " fill="none" id="Text2Speech-backto-AwsPolly" style="stroke:#181818;stroke-width:1.0;"/><polygon fill="none" points="797,408.76,791,426.76,803,426.76,797,408.76" style="stroke:#181818;stroke-width:1.0;"/></g><!--SRC=[hLHDJ-Cm4BtxLrY2GmBR7FOSjSg622fjeQ9P5axLr1dA26DNiLie7_yT9rMtGIbiGthAU2OpRzuRUuG4OtX6Kx8WWucMf30G86La31aBoWOMd-nFCqCKTy49cdkhPz4y8psKiCISlx1ZphNwXLDIXOlKD7Rv4n3tPXLAL5OBT7YKBK09p5PbUdnMVbt6GbF6CnthXzdSOcIMIdXzvUoHpH4U_Cql8zUAvxCtnXWfY_aj2DoTIrhOez9UzT3_LwFWjEvr00gcc8Vn3_v7aUr-mVMBb6qQkBvXOcmEmdBHR0wrtbtBR_keLb8FmzWfRR7RvPMGLmCDZxe-E-2LuVJuBLfnLzuFpxaSN_-JaTQYVu6ijtMw3Ub4ZsQefLmU5dYWI2l7giFvrKK_JiRdqI3PdDARONaQHDVZDBbEnx-JyzFqh0LgYLLQiIHKjkUcKNoTzqgJm5x1J-17cTV9MpIEdSOV2d9oTuf0qZEk79w_hbq9bUUgd96mj71eLTy9GjNxlq4M3usn5fSqVErqsYoRtR57c2-S09id7Ru6mJvsG-CM6fAk8RDzBBIMx7VluHBd1YOIMvDdpH_USHEEzINnBQ4R4boZlWC0]--></g></svg>