<svg xmlns="http://www.w3.org/2000/svg" xmlns:xlink="http://www.w3.org/1999/xlink" contentStyleType="text/css" height="1031px" preserveAspectRatio="none" style="width:1063px;height:1031px;background:#FFFFFF;" version="1.1" viewBox="0 0 1063 1031" width="1063px" zoomAndPan="magnify"><defs/><g><!--cluster digital--><g id="cluster_digital"><path d="M8.5,6 L55.5742,6 A3.75,3.75 0 0 1 58.0742,8.5 L65.0742,28.4883 L1053.5,28.4883 A2.5,2.5 0 0 1 1056,30.9883 L1056,1022.27 A2.5,2.5 0 0 1 1053.5,1024.77 L8.5,1024.77 A2.5,2.5 0 0 1 6,1022.27 L6,8.5 A2.5,2.5 0 0 1 8.5,6 " fill="none" style="stroke:#000000;stroke-width:1.5;"/><line style="stroke:#000000;stroke-width:1.5;" x1="6" x2="65.0742" y1="28.4883" y2="28.4883"/><text fill="#000000" font-family="sans-serif" font-size="14" font-weight="bold" lengthAdjust="spacing" textLength="46.0742" x="10" y="21.5352">digital</text></g><!--cluster boline--><g id="cluster_boline"><path d="M32.5,49 L78.2207,49 A3.75,3.75 0 0 1 80.7207,51.5 L87.7207,71.4883 L1029.5,71.4883 A2.5,2.5 0 0 1 1032,73.9883 L1032,998.27 A2.5,2.5 0 0 1 1029.5,1000.77 L32.5,1000.77 A2.5,2.5 0 0 1 30,998.27 L30,51.5 A2.5,2.5 0 0 1 32.5,49 " fill="none" style="stroke:#000000;stroke-width:1.5;"/><line style="stroke:#000000;stroke-width:1.5;" x1="30" x2="87.7207" y1="71.4883" y2="71.4883"/><text fill="#000000" font-family="sans-serif" font-size="14" font-weight="bold" lengthAdjust="spacing" textLength="44.7207" x="34" y="64.5352">boline</text></g><!--cluster callAssistant--><g id="cluster_callAssistant"><path d="M56.5,92 L149.6689,92 A3.75,3.75 0 0 1 152.1689,94.5 L159.1689,114.4883 L1005.5,114.4883 A2.5,2.5 0 0 1 1008,116.9883 L1008,974.27 A2.5,2.5 0 0 1 1005.5,976.77 L56.5,976.77 A2.5,2.5 0 0 1 54,974.27 L54,94.5 A2.5,2.5 0 0 1 56.5,92 " fill="none" style="stroke:#000000;stroke-width:1.5;"/><line style="stroke:#000000;stroke-width:1.5;" x1="54" x2="159.1689" y1="114.4883" y2="114.4883"/><text fill="#000000" font-family="sans-serif" font-size="14" font-weight="bold" lengthAdjust="spacing" textLength="92.1689" x="58" y="107.5352">callAssistant</text></g><!--cluster text2speech--><g id="cluster_text2speech"><path d="M80.5,200 L168.8018,200 A3.75,3.75 0 0 1 171.3018,202.5 L178.3018,222.4883 L981.5,222.4883 A2.5,2.5 0 0 1 984,224.9883 L984,950.27 A2.5,2.5 0 0 1 981.5,952.77 L80.5,952.77 A2.5,2.5 0 0 1 78,950.27 L78,202.5 A2.5,2.5 0 0 1 80.5,200 " fill="none" style="stroke:#000000;stroke-width:1.5;"/><line style="stroke:#000000;stroke-width:1.5;" x1="78" x2="178.3018" y1="222.4883" y2="222.4883"/><text fill="#000000" font-family="sans-serif" font-size="14" font-weight="bold" lengthAdjust="spacing" textLength="87.3018" x="82" y="215.5352">text2speech</text></g><!--class CallbackInput--><g id="elem_CallbackInput"><rect fill="#F1F1F1" height="48" id="CallbackInput" rx="2.5" ry="2.5" style="stroke:#181818;stroke-width:0.5;" width="124.8662" x="198.57" y="127"/><ellipse cx="213.57" cy="143" fill="#ADD1B2" rx="11" ry="11" style="stroke:#181818;stroke-width:1.0;"/><path d="M216.5431,148.6431 Q215.9621,148.9419 215.3229,149.0913 Q214.6838,149.2407 213.9782,149.2407 Q211.4714,149.2407 210.1515,147.5889 Q208.8317,145.937 208.8317,142.8159 Q208.8317,139.6865 210.1515,138.0347 Q211.4714,136.3828 213.9782,136.3828 Q214.6838,136.3828 215.3312,136.5322 Q215.9787,136.6816 216.5431,136.9805 L216.5431,139.7031 Q215.9123,139.1221 215.3188,138.8523 Q214.7253,138.5825 214.0944,138.5825 Q212.7497,138.5825 212.0649,139.6492 Q211.3801,140.7158 211.3801,142.8159 Q211.3801,144.9077 212.0649,145.9744 Q212.7497,147.041 214.0944,147.041 Q214.7253,147.041 215.3188,146.7712 Q215.9123,146.5015 216.5431,145.9204 Z " fill="#000000"/><text fill="#000000" font-family="sans-serif" font-size="14" lengthAdjust="spacing" textLength="92.8662" x="227.57" y="148.291">CallbackInput</text><line style="stroke:#181818;stroke-width:0.5;" x1="199.57" x2="322.4362" y1="159" y2="159"/><line style="stroke:#181818;stroke-width:0.5;" x1="199.57" x2="322.4362" y1="167" y2="167"/></g><!--class Text2SpeechPlayerInterface--><g id="elem_Text2SpeechPlayerInterface"><rect  fill="#F1F1F1" height="80.9766" id="Text2SpeechPlayerInterface" rx="2.5" ry="2.5" style="stroke:#181818;stroke-width:0.5;" width="382.2275" x="93.89" y="392.47"/><ellipse cx="187.3373" cy="408.47" fill="#B4A7E5" rx="11" ry="11" style="stroke:#181818;stroke-width:1.0;"/><path d="M183.265,404.2351 L183.265,402.0769 L190.6444,402.0769 L190.6444,404.2351 L188.1791,404.2351 L188.1791,412.3118 L190.6444,412.3118 L190.6444,414.47 L183.265,414.47 L183.265,412.3118 L185.7303,412.3118 L185.7303,404.2351 Z " fill="#000000"/><text fill="#000000" font-family="sans-serif" font-size="14" font-style="italic" lengthAdjust="spacing" textLength="186.833" x="207.8373" y="413.761">Text2SpeechPlayerInterface</text><line style="stroke:#181818;stroke-width:0.5;" x1="94.89" x2="475.1175" y1="424.47" y2="424.47"/><ellipse cx="104.89" cy="438.2141" fill="none" rx="3" ry="3" style="stroke:#038048;stroke-width:1.0;"/><text fill="#000000" font-family="sans-serif" font-size="14" lengthAdjust="spacing" textLength="356.2275" x="113.89" y="442.0052">CallbackManager&lt;C, Unit&gt; onBeginPlayingCallbacks</text><ellipse cx="104.89" cy="454.7024" fill="none" rx="3" ry="3" style="stroke:#038048;stroke-width:1.0;"/><text fill="#000000" font-family="sans-serif" font-size="14" lengthAdjust="spacing" textLength="343.998" x="113.89" y="458.4934">CallbackManager&lt;C, Unit&gt; onEndPlayingCallbacks</text><line style="stroke:#181818;stroke-width:0.5;" x1="94.89" x2="475.1175" y1="465.4466" y2="465.4466"/></g><!--class Text2SpeechPlayer--><g id="elem_Text2SpeechPlayer"><rect  fill="#F1F1F1" height="48" id="Text2SpeechPlayer" rx="2.5" ry="2.5" style="stroke:#181818;stroke-width:0.5;" width="159.4971" x="320.25" y="632.38"/><ellipse cx="335.25" cy="648.38" fill="#A9DCDF" rx="11" ry="11" style="stroke:#181818;stroke-width:1.0;"/><path d="M335.3633,643.7281 L334.2095,648.7999 L336.5254,648.7999 Z M333.8691,641.4869 L336.8657,641.4869 L340.2109,653.88 L337.7622,653.88 L336.9985,650.817 L333.7197,650.817 L332.9727,653.88 L330.5239,653.88 Z " fill="#000000"/><text fill="#000000" font-family="sans-serif" font-size="14" font-style="italic" lengthAdjust="spacing" textLength="127.4971" x="349.25" y="653.671">Text2SpeechPlayer</text><line style="stroke:#181818;stroke-width:0.5;" x1="321.25" x2="478.7471" y1="664.38" y2="664.38"/><line style="stroke:#181818;stroke-width:0.5;" x1="321.25" x2="478.7471" y1="672.38" y2="672.38"/></g><!--class Text2Speech--><g id="elem_Text2Speech"><rect  fill="#F1F1F1" height="146.9297" id="Text2Speech" rx="2.5" ry="2.5" style="stroke:#181818;stroke-width:0.5;" width="341.8271" x="626.09" y="359.49"/><ellipse cx="749.1847" cy="375.49" fill="#A9DCDF" rx="11" ry="11" style="stroke:#181818;stroke-width:1.0;"/><path d="M749.298,370.8381 L748.1442,375.9099 L750.4601,375.9099 Z M747.8039,368.5969 L750.8004,368.5969 L754.1457,380.99 L751.6969,380.99 L750.9333,377.927 L747.6545,377.927 L746.9074,380.99 L744.4587,380.99 Z " fill="#000000"/><text fill="#000000" font-family="sans-serif" font-size="14" font-style="italic" lengthAdjust="spacing" textLength="87.1377" x="769.6847" y="380.781">Text2Speech</text><line style="stroke:#181818;stroke-width:0.5;" x1="627.09" x2="966.9171" y1="391.49" y2="391.49"/><ellipse cx="637.09" cy="405.2341" fill="none" rx="3" ry="3" style="stroke:#038048;stroke-width:1.0;"/><text fill="#000000" font-family="sans-serif" font-size="14" lengthAdjust="spacing" textLength="123.5938" x="646.09" y="409.0252">onResultCallbacks</text><line style="stroke:#181818;stroke-width:0.5;" x1="627.09" x2="966.9171" y1="415.9783" y2="415.9783"/><ellipse cx="637.09" cy="429.7224" fill="#84BE84" rx="3" ry="3" style="stroke:#038048;stroke-width:1.0;"/><text fill="#000000" font-family="sans-serif" font-size="14" lengthAdjust="spacing" textLength="315.8271" x="646.09" y="433.5134">&#171;Create&#187; Text2Speech(Text2SpeechPlayer&lt;*&gt;)</text><polygon fill="#FFFF44" points="637.09,441.2107,641.09,445.2107,637.09,449.2107,633.09,445.2107" style="stroke:#B38D22;stroke-width:1.0;"/><text fill="#000000" font-family="sans-serif" font-size="14" lengthAdjust="spacing" textLength="215.8242" x="646.09" y="450.0017">InputStream? fetchAudio(String)</text><ellipse cx="637.09" cy="462.699" fill="#84BE84" rx="3" ry="3" style="stroke:#038048;stroke-width:1.0;"/><text fill="#000000" font-family="sans-serif" font-size="14" lengthAdjust="spacing" textLength="245.8818" x="646.09" y="466.49">void doComputeAsync(String,String)</text><ellipse cx="637.09" cy="479.1873" fill="#84BE84" rx="3" ry="3" style="stroke:#038048;stroke-width:1.0;"/><text fill="#000000" font-family="sans-serif" font-size="14" lengthAdjust="spacing" textLength="128.6113" x="646.09" y="482.9783">void doWait(String)</text><ellipse cx="637.09" cy="495.6755" fill="#84BE84" rx="3" ry="3" style="stroke:#038048;stroke-width:1.0;"/><text fill="#000000" font-family="sans-serif" font-size="14" lengthAdjust="spacing" textLength="129.8076" x="646.09" y="499.4666">void doStop(String)</text></g><!--class PlaybackData--><g id="elem_PlaybackData"><rect  fill="#F1F1F1" height="64.4883" id="PlaybackData" rx="2.5" ry="2.5" style="stroke:#181818;stroke-width:0.5;" width="333.6924" x="94.15" y="235"/><ellipse cx="211.7896" cy="251" fill="#ADD1B2" rx="11" ry="11" style="stroke:#181818;stroke-width:1.0;"/><path d="M214.7628,256.6431 Q214.1817,256.9419 213.5426,257.0913 Q212.9034,257.2407 212.1979,257.2407 Q209.691,257.2407 208.3712,255.5889 Q207.0514,253.937 207.0514,250.8159 Q207.0514,247.6865 208.3712,246.0347 Q209.691,244.3828 212.1979,244.3828 Q212.9034,244.3828 213.5509,244.5322 Q214.1983,244.6816 214.7628,244.9805 L214.7628,247.7031 Q214.1319,247.1221 213.5384,246.8523 Q212.9449,246.5825 212.3141,246.5825 Q210.9693,246.5825 210.2845,247.6492 Q209.5997,248.7158 209.5997,250.8159 Q209.5997,252.9077 210.2845,253.9744 Q210.9693,255.041 212.3141,255.041 Q212.9449,255.041 213.5384,254.7712 Q214.1319,254.5015 214.7628,253.9204 Z " fill="#000000"/><text fill="#000000" font-family="sans-serif" font-size="14" lengthAdjust="spacing" textLength="89.9131" x="232.2896" y="256.291">PlaybackData</text><line style="stroke:#181818;stroke-width:0.5;" x1="95.15" x2="426.8424" y1="267" y2="267"/><line style="stroke:#181818;stroke-width:0.5;" x1="95.15" x2="426.8424" y1="275" y2="275"/><ellipse cx="105.15" cy="288.7441" fill="#84BE84" rx="3" ry="3" style="stroke:#038048;stroke-width:1.0;"/><text fill="#000000" font-family="sans-serif" font-size="14" lengthAdjust="spacing" textLength="307.6924" x="114.15" y="292.5352">&#171;Create&#187; PlaybackData(PlaybackEvent?,String)</text></g><!--class DesktopAudioPlayer--><g id="elem_DesktopAudioPlayer"><rect  fill="#F1F1F1" height="130.4414" id="DesktopAudioPlayer" rx="2.5" ry="2.5" style="stroke:#181818;stroke-width:0.5;" width="314.4766" x="242.76" y="806.33"/><ellipse cx="327.5393" cy="822.33" fill="#ADD1B2" rx="11" ry="11" style="stroke:#181818;stroke-width:1.0;"/><path d="M330.5124,827.9731 Q329.9314,828.2719 329.2922,828.4213 Q328.6531,828.5707 327.9475,828.5707 Q325.4407,828.5707 324.1208,826.9189 Q322.801,825.267 322.801,822.1459 Q322.801,819.0165 324.1208,817.3647 Q325.4407,815.7128 327.9475,815.7128 Q328.6531,815.7128 329.3005,815.8622 Q329.948,816.0116 330.5124,816.3105 L330.5124,819.0331 Q329.8816,818.4521 329.2881,818.1823 Q328.6946,817.9125 328.0637,817.9125 Q326.719,817.9125 326.0342,818.9792 Q325.3494,820.0458 325.3494,822.1459 Q325.3494,824.2377 326.0342,825.3044 Q326.719,826.371 328.0637,826.371 Q328.6946,826.371 329.2881,826.1012 Q329.8816,825.8315 330.5124,825.2504 Z " fill="#000000"/><text fill="#000000" font-family="sans-serif" font-size="14" lengthAdjust="spacing" textLength="136.418" x="348.0393" y="827.621">DesktopAudioPlayer</text><line style="stroke:#181818;stroke-width:0.5;" x1="243.76" x2="556.2366" y1="838.33" y2="838.33"/><ellipse cx="253.76" cy="852.0741" fill="none" rx="3" ry="3" style="stroke:#038048;stroke-width:1.0;"/><text fill="#000000" font-family="sans-serif" font-size="14" lengthAdjust="spacing" textLength="167.4463" x="262.76" y="855.8652">onBeginPlayingCallbacks</text><ellipse cx="253.76" cy="868.5624" fill="none" rx="3" ry="3" style="stroke:#038048;stroke-width:1.0;"/><text fill="#000000" font-family="sans-serif" font-size="14" lengthAdjust="spacing" textLength="155.2168" x="262.76" y="872.3534">onEndPlayingCallbacks</text><rect fill="none" height="6" style="stroke:#C82930;stroke-width:1.0;" width="6" x="250.76" y="882.0507"/><text fill="#000000" font-family="sans-serif" font-size="14" lengthAdjust="spacing" textLength="158.0469" x="262.76" y="888.8417">AdvancedPlayer? player</text><line style="stroke:#181818;stroke-width:0.5;" x1="243.76" x2="556.2366" y1="895.7948" y2="895.7948"/><ellipse cx="253.76" cy="909.539" fill="#84BE84" rx="3" ry="3" style="stroke:#038048;stroke-width:1.0;"/><text fill="#000000" font-family="sans-serif" font-size="14" lengthAdjust="spacing" textLength="288.4766" x="262.76" y="913.33">void doComputeAsync(InputStream,String)</text><ellipse cx="253.76" cy="926.0273" fill="#84BE84" rx="3" ry="3" style="stroke:#038048;stroke-width:1.0;"/><text fill="#000000" font-family="sans-serif" font-size="14" lengthAdjust="spacing" textLength="129.8076" x="262.76" y="929.8183">void doStop(String)</text></g><!--class AwsPolly$Companion--><g id="elem_AwsPolly$Companion"><rect  fill="#F1F1F1" height="97.4648" id="AwsPolly$Companion" rx="2.5" ry="2.5" style="stroke:#181818;stroke-width:0.5;" width="178.1045" x="707.95" y="822.82"/><ellipse cx="722.95" cy="838.82" fill="#ADD1B2" rx="11" ry="11" style="stroke:#181818;stroke-width:1.0;"/><path d="M725.9231,844.4631 Q725.3421,844.7619 724.7029,844.9113 Q724.0638,845.0607 723.3582,845.0607 Q720.8514,845.0607 719.5315,843.4089 Q718.2117,841.757 718.2117,838.6359 Q718.2117,835.5065 719.5315,833.8547 Q720.8514,832.2028 723.3582,832.2028 Q724.0638,832.2028 724.7112,832.3522 Q725.3587,832.5016 725.9231,832.8005 L725.9231,835.5231 Q725.2923,834.9421 724.6988,834.6723 Q724.1053,834.4025 723.4744,834.4025 Q722.1297,834.4025 721.4449,835.4692 Q720.7601,836.5358 720.7601,838.6359 Q720.7601,840.7277 721.4449,841.7944 Q722.1297,842.861 723.4744,842.861 Q724.1053,842.861 724.6988,842.5912 Q725.2923,842.3215 725.9231,841.7404 Z " fill="#000000"/><text fill="#000000" font-family="sans-serif" font-size="14" lengthAdjust="spacing" textLength="146.1045" x="736.95" y="844.111">AwsPolly$Companion</text><line style="stroke:#181818;stroke-width:0.5;" x1="708.95" x2="885.0545" y1="854.82" y2="854.82"/><rect fill="none" height="6" style="stroke:#C82930;stroke-width:1.0;" width="6" x="715.95" y="865.5641"/><text fill="#000000" font-family="sans-serif" font-size="14" lengthAdjust="spacing" textLength="87.9854" x="727.95" y="872.3552">VOICE_NAME</text><rect fill="none" height="6" style="stroke:#C82930;stroke-width:1.0;" width="6" x="715.95" y="882.0524"/><text fill="#000000" font-family="sans-serif" font-size="14" lengthAdjust="spacing" textLength="81.2383" x="727.95" y="888.8434">VOICE_TYPE</text><rect fill="none" height="6" style="stroke:#C82930;stroke-width:1.0;" width="6" x="715.95" y="898.5407"/><text fill="#000000" font-family="sans-serif" font-size="14" lengthAdjust="spacing" textLength="133.1914" x="727.95" y="905.3317">MAX_TEXT_LENGTH</text><line style="stroke:#181818;stroke-width:0.5;" x1="708.95" x2="885.0545" y1="912.2848" y2="912.2848"/></g><!--class AwsPolly--><g id="elem_AwsPolly"><rect  fill="#F1F1F1" height="179.9063" id="AwsPolly" rx="2.5" ry="2.5" style="stroke:#181818;stroke-width:0.5;" width="316.958" x="638.52" y="566.42"/><ellipse cx="763.0845" cy="582.42" fill="#ADD1B2" rx="11" ry="11" style="stroke:#181818;stroke-width:1.0;"/><path d="M766.0576,588.0631 Q765.4765,588.3619 764.8374,588.5113 Q764.1982,588.6607 763.4927,588.6607 Q760.9858,588.6607 759.666,587.0089 Q758.3462,585.357 758.3462,582.2359 Q758.3462,579.1065 759.666,577.4547 Q760.9858,575.8028 763.4927,575.8028 Q764.1982,575.8028 764.8457,575.9522 Q765.4931,576.1016 766.0576,576.4005 L766.0576,579.1231 Q765.4267,578.5421 764.8332,578.2723 Q764.2397,578.0025 763.6089,578.0025 Q762.2641,578.0025 761.5793,579.0692 Q760.8945,580.1358 760.8945,582.2359 Q760.8945,584.3277 761.5793,585.3944 Q762.2641,586.461 763.6089,586.461 Q764.2397,586.461 764.8332,586.1912 Q765.4267,585.9215 766.0576,585.3404 Z " fill="#000000"/><text fill="#000000" font-family="sans-serif" font-size="14" lengthAdjust="spacing" textLength="59.3291" x="783.5845" y="587.711">AwsPolly</text><line style="stroke:#181818;stroke-width:0.5;" x1="639.52" x2="954.478" y1="598.42" y2="598.42"/><rect fill="none" height="6" style="stroke:#C82930;stroke-width:1.0;" width="6" x="646.52" y="609.1641"/><text fill="#000000" font-family="sans-serif" font-size="14" lengthAdjust="spacing" textLength="118.5762" x="658.52" y="615.9552">PollyClient? client</text><rect fill="none" height="6" style="stroke:#C82930;stroke-width:1.0;" width="6" x="646.52" y="625.6524"/><text fill="#000000" font-family="sans-serif" font-size="14" lengthAdjust="spacing" textLength="81.9697" x="658.52" y="632.4434">Voice? voice</text><line style="stroke:#181818;stroke-width:0.5;" x1="639.52" x2="954.478" y1="639.3966" y2="639.3966"/><ellipse cx="649.52" cy="653.1407" fill="#84BE84" rx="3" ry="3" style="stroke:#038048;stroke-width:1.0;"/><text fill="#000000" font-family="sans-serif" font-size="14" lengthAdjust="spacing" textLength="290.958" x="658.52" y="656.9317">&#171;Create&#187; AwsPolly(Text2SpeechPlayer&lt;C&gt;)</text><rect fill="#F24D5C" height="6" style="stroke:#C82930;stroke-width:1.0;" width="6" x="646.52" y="666.629"/><text fill="#000000" font-family="sans-serif" font-size="14" lengthAdjust="spacing" textLength="182.0068" x="658.52" y="673.42">PollyClient initializeClient()</text><rect fill="#F24D5C" height="6" style="stroke:#C82930;stroke-width:1.0;" width="6" x="646.52" y="683.1173"/><text fill="#000000" font-family="sans-serif" font-size="14" lengthAdjust="spacing" textLength="144.792" x="658.52" y="689.9083">Voice initializeVoice()</text><ellipse cx="649.52" cy="702.6055" fill="#84BE84" rx="3" ry="3" style="stroke:#038048;stroke-width:1.0;"/><text fill="#000000" font-family="sans-serif" font-size="14" lengthAdjust="spacing" textLength="153.7471" x="658.52" y="706.3966">void doActivate(String)</text><ellipse cx="649.52" cy="719.0938" fill="#84BE84" rx="3" ry="3" style="stroke:#038048;stroke-width:1.0;"/><text fill="#000000" font-family="sans-serif" font-size="14" lengthAdjust="spacing" textLength="170.1055" x="658.52" y="722.8848">void doDeactivate(String)</text><ellipse cx="649.52" cy="735.5821" fill="#84BE84" rx="3" ry="3" style="stroke:#038048;stroke-width:1.0;"/><text fill="#000000" font-family="sans-serif" font-size="14" lengthAdjust="spacing" textLength="215.8242" x="658.52" y="739.3731">InputStream? fetchAudio(String)</text></g><!--class ServiceInterface--><g id="elem_ServiceInterface"><rect fill="#F1F1F1" height="48" id="ServiceInterface" rx="2.5" ry="2.5" style="stroke:#181818;stroke-width:0.5;" width="138.668" x="462.67" y="243.25"/><ellipse cx="477.67" cy="259.25" fill="#ADD1B2" rx="11" ry="11" style="stroke:#181818;stroke-width:1.0;"/><path d="M480.6431,264.8931 Q480.0621,265.1919 479.4229,265.3413 Q478.7838,265.4907 478.0782,265.4907 Q475.5714,265.4907 474.2515,263.8389 Q472.9317,262.187 472.9317,259.0659 Q472.9317,255.9365 474.2515,254.2847 Q475.5714,252.6328 478.0782,252.6328 Q478.7838,252.6328 479.4312,252.7822 Q480.0787,252.9316 480.6431,253.2305 L480.6431,255.9531 Q480.0123,255.3721 479.4188,255.1023 Q478.8253,254.8325 478.1944,254.8325 Q476.8497,254.8325 476.1649,255.8992 Q475.4801,256.9658 475.4801,259.0659 Q475.4801,261.1577 476.1649,262.2244 Q476.8497,263.291 478.1944,263.291 Q478.8253,263.291 479.4188,263.0212 Q480.0123,262.7515 480.6431,262.1704 Z " fill="#000000"/><text fill="#000000" font-family="sans-serif" font-size="14" lengthAdjust="spacing" textLength="106.668" x="491.67" y="264.541">ServiceInterface</text><line style="stroke:#181818;stroke-width:0.5;" x1="463.67" x2="600.338" y1="275.25" y2="275.25"/><line style="stroke:#181818;stroke-width:0.5;" x1="463.67" x2="600.338" y1="283.25" y2="283.25"/></g><!--class Service--><g id="elem_Service"><rect fill="#F1F1F1" height="48" id="Service" rx="2.5" ry="2.5" style="stroke:#181818;stroke-width:0.5;" width="79.332" x="511.33" y="408.96"/><ellipse cx="526.33" cy="424.96" fill="#ADD1B2" rx="11" ry="11" style="stroke:#181818;stroke-width:1.0;"/><path d="M529.3031,430.6031 Q528.7221,430.9019 528.0829,431.0513 Q527.4438,431.2007 526.7382,431.2007 Q524.2314,431.2007 522.9115,429.5489 Q521.5917,427.897 521.5917,424.7759 Q521.5917,421.6465 522.9115,419.9947 Q524.2314,418.3428 526.7382,418.3428 Q527.4438,418.3428 528.0912,418.4922 Q528.7387,418.6416 529.3031,418.9405 L529.3031,421.6631 Q528.6723,421.0821 528.0788,420.8123 Q527.4853,420.5425 526.8544,420.5425 Q525.5097,420.5425 524.8249,421.6092 Q524.1401,422.6758 524.1401,424.7759 Q524.1401,426.8677 524.8249,427.9344 Q525.5097,429.001 526.8544,429.001 Q527.4853,429.001 528.0788,428.7312 Q528.6723,428.4615 529.3031,427.8804 Z " fill="#000000"/><text fill="#000000" font-family="sans-serif" font-size="14" lengthAdjust="spacing" textLength="47.332" x="540.33" y="430.251">Service</text><line style="stroke:#181818;stroke-width:0.5;" x1="512.33" x2="589.662" y1="440.96" y2="440.96"/><line style="stroke:#181818;stroke-width:0.5;" x1="512.33" x2="589.662" y1="448.96" y2="448.96"/></g><!--class ReusableService--><g id="elem_ReusableService"><rect fill="#F1F1F1" height="48" id="ReusableService" rx="2.5" ry="2.5" style="stroke:#181818;stroke-width:0.5;" width="140.1992" x="726.9" y="243.25"/><ellipse cx="741.9" cy="259.25" fill="#ADD1B2" rx="11" ry="11" style="stroke:#181818;stroke-width:1.0;"/><path d="M744.8731,264.8931 Q744.2921,265.1919 743.6529,265.3413 Q743.0138,265.4907 742.3082,265.4907 Q739.8014,265.4907 738.4815,263.8389 Q737.1617,262.187 737.1617,259.0659 Q737.1617,255.9365 738.4815,254.2847 Q739.8014,252.6328 742.3082,252.6328 Q743.0138,252.6328 743.6612,252.7822 Q744.3087,252.9316 744.8731,253.2305 L744.8731,255.9531 Q744.2423,255.3721 743.6488,255.1023 Q743.0553,254.8325 742.4244,254.8325 Q741.0797,254.8325 740.3949,255.8992 Q739.7101,256.9658 739.7101,259.0659 Q739.7101,261.1577 740.3949,262.2244 Q741.0797,263.291 742.4244,263.291 Q743.0553,263.291 743.6488,263.0212 Q744.2423,262.7515 744.8731,262.1704 Z " fill="#000000"/><text fill="#000000" font-family="sans-serif" font-size="14" lengthAdjust="spacing" textLength="108.1992" x="755.9" y="264.541">ReusableService</text><line style="stroke:#181818;stroke-width:0.5;" x1="727.9" x2="866.0992" y1="275.25" y2="275.25"/><line style="stroke:#181818;stroke-width:0.5;" x1="727.9" x2="866.0992" y1="283.25" y2="283.25"/></g><!--reverse link ServiceInterface to Text2SpeechPlayerInterface--><g id="link_ServiceInterface_Text2SpeechPlayerInterface"><path  d="M481.6068,301.6451 C442.1268,327.8151 392.57,360.66 345.13,392.11 " fill="none" id="ServiceInterface-backto-Text2SpeechPlayerInterface" style="stroke:#181818;stroke-width:1.0;stroke-dasharray:7.0,7.0;"/><polygon fill="none" points="496.61,291.7,478.2918,296.6441,484.9219,306.6462,496.61,291.7" style="stroke:#181818;stroke-width:1.0;"/></g><!--reverse link Service to Text2SpeechPlayer--><g id="link_Service_Text2SpeechPlayer"><path  d="M524.987,472.1001 C495.977,514.6301 444.9,589.54 415.89,632.08 " fill="none" id="Service-backto-Text2SpeechPlayer" style="stroke:#181818;stroke-width:1.0;"/><polygon fill="none" points="535.13,457.23,520.0303,468.7191,529.9437,475.4811,535.13,457.23" style="stroke:#181818;stroke-width:1.0;"/></g><!--reverse link Text2SpeechPlayerInterface to Text2SpeechPlayer--><g id="link_Text2SpeechPlayerInterface_Text2SpeechPlayer"><path  d="M313.9865,489.774 C337.9765,535.964 368.42,594.58 387.94,632.16 " fill="none" id="Text2SpeechPlayerInterface-backto-Text2SpeechPlayer" style="stroke:#181818;stroke-width:1.0;stroke-dasharray:7.0,7.0;"/><polygon fill="none" points="305.69,473.8,308.6618,492.5395,319.3112,487.0085,305.69,473.8" style="stroke:#181818;stroke-width:1.0;"/></g><!--reverse link ReusableService to Text2Speech--><g id="link_ReusableService_Text2Speech"><path  d="M797,309.7 C797,327.47 797,334.91 797,359.25 " fill="none" id="ReusableService-backto-Text2Speech" style="stroke:#181818;stroke-width:1.0;"/><polygon fill="none" points="797,291.7,791,309.7,803,309.7,797,291.7" style="stroke:#181818;stroke-width:1.0;"/></g><!--reverse link CallbackInput to PlaybackData--><g id="link_CallbackInput_PlaybackData"><path  d="M261,193.4 C261,210.5 261,215.89 261,234.65 " fill="none" id="CallbackInput-backto-PlaybackData" style="stroke:#181818;stroke-width:1.0;stroke-dasharray:7.0,7.0;"/><polygon fill="none" points="261,175.4,255,193.4,267,193.4,261,175.4" style="stroke:#181818;stroke-width:1.0;"/></g><!--reverse link Text2SpeechPlayer to DesktopAudioPlayer--><g id="link_Text2SpeechPlayer_DesktopAudioPlayer"><path  d="M400,698.59 C400,728.49 400,763.63 400,806.12 " fill="none" id="Text2SpeechPlayer-backto-DesktopAudioPlayer" style="stroke:#181818;stroke-width:1.0;"/><polygon fill="none" points="400,680.59,394,698.59,406,698.59,400,680.59" style="stroke:#181818;stroke-width:1.0;"/></g><!--reverse link AwsPolly to AwsPolly$Companion--><g id="link_AwsPolly_AwsPolly$Companion"><path  d="M797,762.55 C797,788.56 797,799.99 797,822.43 " fill="none" id="AwsPolly-backto-AwsPolly$Companion" style="stroke:#181818;stroke-width:1.0;stroke-dasharray:7.0,7.0;"/><ellipse cx="797" cy="754.55" fill="#FFFFFF" rx="8" ry="8" style="stroke:#181818;stroke-width:1.0;"/><line style="stroke:#181818;stroke-width:1.0;" x1="797" x2="797" y1="762.55" y2="746.55"/><line style="stroke:#181818;stroke-width:1.0;" x1="789" x2="805" y1="754.55" y2="754.55"/></g><!--reverse link Text2Speech to AwsPolly--><g id="link_Text2Speech_AwsPolly"><path  d="M797,524.76 C797,543.8 797,546.53 797,566.3 " fill="none" id="Text2Speech-backto-AwsPolly" style="stroke:#181818;stroke-width:1.0;"/><polygon fill="none" points="797,506.76,791,524.76,803,524.76,797,506.76" style="stroke:#181818;stroke-width:1.0;"/></g><!--SRC=[hLHHJzim47xFhx2qFQIZpGFFKQiiZQ0IPHND63nLL-Se5iQkucksRkE_uvYb18KoGlfa- -oxxxxlpYSKONu375acLe901aijXSA0WvIHCS8GA0e8Vz6nMIFoso0jztEtdqdOOZxPnVZZ7R7OEYw1tqr1mGhpCEwpxqhGa6dr5LT2bJv2hQfdvcsNH6KDXmVFWwMX73WnBi6O3hdRb1yE4SrHj_bUeDb8gfCBmpX781mEMUsztyWa_3BiUP_OHAqtD2VhSZzYDqZyDjfaGllMP4NesO255XdBTAplxKkCp5RnVxVzngCV8AZfEYUztbcjcbvBtcN29Rqn43ZYDOxrExyw90Kg6lLha2qHnsZkRD9EYbtXdE3xUcfFxmnOb1MWE6PFOKPixTOzkjQgqJ-uZD5FCzDIRZ-NaA24LfRKWB7BRvCuMPn7q-Jvb5xFt6aQNItIv2fTd2Nd9-df1wIiK1sMsyLIbEMntL-krdgf1STHIPFZo-fMpg-qRspRzqL09kmV5Y35Rtmo-BqgTktAdVsQgX4dKLYqPjkE4Pft__ilPLqyxztgp34lR4BF8oty6mI7c8sjKx38Wq47PEyG0xqZ-_VdS84R0qk9dSc_3LaD0jSrBTdL9ri7SLjIQqu-h_rNFsh3ipcMFiIs9SyAzH40]--></g></svg>